<?xml version="1.0" standalone="no"?>
<!DOCTYPE svg PUBLIC "-//W3C//DTD SVG 1.1//EN" "http://www.w3.org/Graphics/SVG/1.1/DTD/svg11.dtd" >
<svg xmlns="http://www.w3.org/2000/svg">
<metadata>Generated by IcoMoon</metadata>
<defs>
<font id="db-icons" horiz-adv-x="1024">
<font-face units-per-em="1024" ascent="960" descent="-64" />
<missing-glyph horiz-adv-x="1024" />
<glyph unicode="&#x20;" horiz-adv-x="512" d="" />
<glyph unicode="&#xe900;" glyph-name="Suchen_v1-2" d="M896 160l-233.6 233.6c25.6 44.8 41.6 96 41.6 150.4 0 160-128 288-288 288s-288-128-288-288 128-288 288-288c54.4 0 105.6 16 150.4 41.6l233.6-233.6 96 96zM192 544c0 124.8 99.2 224 224 224s224-99.2 224-224-99.2-224-224-224-224 99.2-224 224z" />
<glyph unicode="&#xe901;" glyph-name="Drucken_v1-2" d="M768 448v224l-160 160h-352v-384c-70.4 0-128-57.6-128-128v-128h128v-128h512v128h128v128c0 70.4-57.6 128-128 128zM320 768h256v-128h128v-192h-384v320zM704 128h-384v128h384v-128z" />
<glyph unicode="&#xe902;" glyph-name="Loeschen_v1-2" d="M832 704c0 35.2-28.8 64-64 64h-128v64h-256v-64h-128c-35.2 0-64-28.8-64-64v-64h64v-576h512v576h64v64zM352 160v480h64v-480h-64zM480 160v480h64v-480h-64zM672 160h-64v480h64v-480z" />
<glyph unicode="&#xe903;" glyph-name="Login_v1-2" d="M656 688c0-79.529-64.471-144-144-144s-144 64.471-144 144c0 79.529 64.471 144 144 144s144-64.471 144-144zM832 409.6v0c-96 44.8-204.8 70.4-320 70.4s-224-25.6-320-70.4v0l-32-345.6h128l16 160h64l-16-160h320l-16 160h64l16-160h128l-32 345.6z" />
<glyph unicode="&#xe904;" glyph-name="Standort_v1-2" d="M512 832c-150.4 0-272-121.6-272-272 0-57.6 16-102.4 51.2-156.8s220.8-339.2 220.8-339.2 185.6 284.8 220.8 339.2c35.2 54.4 51.2 99.2 51.2 156.8 0 150.4-121.6 272-272 272zM512 432c-70.4 0-128 57.6-128 128s57.6 128 128 128 128-57.6 128-128-57.6-128-128-128z" />
<glyph unicode="&#xe905;" glyph-name="Warenkorb_v1-2" d="M448 128c0-35.346-28.654-64-64-64s-64 28.654-64 64c0 35.346 28.654 64 64 64s64-28.654 64-64zM768 128c0-35.346-28.654-64-64-64s-64 28.654-64 64c0 35.346 28.654 64 64 64s64-28.654 64-64zM832 480l32 224h-553.6l-22.4 128h-160v-64h105.6l86.4-512h448v64h-393.6l-12.8 67.2z" />
<glyph unicode="&#xe906;" glyph-name="Einstellungen_v1-2" d="M896 406.4v83.2l-105.6 38.4-25.6 60.8 51.2 99.2-67.2 64-96-51.2-60.8 25.6-38.4 105.6h-83.2l-38.4-105.6-60.8-25.6-96 51.2-67.2-64 51.2-99.2-25.6-60.8-105.6-38.4v-83.2l105.6-38.4 25.6-64-51.2-96 67.2-64 96 51.2 60.8-25.6 38.4-105.6h83.2l38.4 105.6 60.8 25.6 96-51.2 67.2 64-51.2 96 25.6 64 105.6 38.4zM512 313.6c-73.6 0-134.4 60.8-134.4 134.4s60.8 134.4 134.4 134.4 134.4-60.8 134.4-134.4c0-73.6-60.8-134.4-134.4-134.4z" />
<glyph unicode="&#xe907;" glyph-name="Menue_v1-2" d="M192 736h640v-96h-640v96zM192 512h640v-96h-640v96zM192 288h640v-96h-640v96z" />
<glyph unicode="&#xe908;" glyph-name="Information_v1-2" d="M640 704c0-70.692-57.308-128-128-128s-128 57.308-128 128c0 70.692 57.308 128 128 128s128-57.308 128-128zM640 128v384h-320v-64h64v-320h-64v-64h384v64z" />
<glyph unicode="&#xe909;" glyph-name="Kontakt_Telefon_v1-2" d="M521.6 681.6l-60.8 150.4c0 0-92.8-16-124.8-22.4-35.2-6.4-44.8-48-48-57.6-9.6-108.8 6.4-243.2 54.4-364.8 0 0 3.2-6.4 3.2-6.4 48-118.4 131.2-230.4 214.4-300.8 6.4-6.4 44.8-28.8 73.6-9.6 25.6 16 105.6 70.4 105.6 70.4l-60.8 150.4-147.2-28.8c-38.4 44.8-70.4 92.8-96 150.4 0 0-3.2 6.4-3.2 6.4-22.4 57.6-35.2 115.2-38.4 176l128 86.4z" />
<glyph unicode="&#xe90a;" glyph-name="Kontakt_E-Mail_v1-2" d="M128 556.8v-364.8h768v364.8l-384-224zM128 704v-64l384-224 384 224v64z" />
<glyph unicode="&#xe90b;" glyph-name="Ton_v1-2" d="M128 576v-256h160l192-192v640l-192-192zM720 832l-44.8-44.8c96-83.2 156.8-204.8 156.8-339.2s-60.8-256-156.8-339.2l44.8-44.8c105.6 92.8 176 230.4 176 384s-67.2 291.2-176 384zM614.4 726.4l-44.8-44.8c64-57.6 102.4-140.8 102.4-233.6s-38.4-176-102.4-233.6l44.8-44.8c73.6 70.4 121.6 169.6 121.6 278.4s-44.8 208-121.6 278.4z" />
<glyph unicode="&#xe90c;" glyph-name="Vergroessern_v1-2" d="M896 160l-233.6 233.6c25.6 44.8 41.6 96 41.6 150.4 0 160-128 288-288 288s-288-128-288-288 128-288 288-288c54.4 0 105.6 16 150.4 41.6l233.6-233.6 96 96zM192 544c0 124.8 99.2 224 224 224s224-99.2 224-224-99.2-224-224-224-224 99.2-224 224zM448 704h-64v-128h-128v-64h128v-128h64v128h128v64h-128z" />
<glyph unicode="&#xe90d;" glyph-name="Verkleinern_v1-2" d="M896 160l-233.6 233.6c25.6 44.8 41.6 96 41.6 150.4 0 160-128 288-288 288s-288-128-288-288 128-288 288-288c54.4 0 105.6 16 150.4 41.6l233.6-233.6 96 96zM192 544c0 124.8 99.2 224 224 224s224-99.2 224-224-99.2-224-224-224-224 99.2-224 224zM256 576h320v-64h-320v64z" />
<glyph unicode="&#xe90e;" glyph-name="Pfeil_rechts_v1-2" d="M128 512h512v-96h-512v96zM579.2 780.8l-64-64 252.8-252.8-252.8-252.8 64-64 316.8 316.8z" />
<glyph unicode="&#xe90f;" glyph-name="Pfeil_links_v1-2" d="M384 512h512v-96h-512v96zM444.8 780.8l64-64-252.8-252.8 252.8-252.8-64-64-316.8 316.8z" />
<glyph unicode="&#xe910;" glyph-name="Externer_Link_v1-2" d="M654.475 521.431l-362.035-362.035-67.882 67.882 362.035 362.035 67.882-67.882zM352 736v-89.6h358.4v-358.4h89.6v448z" />
<glyph unicode="&#xe911;" glyph-name="Download_v1-2" d="M1024-32c0-16-16-32-32-32h-960c-16 0-32 16-32 32v960c0 16 16 32 32 32h960c16 0 32-16 32-32v-960zM288 160h448v-96h-448v96zM464 832h96v-384h-96v384zM828.8 508.8l-64 64-252.8-252.8-252.8 252.8-64-64 316.8-316.8z" />
<glyph unicode="&#xe912;" glyph-name="Seitenanfang_v1-2" d="M192 736h640v-96h-640v96zM195.2 291.2l64-64 252.8 252.8 252.8-252.8 64 64-316.8 316.8z" />
<glyph unicode="&#xe913;" glyph-name="Weiter_v1-2" d="M416 800l-96-96 256-256-256-256 96-96 352 352z" />
<glyph unicode="&#xe914;" glyph-name="Zurueck_v1-2" d="M608 800l96-96-256-256 256-256-96-96-352 352z" />
<glyph unicode="&#xe915;" glyph-name="Ausklappen_v1-2" d="M160 544l96 96 256-256 256 256 96-96-352-352z" />
<glyph unicode="&#xe916;" glyph-name="Einklappen_v1-2" d="M864 352l-96-96-256 256-256-256-96 96 352 352z" />
<glyph unicode="&#xe917;" glyph-name="Schliessen_v1-2" d="M864 704l-96 96-256-256-256 256-96-96 256-256-256-256 96-96 256 256 256-256 96 96-256 256z" />
<glyph unicode="&#xe918;" glyph-name="Uhrzeit_v1-2" d="M512 832c-211.2 0-384-172.8-384-384s172.8-384 384-384 384 172.8 384 384-172.8 384-384 384zM512 128c-176 0-320 144-320 320s144 320 320 320 320-144 320-320-144-320-320-320zM544 672h-64v-288h224v64h-160z" />
<glyph unicode="&#xe919;" glyph-name="Alarm_v1-2" d="M544 640h-64v-256h192v64h-128zM838.4 579.2l57.6 80c-38.4 73.6-99.2 134.4-176 176l-80-57.6c-41.6 16-83.2 25.6-131.2 25.6s-89.6-9.6-131.2-25.6l-80 57.6c-73.6-38.4-134.4-99.2-176-176l57.6-80c-16-41.6-25.6-83.2-25.6-131.2 0-96 38.4-185.6 102.4-246.4l-102.4-137.6h96l67.2 89.6c54.4-35.2 118.4-57.6 188.8-57.6s134.4 19.2 188.8 57.6l67.2-89.6h96l-102.4 137.6c64 64 102.4 150.4 102.4 246.4 6.4 44.8-3.2 89.6-19.2 131.2zM512 160c-160 0-288 128-288 288s128 288 288 288 288-128 288-288-128-288-288-288z" />
<glyph unicode="&#xe91a;" glyph-name="Kalender_v1-2" d="M288 480h96v-96h-96v96zM288 320h96v-96h-96v96zM640 480h96v-96h-96v96zM640 320h96v-96h-96v96zM464 480h96v-96h-96v96zM464 320h96v-96h-96v96zM768 704v128h-64v-128h-384v128h-64v-128h-128v-640h768v640h-128zM832 128h-640v448h640v-448z" />
<glyph unicode="&#xe91b;" glyph-name="Abfahrt-Ankunft_v1-2" d="M448 704h-64v-224h160v64h-96zM656 704c-51.2 76.8-140.8 128-240 128-160 0-288-128-288-288s128-288 288-288c9.6 0 22.4 0 32 3.2v-195.2h448v640h-240zM416 320c-124.8 0-224 99.2-224 224s99.2 224 224 224 224-99.2 224-224-99.2-224-224-224zM800 192h-256v64h256v-64zM800 352h-169.6c16 19.2 32 41.6 44.8 64h124.8v-64zM800 512h-99.2c0 9.6 3.2 22.4 3.2 32s0 22.4-3.2 32h99.2v-64z" />
<glyph unicode="&#xe91c;" glyph-name="Home_v1-2" d="M896 448l-384 384-384-384h128v-384h160v192h192v-192h160v384z" />
<glyph unicode="&#xe91d;" glyph-name="Favoriten_v1-2" d="M672 384l224 160h-288l-96 288-96-288h-288l224-160-96-288 256 179.2 256-179.2z" />
<glyph unicode="&#xe91e;" glyph-name="Teilen_v1-2" d="M745.6 304c-32 0-60.8-12.8-83.2-32l-265.6 150.4c3.2 9.6 3.2 16 3.2 25.6s0 19.2-3.2 25.6l265.6 150.4c22.4-19.2 51.2-32 83.2-32 67.2 0 121.6 54.4 121.6 121.6s-54.4 121.6-121.6 121.6-121.6-54.4-121.6-121.6c0-9.6 0-19.2 3.2-25.6l-265.6-150.4c-22.4 19.2-51.2 32-83.2 32-67.2 0-121.6-54.4-121.6-121.6s54.4-121.6 121.6-121.6c32 0 60.8 12.8 83.2 32l265.6-150.4c-3.2-9.6-3.2-16-3.2-25.6 0-67.2 54.4-121.6 121.6-121.6s121.6 54.4 121.6 121.6-57.6 121.6-121.6 121.6z" />
<glyph unicode="&#xe91f;" glyph-name="Tickets_v1-2" d="M128 832v-608h224v96h-48v96h48v320h224v96h-448zM256 320h-96v96h96v-96zM448 640v-576h448v576h-448zM576 160h-96v96h96v-96zM720 160h-96v96h96v-96zM864 160h-96v96h96v-96z" />
<glyph unicode="&#xe920;" glyph-name="Sparpreis_v1-2" d="M371.2 816c-64 16-118.4 16-118.4 16h-124.8v-64h121.6c0 0 92.8-3.2 163.2-67.2-6.4-19.2-16-48-16-48s-67.2 19.2-99.2 19.2h-169.6v-160c0 0 393.6 0 409.6 0s70.4 16 70.4 64c0 67.2-118.4 214.4-236.8 240zM688 480c-115.2 0-208-92.8-208-208s92.8-208 208-208 208 92.8 208 208-92.8 208-208 208zM768 345.6c-16 16-38.4 22.4-57.6 22.4-35.2 0-54.4-22.4-60.8-48h86.4v-38.4h-92.8c0-3.2 0-6.4 0-9.6s0-9.6 0-12.8h92.8v-35.2h-86.4c6.4-25.6 25.6-51.2 60.8-51.2 22.4 0 41.6 6.4 57.6 19.2v-64c-19.2-9.6-41.6-9.6-60.8-9.6-76.8 0-115.2 48-128 108.8h-25.6v35.2h22.4c0 3.2 0 9.6 0 12.8s0 6.4 0 9.6h-22.4v38.4h25.6c12.8 54.4 48 99.2 108.8 105.6 6.4 0 12.8 0 16 0 25.6 0 41.6-3.2 60.8-12.8v-70.4z" />
<glyph unicode="&#xe921;" glyph-name="Liste_v1-2" d="M128 288h96v-96h-96v96zM320 288h576v-96h-576v96zM128 512h96v-96h-96v96zM320 512h576v-96h-576v96zM128 736h96v-96h-96v96zM320 736h576v-96h-576v96z" />
<glyph unicode="&#xe922;" glyph-name="Position_v1-2" d="M896 832l-768-416 320-32 32-320 416 768z" />
<glyph unicode="&#xe923;" glyph-name="Position-bestimmen_v1-2" d="M896 480h-35.2c-16 169.6-150.4 304-316.8 316.8v35.2h-64v-35.2c-169.6-16-304-150.4-316.8-316.8h-35.2v-64h35.2c16-169.6 150.4-304 316.8-316.8v-35.2h64v35.2c169.6 16 304 150.4 316.8 316.8h35.2v64zM544 163.2v92.8h-64v-92.8c-134.4 16-240 121.6-252.8 252.8h92.8v64h-92.8c16 134.4 121.6 240 252.8 252.8v-92.8h64v92.8c134.4-16 240-121.6 252.8-252.8h-92.8v-64h92.8c-12.8-134.4-118.4-240-252.8-252.8zM576 448c0-35.346-28.654-64-64-64s-64 28.654-64 64c0 35.346 28.654 64 64 64s64-28.654 64-64z" />
<glyph unicode="&#xe924;" glyph-name="Karte_v1-2" d="M640 800l-256-160-224 160v-544l224-160 256 160 224-160v544l-224 160zM640 336l-256-160v384l256 160v-384z" />
<glyph unicode="&#xe925;" glyph-name="Reisemappe_v1-2" d="M768 64v544h-192v224l-320-224v-544h512zM704 128h-355.2l227.2 160v256h128v-416z" />
<glyph unicode="&#xe926;" glyph-name="Kommentieren_v1-2" d="M896 496c0-132.48-172.16-240-384-240-63.36-128-224-160-224-160s57.92 86.4 32 192c-114.24 41.28-192 119.36-192 208 0 132.48 172.16 240 384 240s384-107.52 384-240z" />
<glyph unicode="&#xe927;" glyph-name="Mobil_v1-2" d="M640 832h-256c-54.4 0-96-41.6-96-96v-576c0-54.4 41.6-96 96-96h256c54.4 0 96 41.6 96 96v576c0 54.4-41.6 96-96 96zM576 128h-128v64h128v-64zM672 256h-320v480c0 19.2 12.8 32 32 32h256c19.2 0 32-12.8 32-32v-480z" />
<glyph unicode="&#xe928;" glyph-name="Personen_v1-2" d="M582.4 758.4c0-38.881-31.519-70.4-70.4-70.4s-70.4 31.519-70.4 70.4c0 38.881 31.519 70.4 70.4 70.4s70.4-31.519 70.4-70.4zM720 390.4l-51.2 217.6c-19.2 9.6-41.6 12.8-60.8 19.2-28.8 6.4-60.8 12.8-96 12.8s-64-3.2-96-12.8c-22.4-6.4-41.6-9.6-60.8-19.2l-51.2-217.6c-3.2-16 6.4-35.2 22.4-38.4s35.2 6.4 38.4 22.4l32 134.4h16v-409.6c0-22.4 19.2-38.4 38.4-38.4s38.4 19.2 38.4 38.4v217.6h32v-217.6c0-22.4 19.2-38.4 38.4-38.4s38.4 19.2 38.4 38.4v409.6h25.6l32-134.4c3.2-16 22.4-28.8 38.4-22.4 19.2 6.4 28.8 22.4 25.6 38.4z" />
<glyph unicode="&#xe929;" glyph-name="Sitzplatz_v1-2" d="M496 758.4c0-38.881-31.519-70.4-70.4-70.4s-70.4 31.519-70.4 70.4c0 38.881 31.519 70.4 70.4 70.4s70.4-31.519 70.4-70.4zM480 224c-57.6 0-102.4 38.4-118.4 92.8v0l-73.6 259.2v192h-64v-192l73.6-275.2c22.4-83.2 99.2-140.8 182.4-140.8h160v64h-160zM416 640c-3.2 0-6.4 0-9.6 0h9.6zM832 115.2l-64 240c-6.4 19.2-22.4 28.8-38.4 28.8h-192l-54.4 208c-9.6 35.2-44.8 54.4-80 44.8-25.6-6.4-41.6-25.6-44.8-51.2-3.2-9.6-3.2-19.2 0-28.8l70.4-227.2c0-3.2 0-3.2 0 0 9.6-25.6 28.8-41.6 57.6-41.6h220.8l51.2-195.2c6.4-22.4 28.8-35.2 48-28.8s28.8 28.8 25.6 51.2z" />
<glyph unicode="&#xe92a;" glyph-name="Reservierung_v1-2" d="M512 614.4h-64v-118.4h64c54.4 0 73.6 16 73.6 57.6v0c0 44.8-19.2 60.8-73.6 60.8zM512 832c-211.2 0-384-172.8-384-384s172.8-384 384-384c211.2 0 384 172.8 384 384s-172.8 384-384 384zM608 192l-105.6 192c-6.4 9.6-16 16-25.6 16h-28.8v-208h-128v512h198.4c131.2 0 192-48 192-150.4 0-76.8-38.4-118.4-92.8-134.4l124.8-227.2h-134.4z" />
<glyph unicode="&#xe92b;" glyph-name="U-Bahn_v1-2" d="M512 832c-211.2 0-384-172.8-384-384s172.8-384 384-384c211.2 0 384 172.8 384 384s-172.8 384-384 384zM704 364.8c0-128-70.4-192-192-192s-192 64-192 192v339.2h128v-332.8c0-57.6 25.6-80 64-80 41.6 0 64 22.4 64 80v332.8h128v-339.2z" />
<glyph unicode="&#xe92c;" glyph-name="S-Bahn_v1-2" d="M512 832c-211.2 0-384-172.8-384-384s172.8-384 384-384c211.2 0 384 172.8 384 384s-172.8 384-384 384zM521.6 172.8c-76.8 0-163.2 35.2-211.2 76.8v108.8c44.8-67.2 128-115.2 211.2-115.2 51.2 0 92.8 28.8 92.8 60.8 0 118.4-310.4 44.8-310.4 249.6 0 105.6 105.6 163.2 198.4 163.2 76.8 0 147.2-25.6 201.6-67.2v-89.6c-48 51.2-118.4 96-204.8 96-48 0-76.8-25.6-76.8-54.4 0-124.8 313.6-38.4 313.6-246.4 3.2-83.2-80-182.4-214.4-182.4z" />
<glyph unicode="&#xe92d;" glyph-name="BahnCard_v1-2" d="M800 704h-576c-54.4 0-96-41.6-96-96v-320c0-54.4 41.6-96 96-96h576c54.4 0 96 41.6 96 96v320c0 54.4-41.6 96-96 96zM512 320h-320v64h320v-64zM832 448h-640v128h640v-128z" />
<glyph unicode="&#xe92e;" glyph-name="Datenschutz_v1-2" d="M291.2 224c6.4-137.6 140.8-160 220.8-160 99.2 0 211.2 41.6 211.2 153.6 0 35.2-16 67.2-44.8 89.6l-12.8 9.6 16 3.2c57.6 16 92.8 60.8 92.8 121.6 0 54.4-35.2 83.2-86.4 108.8l-166.4 70.4c-28.8 12.8-70.4 28.8-70.4 64s35.2 51.2 67.2 51.2c22.4 0 41.6-6.4 57.6-16 12.8-9.6 22.4-25.6 22.4-41.6h128c-6.4 112-112 153.6-208 153.6-99.2 0-204.8-51.2-204.8-140.8 0-32 9.6-54.4 35.2-80l9.6-9.6-12.8-3.2c-60.8-22.4-96-64-96-124.8 0-86.4 108.8-128 201.6-163.2 73.6-25.6 134.4-51.2 134.4-92.8 0-35.2-32-60.8-76.8-60.8-25.6 0-48 6.4-64 19.2s-25.6 28.8-25.6 48h-128zM601.6 364.8v0l-182.4 80c-25.6 12.8-48 25.6-44.8 54.4s22.4 48 48 48c9.6 0 19.2-3.2 32-6.4l147.2-60.8c28.8-12.8 48-32 54.4-48 3.2-9.6 3.2-22.4-3.2-32-12.8-19.2-35.2-32-51.2-35.2v0z" />
<glyph unicode="&#xe92f;" glyph-name="Hilfe_v1-2" d="M604.8 169.6c0-56.554-45.846-102.4-102.4-102.4s-102.4 45.846-102.4 102.4c0 56.554 45.846 102.4 102.4 102.4s102.4-45.846 102.4-102.4zM518.4 832c-156.8 0-259.2-99.2-262.4-256h176v25.6c3.2 54.4 32 86.4 86.4 86.4 35.2 0 64-22.4 64-60.8 0-51.2-38.4-70.4-80-99.2-38.4-25.6-80-60.8-80-140.8v-51.2h156.8c0 60.8 12.8 76.8 67.2 108.8 76.8 48 121.6 83.2 121.6 182.4 0 137.6-124.8 204.8-249.6 204.8z" />
<glyph unicode="&#xe930;" glyph-name="Achtung_v1-2" d="M614.4 169.6c0-56.554-45.846-102.4-102.4-102.4s-102.4 45.846-102.4 102.4c0 56.554 45.846 102.4 102.4 102.4s102.4-45.846 102.4-102.4zM579.2 336l44.8 496h-224l44.8-496z" />
<glyph unicode="&#xe931;" glyph-name="Aktualisieren_v1-2" d="M192 448c0 105.6 51.2 198.4 128 256v-64h64v176h-176v-64h70.4c-89.6-70.4-150.4-179.2-150.4-304 0-211.2 172.8-384 384-384v64c-176 0-320 144-320 320zM896 448c0 211.2-172.8 384-384 384v-64c176 0 320-144 320-320 0-105.6-51.2-198.4-128-256v64h-64v-176h176v64h-70.4c92.8 70.4 150.4 179.2 150.4 304z" />
<glyph unicode="&#xe932;" glyph-name="Liveauskunft_v1-2" d="M512 128c105.6 0 198.4 51.2 256 128h-64v64h176v-176h-64v70.4c-70.4-89.6-179.2-150.4-304-150.4-211.2 0-384 172.8-384 384h64c0-176 144-320 320-320zM512 832c211.2 0 384-172.8 384-384h-64c0 176-144 320-320 320-105.6 0-198.4-51.2-256-128h64v-64h-176v176h64v-70.4c70.4 92.8 179.2 150.4 304 150.4zM416 224v48h38.4v185.6h-38.4v48h153.6v-230.4h38.4v-48h-192zM512 544c-38.4 0-70.4 32-70.4 73.6s32 70.4 70.4 70.4c38.4 0 70.4-32 70.4-70.4s-32-73.6-70.4-73.6z" />
<glyph unicode="&#xe933;" glyph-name="Impressum_v1-2" d="M512 768c176 0 320-144 320-320s-144-320-320-320-320 144-320 320 144 320 320 320zM512 832c-211.2 0-384-172.8-384-384s172.8-384 384-384 384 172.8 384 384c0 211.2-172.8 384-384 384v0zM416 224v48h38.4v185.6h-38.4v48h153.6v-230.4h38.4v-48h-192zM512 544c-38.4 0-70.4 32-70.4 73.6s32 70.4 70.4 70.4c38.4 0 70.4-32 70.4-70.4s-32-73.6-70.4-73.6z" />
<glyph unicode="&#xe934;" glyph-name="Xing_v1-2" d="M160 681.6l99.2-176-131.2-217.6h176l134.4 217.6-99.2 176h-179.2zM704 832l-265.6-467.2 169.6-300.8h192l-172.8 300.8 268.8 467.2z" />
<glyph unicode="&#xe935;" glyph-name="Twitter_v1-2" d="M896 684.8c-28.8-12.8-57.6-22.4-89.6-25.6 32 19.2 57.6 51.2 70.4 86.4-32-19.2-64-32-99.2-38.4-28.8 32-70.4 51.2-115.2 51.2-86.4 0-156.8-70.4-156.8-156.8 0-12.8 0-25.6 3.2-35.2-131.2 6.4-246.4 70.4-323.2 163.2-12.8-22.4-22.4-51.2-22.4-80 0-54.4 28.8-102.4 70.4-131.2-25.6 0-51.2 6.4-70.4 19.2v-3.2c0-76.8 54.4-140.8 124.8-153.6-12.8-3.2-25.6-6.4-41.6-6.4-9.6 0-19.2 0-28.8 3.2 19.2-64 76.8-108.8 147.2-108.8-54.4-41.6-121.6-67.2-195.2-67.2-12.8 0-25.6 0-38.4 3.2 70.4-44.8 153.6-70.4 240-70.4 291.2 0 448 240 448 448 0 6.4 0 12.8 0 19.2 28.8 25.6 54.4 54.4 76.8 83.2z" />
<glyph unicode="&#xe936;" glyph-name="Google-Plus_v1-2" d="M390.4 512c25.6 0 48 9.6 67.2 28.8 9.6 12.8 12.8 25.6 16 38.4 0 12.8 3.2 25.6 3.2 35.2 0 38.4-9.6 80-32 121.6-9.6 19.2-22.4 35.2-38.4 48s-35.2 16-54.4 19.2c-28.8 0-51.2-12.8-67.2-32-16-22.4-22.4-48-22.4-73.6 0-35.2 9.6-73.6 32-115.2 9.6-19.2 22.4-35.2 41.6-48 16-16 35.2-22.4 54.4-22.4zM531.2 214.4c0 25.6-9.6 48-25.6 67.2-19.2 19.2-44.8 41.6-83.2 67.2-6.4 0-12.8 0-22.4 0-6.4 0-19.2 0-38.4-3.2-22.4-3.2-41.6-6.4-64-12.8-6.4-3.2-12.8-6.4-22.4-9.6s-19.2-9.6-28.8-19.2c-9.6-9.6-16-19.2-22.4-32s-9.6-28.8-9.6-44.8c0-35.2 16-64 48-86.4s73.6-35.2 124.8-35.2c48 0 83.2 9.6 108.8 32 25.6 19.2 35.2 44.8 35.2 76.8zM492.8 796.8c6.4-3.2 12.8-9.6 22.4-16 6.4-6.4 16-19.2 22.4-28.8s12.8-22.4 19.2-38.4c3.2-16 6.4-32 6.4-51.2 0-35.2-9.6-64-22.4-86.4-6.4-9.6-16-19.2-22.4-28.8-9.6-9.6-19.2-19.2-28.8-25.6-6.4-6.4-12.8-12.8-16-22.4-6.4-9.6-9.6-19.2-9.6-28.8s3.2-19.2 9.6-25.6c6.4-6.4 9.6-12.8 16-16l35.2-28.8c22.4-16 38.4-35.2 54.4-57.6s22.4-48 22.4-83.2c0-48-22.4-92.8-64-131.2-44.8-38.4-108.8-57.6-195.2-60.8-70.4 0-124.8 16-156.8 44.8-35.2 28.8-51.2 60.8-51.2 99.2 0 19.2 6.4 38.4 16 60.8s32 41.6 60.8 60.8c32 19.2 67.2 32 102.4 38.4s64 9.6 89.6 9.6c-6.4 9.6-12.8 19.2-19.2 32-6.4 9.6-9.6 22.4-9.6 38.4 0 9.6 0 16 3.2 22.4s3.2 12.8 6.4 16c-12.8 0-22.4-3.2-32-3.2-54.4 0-96 16-121.6 51.2-28.8 32-44.8 67.2-44.8 108.8 0 48 22.4 96 64 134.4 28.8 22.4 57.6 38.4 89.6 44.8s60.8 9.6 86.4 9.6h201.6l-60.8-35.2h-73.6zM800 800h-64v-96h-96v-64h96v-96h64v96h96v64h-96z" />
<glyph unicode="&#xe937;" glyph-name="Facebook_v1-2" d="M873.6 416l22.4 134.4h-140.8v86.4c0 38.4 9.6 67.2 67.2 67.2h73.6v121.6c-12.8 3.2-54.4 6.4-105.6 6.4-105.6 0-182.4-64-182.4-179.2v-99.2h-112v-134.4h112v-352h147.2v352h118.4z" />
<glyph unicode="&#xe938;" glyph-name="Linked-In_v1-2" d="M144 563.2h160v-499.2h-160v499.2zM320 736c0-53.019-42.981-96-96-96s-96 42.981-96 96c0 53.019 42.981 96 96 96s96-42.981 96-96zM416 563.2h144v-67.2c19.2 38.4 73.6 80 150.4 80 156.8 0 185.6-102.4 185.6-236.8v-275.2h-150.4v243.2c0 57.6-6.4 131.2-86.4 131.2s-92.8-64-92.8-128v-246.4h-150.4v499.2z" />
<glyph unicode="&#xe939;" glyph-name="Fernverkehr_v1-2" d="M688 224c-22.4-19.2-54.4-32-86.4-32h-182.4c-32 0-60.8 9.6-86.4 32l-105.6 89.6c9.6-80 44.8-166.4 124.8-185.6v-64h320v64c80 16 115.2 105.6 124.8 185.6l-108.8-89.6zM377.6 272c12.8-9.6 28.8-16 44.8-16h182.4c16 0 32 6.4 44.8 16l153.6 128c6.4 374.4-80 432-288 432s-294.4-60.8-288-432l150.4-128zM400 329.6l-48 89.6h70.4l48-89.6h-70.4zM624 329.6h-70.4l48 89.6h70.4l-48-89.6zM512 768c160 0 208-57.6 208-128s-38.4-160-208-160-208 89.6-208 160 48 128 208 128z" />
<glyph unicode="&#xe93a;" glyph-name="Nahverkehr_v1-2" d="M352 128h320v-64h-320v64zM672 832h-320l-96-160v-448c0-44.8 41.6-83.2 96-96 0 35.2 28.8 64 64 64h192c35.2 0 64-28.8 64-64v0c54.4 12.8 96 51.2 96 96v448l-96 160zM384 736h256c16 0 32-16 28.8-32l-28.8-320h-256l-28.8 320c-3.2 16 12.8 32 28.8 32zM374.4 230.4c-28.8 0-54.4 25.6-54.4 54.4s25.6 54.4 54.4 54.4 54.4-25.6 54.4-54.4-25.6-54.4-54.4-54.4zM649.6 230.4c-28.8 0-54.4 25.6-54.4 54.4s25.6 54.4 54.4 54.4 54.4-25.6 54.4-54.4-22.4-54.4-54.4-54.4z" />
<glyph unicode="&#xe93b;" glyph-name="Auto_v1-2" d="M883.2 361.6l-80 188.8c-22.4 54.4-76.8 86.4-134.4 86.4h-320c-57.6 0-112-35.2-134.4-86.4l-80-188.8c-6.4-19.2-12.8-38.4-12.8-57.6v-57.6c0-16 3.2-32 9.6-44.8l22.4-41.6v-96h96v96h512v-96h96v96l22.4 41.6c6.4 12.8 9.6 28.8 9.6 44.8v57.6c6.4 22.4 3.2 41.6-6.4 57.6zM278.4 528c12.8 28.8 41.6 48 73.6 48h320c32 0 60.8-19.2 73.6-48l48-112h-563.2l48 112zM246.4 224c-32 0-57.6 25.6-57.6 57.6s25.6 57.6 57.6 57.6 57.6-25.6 57.6-57.6-25.6-57.6-57.6-57.6zM777.6 224c-32 0-57.6 25.6-57.6 57.6s25.6 57.6 57.6 57.6c32 0 57.6-25.6 57.6-57.6s-28.8-57.6-57.6-57.6z" />
<glyph unicode="&#xe93c;" glyph-name="Bus_v1-2" d="M864 752c-60.8 44.8-198.4 80-352 80s-291.2-35.2-352-80v-592h64v-96h96v96h384v-96h96v96h64v592zM352 768h320v-64h-320v64zM278.4 224c-32 0-57.6 25.6-57.6 57.6s25.6 57.6 57.6 57.6 57.6-25.6 57.6-57.6-25.6-57.6-57.6-57.6zM745.6 224c-32 0-57.6 25.6-57.6 57.6s25.6 57.6 57.6 57.6 57.6-25.6 57.6-57.6-28.8-57.6-57.6-57.6zM800 384h-576v224c0 19.2 12.8 32 32 32h512c19.2 0 32-12.8 32-32v-224z" />
<glyph unicode="&#xe93d;" glyph-name="Zug_v1-2" d="M768 576l-6.4 48c-6.4 38.4-35.2 64-73.6 67.2 0 0-28.8 3.2-64 6.4v86.4c9.6 0 16-3.2 25.6-6.4l70.4-25.6 16 44.8-73.6 25.6c-19.2 6.4-35.2 9.6-54.4 9.6h-192c-19.2 0-38.4-3.2-54.4-9.6l-73.6-25.6 16-44.8 73.6 25.6c6.4 3.2 16 3.2 25.6 6.4v-83.2c-35.2-3.2-64-6.4-64-6.4-38.4-3.2-67.2-32-73.6-67.2 0 0-6.4-48-6.4-48v-326.4c0-16 3.2-32 12.8-44.8l38.4-60.8c6.4-9.6 16-16 25.6-16v-64h96v64h160v-64h96v64c12.8 0 19.2 6.4 25.6 16l38.4 60.8c9.6 12.8 12.8 28.8 12.8 44.8v323.2zM448 784h128v-83.2c-22.4 0-44.8 3.2-64 3.2s-41.6 0-64-3.2v83.2zM374.4 192c-28.8 0-54.4 25.6-54.4 54.4s25.6 54.4 54.4 54.4 54.4-25.6 54.4-54.4-25.6-54.4-54.4-54.4zM320 480v128c0 19.2 12.8 32 32 32h128v-160h-160zM512 310.4c-28.8 0-54.4 25.6-54.4 54.4s25.6 54.4 54.4 54.4 54.4-25.6 54.4-54.4-25.6-54.4-54.4-54.4zM649.6 192c-28.8 0-54.4 25.6-54.4 54.4s25.6 54.4 54.4 54.4 54.4-25.6 54.4-54.4-22.4-54.4-54.4-54.4zM704 480h-160v160h128c19.2 0 32-12.8 32-32v-128z" />
<glyph unicode="&#xe93e;" glyph-name="Fahrrad_v1-2" d="M752 352c-12.8 0-22.4-3.2-35.2-3.2l-57.6 160c-3.2 12.8-16 22.4-32 22.4h-51.2v-32h38.4c9.6 0 16-6.4 19.2-12.8l19.2-51.2h-220.8l-12.8 32h12.8c9.6 0 16 6.4 16 16s-6.4 12.8-16 12.8h-96c-9.6 0-16-6.4-16-16s6.4-16 16-16h48l16-48-60.8-83.2c-19.2 12.8-44.8 19.2-70.4 19.2-80 0-144-64-144-144s64-144 144-144c73.6 0 134.4 57.6 140.8 128h89.6l166.4 195.2 22.4-51.2c-48-22.4-80-70.4-80-128 0-80 64-144 144-144s144 64 144 144-64 144-144 144zM272 96c-60.8 0-112 51.2-112 112s51.2 112 112 112c19.2 0 35.2-6.4 51.2-12.8l-64-89.6c-3.2-6.4-3.2-12.8 0-16s9.6-9.6 12.8-9.6h108.8c-6.4-54.4-51.2-96-108.8-96zM304 224l44.8 64c19.2-16 28.8-38.4 32-64h-76.8zM412.8 224c-3.2 35.2-22.4 67.2-48 89.6l48 67.2 57.6-156.8h-57.6zM502.4 240l-57.6 160h195.2l-137.6-160zM752 96c-60.8 0-112 51.2-112 112 0 41.6 25.6 80 57.6 99.2l38.4-102.4c3.2-6.4 9.6-9.6 16-9.6 3.2 0 3.2 0 6.4 0 9.6 3.2 12.8 12.8 9.6 19.2l-38.4 102.4c6.4 0 16 3.2 22.4 3.2 60.8 0 112-51.2 112-112s-51.2-112-112-112z" />
<glyph unicode="&#xe93f;" glyph-name="Strassenbahn_v1-2" d="M448 160v-16c0-44.8 35.2-80 80-80s80 35.2 80 80c0-44.8 35.2-80 80-80s80 35.2 80 80v16h-320zM883.2 348.8l-70.4 163.2c-9.6 19.2-25.6 32-44.8 32h-112l144 96-192 128-192-128 144-96h-432v-64h192v-160h-192v-160h256l32 64h384l32-64h64v128c0 22.4-3.2 41.6-12.8 60.8zM502.4 640l105.6 70.4 105.6-70.4-105.6-70.4-105.6 70.4zM576 320h-192v160h160c19.2 0 32-12.8 32-32v-128zM640 320v128c0 19.2 12.8 32 32 32h70.4c9.6 0 19.2-6.4 22.4-12.8l60.8-147.2h-185.6z" />
<glyph unicode="&#xe940;" glyph-name="Fussweg_v1-2" d="M592 758.4c0-38.881-31.519-70.4-70.4-70.4s-70.4 31.519-70.4 70.4c0 38.881 31.519 70.4 70.4 70.4s70.4-31.519 70.4-70.4zM720 464l-144 80v73.6c0 0-73.6 35.2-153.6 35.2-35.2 0-86.4-38.4-134.4-70.4v-166.4c0-16 9.6-28.8 25.6-32 19.2-3.2 38.4 12.8 38.4 32v121.6l64 41.6v-220.8l-124.8-236.8c-9.6-19.2-3.2-44.8 16-54.4s44.8-3.2 54.4 16l131.2 256 131.2-256c9.6-19.2 35.2-25.6 54.4-16s28.8 35.2 16 54.4l-124.8 236.8v105.6l105.6-60.8c16-9.6 38.4-3.2 48 12.8 19.2 16 12.8 35.2-3.2 48z" />
<glyph unicode="&#xe941;" glyph-name="Flugzeug_v1-2" d="M889.6 614.4c-16 25.6-48 32-70.4 16l-227.2-140.8-281.6 41.6-57.6-35.2 179.2-105.6-105.6-67.2-147.2 51.2-44.8-28.8 96-86.4h192l454.4 288c19.2 12.8 25.6 44.8 12.8 67.2z" />
<glyph unicode="&#xe942;" glyph-name="Flinkster_v1-2" d="M662.4 371.2c0-35.2 28.8-60.8 60.8-60.8s60.8 28.8 60.8 60.8c0 35.2-28.8 60.8-60.8 60.8s-60.8-25.6-60.8-60.8zM188.8 371.2c0-35.2 28.8-60.8 60.8-60.8 35.2 0 60.8 28.8 60.8 60.8 0 35.2-28.8 60.8-60.8 60.8-32 3.2-60.8-25.6-60.8-60.8zM598.4 553.6c0 0 0 0 0 0s0 0 0 0 0 0 0 0zM611.2 547.2v0c0 0 0 0 0 0s0 0 0 0zM611.2 547.2v0c0 0 0 0 0 0v0zM598.4 550.4v0c0 0 0 0 0 0s0 0 0 0zM585.6 556.8c0 0 0 0 0 0s0 0 0 0 0 0 0 0 0 0 0 0 0 0 0 0zM598.4 550.4c3.2 0 3.2 0 0 0 3.2 0 3.2 0 0 0 3.2 0 0 0 0 0v0zM611.2 505.6c0-6.4-28.8-6.4-25.6-6.4-51.2 3.2-124.8 6.4-182.4 9.6l-16 54.4c9.6 0 22.4 0 32 0 28.8 0 86.4 0 144-25.6 9.6-3.2 19.2-9.6 28.8-12.8 0 0 19.2-9.6 19.2-19.2zM576 560c0 3.2-3.2 3.2 0 0-3.2 3.2-3.2 3.2 0 0 0 3.2 0 0 0 0zM368 515.2c-25.6 0-60.8 3.2-76.8 16-12.8 9.6-3.2 16 0 19.2 3.2 0 48 9.6 60.8 12.8s12.8-3.2 16-6.4c0 0 6.4-19.2 6.4-28.8s0-12.8-6.4-12.8zM896 396.8c0 9.6-3.2 35.2-3.2 38.4s0 9.6-9.6 16c-9.6 6.4-51.2 44.8-166.4 54.4-3.2 3.2-19.2 3.2-19.2 3.2h-6.4c0 0-41.6 19.2-83.2 38.4 0 0 0 0 0 0s0 0 0 0v0c-3.2 0-6.4 3.2-9.6 3.2v0 0c0 0 0 0 0 0 3.2 0 3.2-3.2 6.4-3.2-3.2 0-6.4 3.2-6.4 3.2v0c-3.2 0-3.2 0-6.4 3.2 0 0 0 0 0 0s0 0 0 0c-3.2 0-6.4 3.2-9.6 3.2 0 0 0 0-3.2 0 0 0 0 0 0 0s-3.2 0-3.2 0-3.2 0-6.4 3.2c0 0-3.2 0-3.2 0-3.2 0-6.4 3.2-9.6 3.2 0 0 0 0 0 0s0 0 0 0c-6.4 3.2-12.8 3.2-16 6.4-48 12.8-76.8 12.8-121.6 12.8-48 0-153.6-9.6-182.4-12.8 0 0-3.2 0-3.2 0s0 0 0 0 0 0-3.2 0c0 0 0 0 0 0s0 0 0 0 0 0 0 0 0 0 0 0 0 0 0 0 0 0 0 0 0 0 0 0 0 0 0 0 0 0 0 0 0 0 0 0 0 0 0 0l-3.2-3.2c0 0 0 0 0 0v0c0 0 0 0 0 0s0 0 0 0 0 0-3.2 0c-6.4-3.2-12.8-6.4-22.4-12.8 0 0 0 0 0 0-12.8-6.4-25.6-19.2-35.2-28.8 0 0 0 0-3.2-3.2v0 0c0 0-3.2-3.2-3.2-3.2-3.2 0-12.8 0-12.8-9.6 0-6.4-9.6-44.8-9.6-44.8s-9.6 0-9.6-12.8c0 0 0-32 0-32s0-19.2 0-25.6c0-9.6 6.4-16 16-19.2 3.2 0 9.6-3.2 12.8-3.2 0 0 9.6-3.2 19.2-3.2-3.2 9.6-3.2 19.2 0 28.8 6.4 35.2 35.2 60.8 70.4 64 44.8 3.2 83.2-32 83.2-76.8 0-6.4 0-12.8-3.2-19.2l323.2 3.2c0 6.4-3.2 12.8-3.2 16 0 41.6 35.2 76.8 76.8 76.8 38.4 0 70.4-25.6 76.8-60.8 3.2-12.8 3.2-25.6 0-38.4 3.2 0 6.4 0 6.4 0 16 0 28.8 6.4 38.4 6.4 6.4 0 25.6 6.4 32 9.6 16 0 19.2 9.6 19.2 19.2z" />
<glyph unicode="&#xe943;" glyph-name="Call-a-Bike_v1-2" d="M752.32 505.056c-12.832 0-25.248-1.728-37.088-4.864-22.464 65.76-45.28 132.544-47.648 139.936-8.16 25.344-25.824 38.208-52.48 38.208h-58.944v-23.392h58.944c12.032 0 23.968-2.688 30.176-21.984 0.48-1.504 8.896-26.368 18.848-55.776-51.904-31.072-106.784-80.832-145.6-121.408l-75.936 19.68-62.208 140.224c0 0 57.184 19.168 63.904 21.568 6.784 2.336 4.864 13.024-3.040 13.024h-120.544l-3.104-33.44h36.256l25.984-58.656h-137.856c-1.12 0.256-28.832 2.24-50.112 22.688-14.624 14.016-25.472 32.416-27.488 57.888h-24c1.184-20.832 9.216-55.328 40.832-80.928 24.128-17.504 39.2-19.904 45.536-21.696 7.744-2.144 34.048-4 46.080-4.512 24.256-0.16 54.784-4.896 87.104-24.576 33.952-20.64 60.512-54.688 71.648-86.816-11.072 0.544-20.288 0.192-28.608-0.672-22.336 50.336-72.736 85.472-131.36 85.472-79.328 0-143.68-64.352-143.68-143.712 0-79.328 64.352-143.68 143.68-143.68 75.584 0 137.504 58.336 143.232 132.448h66.432c3.008 0 5.952 1.184 8.128 3.296l188.672 182.464c5.792-17.152 11.136-32.864 14.784-43.648-49.76-22.592-84.32-72.672-84.32-130.848 0-79.328 64.32-143.68 143.68-143.68s143.68 64.352 143.68 143.68c0.096 79.36-64.224 143.712-143.584 143.712zM271.68 241.792c-65.984 0-119.52 53.536-119.52 119.552s53.536 119.552 119.52 119.552c46.528 0 86.816-26.592 106.56-65.376-0.032 0-0.064-0.032-0.128-0.032-46.688-9.664-110.336-36.128-110.336-36.128s-12.96-7.584-12.384-16.224c0.608-9.056 9.056-13.056 13.088-13.056h122.208c-5.664-60.736-56.736-108.288-119.008-108.288zM752.32 241.792c-66.016 0-119.552 53.536-119.552 119.552 0 47.648 27.904 88.8 68.288 108.032 19.168-56.064 36.256-105.984 37.792-110.496 2.112-6.112 8.768-9.376 14.88-7.296s9.408 8.736 7.296 14.88c-0.384 1.152-18.016 52.672-37.92 110.816 0 0 11.104 3.616 29.248 3.616 66.016 0 119.552-53.536 119.552-119.552s-53.568-119.552-119.584-119.552z" />
<glyph unicode="&#xe944;" glyph-name="Ankunft_v1-2" d="M736 288l-44.8 44.8 118.4 115.2-118.4 115.2 44.8 44.8 160-160zM515.2 259.2c-19.2-16-44.8-25.6-70.4-25.6h-153.6c-25.6 0-51.2 9.6-70.4 25.6l-89.6 73.6c9.6-67.2 35.2-137.6 102.4-153.6v-51.2h265.6v54.4c67.2 16 96 86.4 102.4 153.6l-86.4-76.8zM256 300.8c9.6-9.6 22.4-12.8 35.2-12.8h153.6c12.8 0 25.6 3.2 38.4 12.8l128 105.6c0 310.4-70.4 361.6-243.2 361.6s-243.2-51.2-240-361.6l128-105.6zM275.2 348.8l-38.4 73.6h60.8l38.4-73.6h-60.8zM460.8 348.8h-60.8l38.4 73.6h60.8l-38.4-73.6zM368 713.6c131.2 0 172.8-48 172.8-105.6s-32-134.4-172.8-134.4-172.8 76.8-172.8 134.4c0 57.6 41.6 105.6 172.8 105.6z" />
<glyph unicode="&#xe945;" glyph-name="Abfahrt_v1-2" d="M854.4 608l41.6-44.8-115.2-115.2 115.2-115.2-41.6-44.8-160 160zM515.2 259.2c-19.2-16-44.8-25.6-70.4-25.6h-153.6c-25.6 0-51.2 9.6-70.4 25.6l-89.6 73.6c9.6-67.2 35.2-137.6 102.4-153.6v-51.2h265.6v54.4c67.2 16 96 86.4 102.4 153.6l-86.4-76.8zM256 300.8c9.6-9.6 22.4-12.8 35.2-12.8h153.6c12.8 0 25.6 3.2 38.4 12.8l128 105.6c0 310.4-70.4 361.6-243.2 361.6s-243.2-51.2-240-361.6l128-105.6zM275.2 348.8l-38.4 73.6h60.8l38.4-73.6h-60.8zM460.8 348.8h-60.8l38.4 73.6h60.8l-38.4-73.6zM368 713.6c131.2 0 172.8-48 172.8-105.6s-32-134.4-172.8-134.4c-140.8 0-172.8 73.6-172.8 134.4 0 57.6 41.6 105.6 172.8 105.6z" />
<glyph unicode="&#xe946;" glyph-name="Anschlussmobilitaet_v1-2" d="M662.4 124.8c0-35.2 28.8-60.8 60.8-60.8s60.8 28.8 60.8 60.8c0 35.2-28.8 60.8-60.8 60.8s-60.8-25.6-60.8-60.8zM188.8 124.8c0-35.2 28.8-60.8 60.8-60.8 35.2 0 60.8 28.8 60.8 60.8 0 35.2-28.8 60.8-60.8 60.8s-60.8-25.6-60.8-60.8zM598.4 304v0 0 0zM611.2 300.8v0 0 0zM611.2 300.8v0 0 0zM598.4 304v0 0 0zM585.6 310.4v0 0 0 0 0zM598.4 304c3.2 0 3.2 0 0 0 3.2 0 3.2 0 0 0 3.2 0 3.2 0 0 0v0zM611.2 259.2c0-6.4-28.8-6.4-25.6-6.4-51.2 3.2-124.8 6.4-182.4 9.6l-16 54.4c9.6 0 22.4 0 32 0 28.8 0 86.4 0 144-25.6 9.6-3.2 19.2-9.6 28.8-12.8 0 0 19.2-12.8 19.2-19.2zM576 313.6c0 0-3.2 0 0 0-3.2 0-3.2 0 0 0v0zM368 268.8c-25.6 0-60.8 3.2-76.8 16-12.8 9.6-3.2 16 0 19.2 3.2 0 48 9.6 60.8 12.8s12.8-3.2 16-6.4c0 0 6.4-19.2 6.4-28.8s0-12.8-6.4-12.8zM896 150.4c0 9.6-3.2 35.2-3.2 38.4s0 9.6-9.6 16c-9.6 6.4-51.2 44.8-166.4 51.2-3.2 3.2-19.2 3.2-19.2 3.2h-6.4c0 0-41.6 19.2-83.2 38.4v0 0 0c-3.2 0-6.4 3.2-9.6 3.2v0 0 0c3.2 0 3.2-3.2 6.4-3.2-3.2 0-6.4 3.2-6.4 3.2v0c-3.2 0-3.2 0-6.4 3.2v0 0c-3.2 0-6.4 3.2-9.6 3.2 0 0 0 0-3.2 0v0h-3.2c-3.2 0-3.2 0-6.4 3.2h-3.2c-3.2 0-6.4 3.2-9.6 3.2v0 0c-6.4 3.2-12.8 3.2-16 6.4-48 12.8-76.8 12.8-121.6 12.8-48 0-153.6-9.6-182.4-12.8h-3.2c0 0 0 0-3.2 0v0 0 0 0 0 0 0 0 0 0 0l-6.4-9.6c0 0 0 0-3.2 0-6.4-3.2-12.8-6.4-22.4-12.8v0c-12.8-6.4-25.6-19.2-35.2-28.8 0 0 0 0-3.2-3.2v0 0l-3.2-3.2c-3.2 0-12.8 0-12.8-9.6 0-6.4-9.6-44.8-9.6-44.8s-6.4-3.2-6.4-12.8v-32c0 0 0-19.2 0-25.6 0-9.6 6.4-16 16-19.2 3.2 0 9.6-3.2 12.8-3.2 0 0 9.6-3.2 19.2-3.2-3.2 9.6-3.2 19.2 0 28.8 6.4 35.2 35.2 60.8 70.4 64 44.8 3.2 83.2-32 83.2-76.8 0-6.4 0-12.8-3.2-19.2l323.2 3.2c0 6.4-3.2 12.8-3.2 16 0 41.6 35.2 76.8 76.8 76.8 38.4 0 70.4-25.6 76.8-60.8 3.2-12.8 3.2-25.6 0-38.4 3.2 0 6.4 0 6.4 0 16 0 28.8 6.4 38.4 6.4 6.4 0 25.6 6.4 32 9.6 16 9.6 19.2 19.2 19.2 28.8zM662.4 684.8c-9.6 0-22.4 0-32-3.2-19.2 54.4-38.4 112-41.6 118.4-6.4 22.4-22.4 32-44.8 32h-51.2v-19.2h51.2c9.6 0 19.2-3.2 25.6-19.2 0 0 6.4-22.4 16-48-44.8-25.6-89.6-70.4-124.8-102.4l-64 16-54.4 118.4c0 0 48 16 54.4 19.2s3.2 9.6-3.2 9.6h-102.4v-25.6h32l22.4-51.2h-121.6c0 0-25.6 3.2-41.6 19.2-12.8 12.8-22.4 28.8-22.4 48h-22.4c0-19.2 6.4-48 35.2-70.4 19.2-16 32-16 38.4-19.2s28.8-3.2 38.4-3.2c19.2 0 48-3.2 73.6-22.4 28.8-19.2 51.2-48 60.8-73.6-9.6 0-16 0-25.6 0-19.2 41.6-60.8 73.6-112 73.6-64 3.2-118.4-51.2-118.4-121.6 0-67.2 54.4-121.6 121.6-121.6 64 0 118.4 51.2 121.6 112h57.6c3.2 0 6.4 0 6.4 3.2l160 156.8c6.4-16 12.8-28.8 16-38.4-41.6-19.2-70.4-60.8-70.4-112 0-67.2 54.4-121.6 121.6-121.6s121.6 54.4 121.6 121.6c0 70.4-54.4 124.8-121.6 124.8zM249.6 457.6c-57.6 0-102.4 44.8-102.4 102.4s44.8 102.4 102.4 102.4c38.4 0 73.6-22.4 89.6-54.4v0c-38.4-9.6-92.8-32-92.8-32s-9.6-6.4-9.6-12.8c0-6.4 6.4-9.6 9.6-9.6h105.6c-3.2-54.4-48-96-102.4-96zM662.4 457.6c-57.6 0-102.4 44.8-102.4 102.4 0 41.6 22.4 76.8 57.6 92.8 16-48 32-89.6 32-92.8 3.2-6.4 6.4-9.6 12.8-6.4s6.4 6.4 6.4 12.8c0 0-16 44.8-32 92.8 6.4 3.2 16 3.2 25.6 3.2 57.6 0 102.4-44.8 102.4-102.4s-48-102.4-102.4-102.4z" />
<glyph unicode="&#xe947;" glyph-name="Wagenstandsanzeiger_v1-2" d="M128 832h256v-256h-256v256zM640 832h256v-256h-256v256zM288 608l-12.8 48h-67.2l-16-48h-32l64 192h38.4l60.8-192h-35.2zM243.2 768v0l-28.8-86.4h51.2l-22.4 86.4zM748.8 608h-76.8v192h70.4c38.4 0 60.8-16 60.8-48 0-9.6-3.2-19.2-6.4-25.6-6.4-6.4-9.6-9.6-19.2-16v0c12.8-3.2 19.2-9.6 25.6-19.2 6.4-6.4 9.6-19.2 9.6-28.8-3.2-35.2-25.6-54.4-64-54.4zM736 774.4h-32v-54.4h32c22.4 0 32 9.6 32 28.8 3.2 16-9.6 25.6-32 25.6zM742.4 694.4h-38.4v-60.8h38.4c22.4 0 32 12.8 32 32 3.2 19.2-9.6 28.8-32 28.8zM544 192v76.8h352v51.2h-384v-256h384v128zM316.8 307.2c51.2 12.8 96 12.8 96 12.8h35.2v-51.2h-32c0 0-73.6-3.2-131.2-51.2 6.4-16 12.8-38.4 12.8-38.4s54.4 12.8 80 12.8h70.4v-128c0 0-249.6 0-262.4 0s-57.6 12.8-57.6 51.2c0 54.4 96 169.6 188.8 192z" />
<glyph unicode="&#xe948;" glyph-name="Dialog_v1-2" d="M616 640c-22.080 0-43.2-1.92-64-5.44-42.56 40.64-111.36 69.44-189.44 69.44-129.6 0-234.56-79.040-234.56-160 0-43.2 18.56-90.88 64.64-118.080 0-95.040 95.68-138.88 95.68-138.88s-0.32 70.72 14.080 112.64c13.12 0 25.92 0.64 39.040 0.96 14.080-64 56.96-110.4 122.56-128.64 16-64-29.76-149.44-29.76-149.44s173.76 4.48 237.76 133.44c112.64 3.52 224 89.28 224 192 0 99.84-125.76 192-280 192zM670.080 320l-38.4-1.28-16.96-34.24c-18.56-37.76-52.48-60.8-85.76-75.2 3.52 25.28 3.84 52.48-2.88 78.4l-8.96 36.16-35.84 9.92c-67.2 18.88-81.28 72.64-81.28 114.24 0 59.2 94.4 128 216 128s216-68.8 216-128c0-63.040-78.72-125.44-161.92-128z" />
<glyph unicode="&#xe949;" glyph-name="Bahnhof_v1-2" d="M848 320v-160h48v224h-208v352h-352v-352h-208v-224h48v160h64v-160h32v160h64v-160h48v528h256v-528h48v160h64v-160h32v160zM512 656c-53.12 0-96-42.88-96-96s42.88-96 96-96 96 42.88 96 96-42.88 96-96 96zM563.84 547.84h-64v80h24.32v-55.68h39.68v-24.32z" />
<glyph unicode="&#xe94a;" glyph-name="Zugverbindung_v1-2" d="M224 504c30.72 0 56-25.28 56-56s-25.28-56-56-56-56 25.28-56 56 25.28 56 56 56zM224 544c-53.12 0-96-42.88-96-96s42.88-96 96-96 96 42.88 96 96-42.88 96-96 96v0zM416 448c0-17.673-14.327-32-32-32s-32 14.327-32 32c0 17.673 14.327 32 32 32s32-14.327 32-32zM528.64 448c0-17.673-14.327-32-32-32s-32 14.327-32 32c0 17.673 14.327 32 32 32s32-14.327 32-32zM640.96 448c0-17.673-14.327-32-32-32s-32 14.327-32 32c0 17.673 14.327 32 32 32s32-14.327 32-32zM784 624c-61.76 0-112-50.88-112-113.28 0-24.32 6.4-43.2 20.8-65.6 14.080-22.4 91.2-141.12 91.2-141.12s77.12 118.72 91.2 141.12 20.8 40.96 20.8 65.6c0 62.4-50.24 113.28-112 113.28zM784 457.28c-29.12 0-52.8 24-52.8 53.44s23.68 53.44 52.8 53.44 52.8-24 52.8-53.44-23.68-53.44-52.8-53.44z" />
<glyph unicode="&#xe94b;" glyph-name="Dashboard_v1-2" d="M512 768c176 0 320-144 320-320s-144-320-320-320-320 144-320 320 144 320 320 320zM512 832c-212.8 0-384-171.2-384-384s171.2-384 384-384c212.8 0 384 171.2 384 384s-171.2 384-384 384v0zM592 272c0-44.183-35.817-80-80-80s-80 35.817-80 80c0 44.183 35.817 80 80 80s80-35.817 80-80z" />
<glyph unicode="&#xe94c;" glyph-name="Werkzeuge_v1-2" d="M648 640l-456-448c-48.96-48.96 21.44-138.88 80-80.32l456 448.32zM664 832.64l216.64-216.64c0 0-16-23.68-16-56 0-32.64 32-56 32-56l-56.32-56.32-280.96 280.96 104.64 104zM528 512l-122.56 122.56c6.72 16.32 10.56 34.56 10.56 53.44 0 79.68-64.32 144-144 144-18.88 0-36.48-4.48-48-16l96-96-16-64-64-16-96 96c-12.8-12.8-16-29.12-16-48 0-79.68 64.32-144 144-144 18.88 0 37.12 3.84 53.44 10.56l293.12-293.12c-6.72-16.32-10.56-34.56-10.56-53.44 0-79.68 64.32-144 144-144 18.88 0 36.16 4.16 48 16l-96 96 16 64 64 16 96-96c12.48 12.48 16 29.12 16 48 0 79.68-64.32 144-144 144-18.88 0-37.12-3.84-53.44-10.56l-170.56 170.56z" />
<glyph unicode="&#xe94d;" glyph-name="Datenbank_v1-2" d="M864 304c0-44.16-139.84-80-352-80s-352 35.84-352 80v-128c0-44.16 139.84-80 352-80s352 35.84 352 80v128zM864 512c0-44.16-139.84-80-352-80s-352 35.84-352 80v-128c0-44.16 139.84-80 352-80s352 35.84 352 80v128zM864 592c0-44.16-139.84-80-352-80s-352 35.84-352 80v96c0 44.16 139.84 80 352 80s352-35.84 352-80v-96z" />
<glyph unicode="&#xe94e;" glyph-name="Hinzufuegen_v1-2" d="M576 800h-128v-288h-288v-128h288v-288h128v288h288v128h-288z" />
<glyph unicode="&#xe94f;" glyph-name="Abmelden_v1-2" d="M718.4 636.48c45.44-49.92 73.6-115.84 73.6-188.48 0-154.56-125.44-280-280-280-154.24 0-280 125.44-280 280 0 72.64 28.16 138.88 73.6 188.48l-48.64 53.76c-59.84-63.36-96.96-148.16-96.96-242.24 0-194.56 157.44-352 352-352s352 157.44 352 352c0 94.080-37.12 178.88-96.96 242.24l-48.64-53.76zM472 800h80v-320h-80v320z" />
<glyph unicode="&#xe950;" glyph-name="Dokument_v1-2" d="M800 672l-160 160h-384v-768h544v608zM736 128h-416v640h288v-128h128v-512z" />
<glyph unicode="&#xe951;" glyph-name="Artikel_v1-2" d="M800 672l-160 160h-384v-768h544v608zM736 128h-416v640h288v-128h128v-512zM384 544h288v-48h-288v48zM384 432h288v-48h-288v48zM384 320h288v-48h-288v48z" />
<glyph unicode="&#xe952;" glyph-name="Verschieben_v1-2" d="M512 755.84l107.84-109.76 39.040 39.040-146.88 146.88-146.88-146.88 40-39.68zM512 140.16l-107.84 109.76-39.040-39.040 146.88-146.88 146.88 146.88-39.040 39.040zM204.16 448l109.76 107.84-39.040 39.040-146.88-146.88 146.88-146.88 39.68 40zM819.84 448l-109.76-107.84 39.040-39.040 146.88 146.88-146.88 146.88-39.040-39.040zM704 480h-160v160h-64v-160h-160v-64h160v-160h64v160h160z" />
<glyph unicode="&#xe953;" glyph-name="Kopieren_v1-2" d="M688 832h-304v-96h64v32h224v-96h96v-448h-32v-64h96v528zM704 560l-144 144h-336v-640h480v496zM640 128h-352v512h224v-128h128v-384z" />
<glyph unicode="&#xe954;" glyph-name="Bearbeiten_v1-2" d="M864 704l-96 96c-32 32-64.64 31.36-96 0l-416-416-128-320 320 128 416 416c31.36 31.36 32.96 63.040 0 96zM296 184l-48 48 48 112 112-112-112-48z" />
<glyph unicode="&#xe955;" glyph-name="Ordner_v1-2" d="M896 624c0 31.040-32.64 64-64 64h-384l-32 48c-13.76 20.8-32 32-64 32h-192c-17.6 0-32-14.4-32-32v-128h768v16zM128 192c0-32.32 32-64 64-64h640c32 0 64 31.68 64 64v368h-768v-368z" />
<glyph unicode="&#xe956;" glyph-name="Zip-Download_v1-2" d="M704 160h-64v48h64v48h-64v48h64v48h-64v48h64v48h-64v48h64v48h-64v48h64v48h-64v48h-192l-32 48c-13.76 20.8-32 32-64 32h-192c-17.6 0-32-14.4-32-32v-544c0-32.32 32-64 64-64h512v32zM832 688h-96v-48h64v-48h-64v-48h64v-48h-64v-48h64v-48h-64v-48h64v-48h-64v-48h64v-48h-64v-48h64v-32h32c32 0 64 31.68 64 64v432c0 31.040-32.64 64-64 64z" />
<glyph unicode="&#xe957;" glyph-name="Passwortgeschuetzt_v1-2" d="M768 480v112c0 132.8-123.2 240-256 240s-256-107.2-256-240v-112h-64v-416h640v416h-64zM576 128h-128l28.8 171.2c-17.6 11.2-28.8 30.4-28.8 52.8 0 35.2 28.8 64 64 64s64-28.8 64-64c0-22.4-11.2-41.6-28.8-52.8l28.8-171.2zM704 480h-384v112c0 97.6 94.4 176 192 176s192-78.4 192-176v-112z" />
<glyph unicode="&#xe958;" glyph-name="Audio_v1-2" d="M336 656v-356.16c-18.24 12.48-40 20.16-64 20.16-61.76 0-112-50.24-112-112s50.24-112 112-112 112 50.24 112 112v369.6l336 124.48v-290.56c-18.24 12.8-40 20.16-64 20.16-61.76 0-112-50.24-112-112s50.24-112 112-112 112 50.56 112 112.32v496l-432-160z" />
<glyph unicode="&#xe959;" glyph-name="Video_v1-2" d="M512 768c176 0 320-144 320-320s-144-320-320-320-320 144-320 320 144 320 320 320zM512 832c-212.8 0-384-171.2-384-384s171.2-384 384-384c212.8 0 384 171.2 384 384s-171.2 384-384 384v0zM432 640v-384l240 192z" />
<glyph unicode="&#xe95a;" glyph-name="Bilder_v1-2" d="M822.080 704c5.44 0 9.92-4.48 9.92-9.92v-492.16c0-5.44-4.48-9.92-9.92-9.92h-620.16c-5.44 0-9.92 4.48-9.92 9.92v492.16c0 5.44 4.48 9.92 9.92 9.92h620.16zM822.080 768h-620.16c-40.64 0-73.92-33.28-73.92-73.92v-492.16c0-40.64 33.28-73.92 73.92-73.92h620.16c40.64 0 73.92 33.28 73.92 73.92v492.16c0 40.64-33.28 73.92-73.92 73.92v0zM352 480l-128-224h256zM576 544l-160-288h320zM768 576c0-35.346-28.654-64-64-64s-64 28.654-64 64c0 35.346 28.654 64 64 64s64-28.654 64-64z" />
<glyph unicode="&#xe95b;" glyph-name="Cloud_v1-2" d="M739.2 572.48c-32 95.040-121.6 163.52-227.2 163.52-127.36 0-231.36-99.2-239.36-224.64-80.96-7.68-144.64-76.16-144.64-159.36 0-88.32 71.68-160 160-160h416c105.92 0 192 86.080 192 192 0 94.080-67.52 172.16-156.8 188.48zM704 256h-416c-52.8 0-96 43.2-96 96 0 49.28 37.12 89.92 84.8 95.36 3.84 0.32 7.36 0.64 11.2 0.64 0 0 11.52 0 48 0 0 35.52 0.32 53.76 0.32 56.64 4.48 92.8 81.6 167.36 175.68 167.36 69.44 0 129.6-40.64 158.080-99.2 9.28-19.2 16-38.72 17.92-60.8 5.44 0.64 10.24 0 16 0 16.96 0 32.96-3.2 47.68-9.28 47.040-18.88 80.32-64.96 80.32-118.72 0-70.72-57.28-128-128-128z" />
<glyph unicode="&#xe95c;" glyph-name="Cloud-Upload_v1-2" d="M739.2 572.48c-32 95.040-121.6 163.52-227.2 163.52-127.36 0-231.36-99.2-239.36-224.64-80.96-7.68-144.64-76.16-144.64-159.36 0-88.32 71.68-160 160-160h64v64h-64c-52.8 0-96 43.2-96 96 0 49.28 37.12 89.92 84.8 95.36 3.84 0.32 7.36 0.64 11.2 0.64 0 0 11.52 0 48 0 0 35.52 0.32 53.76 0.32 56.64 4.48 92.8 81.6 167.36 175.68 167.36 69.44 0 129.6-40.64 158.080-99.2 9.28-19.2 16-38.72 17.92-60.8 5.44 0.64 10.24 0 16 0 16.96 0 32.96-3.2 47.68-9.28 47.040-18.88 80.32-64.96 80.32-118.72 0-70.72-57.28-128-128-128h-32v-64h32c105.92 0 192 86.080 192 192 0 94.080-67.52 172.16-156.8 188.48zM488 384h48v-192h-48v192zM671.040 352.96l-32-32-127.040 127.040-127.040-127.040-32 32 159.040 159.040z" />
<glyph unicode="&#xe95d;" glyph-name="Play_v1-2" d="M352 768v-640l400 320z" />
<glyph unicode="&#xe95e;" glyph-name="Pause_v1-2" d="M352 704h96v-512h-96v512zM576 704h96v-512h-96v512z" />
<glyph unicode="&#xe95f;" glyph-name="Stop_v1-2" d="M256 704h512v-512h-512v512z" />
<glyph unicode="&#xe961;" glyph-name="Vorschau_v1-2" d="M896 136l-175.68 175.68c19.84 32.64 31.68 71.040 31.68 112.32 0 119.36-96.64 216-216 216s-216-96.64-216-216c0-119.36 96.64-216 216-216 41.28 0 79.68 11.84 112.32 31.68l175.68-175.68 72 72zM384 424c0 83.84 68.16 152 152 152s152-68.16 152-152-68.16-152-152-152-152 68.16-152 152zM825.92 784h-627.84c-38.4 0-70.080-31.68-70.080-70.080v-435.84c0-38.4 31.68-70.080 70.080-70.080h89.92v64h-89.92c-3.2 0-6.080 2.88-6.080 6.080v435.84c0 3.2 2.88 6.080 6.080 6.080h627.84c3.2 0 6.080-2.88 6.080-6.080v-393.92h64v393.92c0 38.4-31.68 70.080-70.080 70.080z" />
<glyph unicode="&#xe962;" glyph-name="Richtig_v1-2" d="M512 768c176.32 0 320-143.68 320-320s-143.68-320-320-320c-176.32 0-320 143.68-320 320s143.68 320 320 320zM512 832c-212.16 0-384-171.84-384-384s171.84-384 384-384c212.16 0 384 171.84 384 384s-171.84 384-384 384v0z" />
<glyph unicode="&#xe963;" glyph-name="Falsch_v1-2" d="M704 587.52l-52.48 52.48-139.52-139.52-139.52 139.52-52.48-52.48 139.52-139.52-139.52-139.52 52.48-52.48 139.52 139.52 139.52-139.52 52.48 52.48-139.52 139.52zM512 768c176.32 0 320-143.68 320-320s-143.68-320-320-320c-176.32 0-320 143.68-320 320s143.68 320 320 320zM512 832c-212.16 0-384-171.84-384-384s171.84-384 384-384c212.16 0 384 171.84 384 384s-171.84 384-384 384v0z" />
<glyph unicode="&#xe964;" glyph-name="bullet" horiz-adv-x="512" d="M0 960h512v-1024h-512v1024z" />
<glyph unicode="&#xe965;" glyph-name="Ton_low_v1-2" d="M128 576v-256h160l192-192v640l-192-192h-160zM614.4 726.4l-44.8-44.8c64-57.6 102.4-140.8 102.4-233.6s-38.4-176-102.4-233.6l44.8-44.8c73.6 70.4 121.6 169.6 121.6 278.4s-44.8 208-121.6 278.4v0z" />
<glyph unicode="&#xe966;" glyph-name="Ton_mute_v1-2" d="M128 576v-256h160l192-192v640l-192-192h-160zM560.867 322.771l300.023 300.023 49.497-49.497-300.023-300.023-49.497 49.497zM560.867 573.227l49.497 49.497 300.023-300.023-49.497-49.497-300.023 300.023z" />
</font>
</defs>
</svg>
