<?xml version="1.0" standalone="no"?>
<!DOCTYPE svg PUBLIC "-//W3C//DTD SVG 1.1//EN" "http://www.w3.org/Graphics/SVG/1.1/DTD/svg11.dtd" >
<svg xmlns="http://www.w3.org/2000/svg">
<metadata></metadata>
<defs>
<font id="db_headlight" horiz-adv-x="1228" >
<font-face units-per-em="2048" ascent="1638" descent="-410" />
<missing-glyph horiz-adv-x="491" />
<glyph horiz-adv-x="0" />
<glyph horiz-adv-x="682" />
<glyph unicode=" "  horiz-adv-x="491" />
<glyph unicode="&#x09;" horiz-adv-x="491" />
<glyph unicode="&#xa0;" horiz-adv-x="491" />
<glyph unicode="!" horiz-adv-x="501" d="M137 94q0 47 32 78t79 31q49 0 79.5 -30.5t30.5 -80.5t-30 -80t-80 -30t-80.5 30.5t-30.5 81.5zM166 1489h164l-35 -1096h-92z" />
<glyph unicode="&#x22;" horiz-adv-x="780" d="M147 1489h158l-33 -533h-92zM473 1489h158l-31 -533h-92z" />
<glyph unicode="#" d="M139 510v115h226l47 276h-207v119h227l86 485h105l-86 -485h247l86 485h105l-86 -485h205v-119h-226l-47 -276h207v-115h-227l-88 -510h-105l88 510h-247l-89 -510h-104l88 510h-205zM469 625h248l47 276h-248z" />
<glyph unicode="$" horiz-adv-x="991" d="M49 82v125q145 -89 295 -113l86 631q-195 110 -268.5 201.5t-73.5 224.5q0 164 114.5 263t303.5 99q21 0 35 -2l20 152h107l-23 -164q86 -18 191 -65v-121q-108 54 -207 78l-80 -586q205 -117 281.5 -211t76.5 -229q0 -181 -125.5 -283t-347.5 -102l-33 -240h-106l33 248 q-139 17 -279 94zM221 1161q0 -97 48 -160t180 -141l75 545q-153 1 -228 -59t-75 -185zM449 88q78 3 120 12.5t82 32.5q117 69 117 223q0 97 -51.5 164.5t-186.5 149.5z" />
<glyph unicode="%" horiz-adv-x="1472" d="M94 1167q0 99 20 163t66 110q78 78 205 78q125 0 203 -78q46 -46 66 -111t20 -166t-20 -165.5t-66 -110.5q-78 -78 -203 -78q-127 0 -205 78q-46 46 -66 110.5t-20 169.5zM160 0l1026 1493h125l-1022 -1493h-129zM225 1167q0 -149 34.5 -205.5t123.5 -56.5q91 0 125.5 56 t34.5 202t-34.5 202t-123.5 56t-124.5 -56t-35.5 -198zM799 338q0 98 20 162t66 110q78 78 205 78q124 0 202 -78q46 -46 66 -110.5t20 -165.5t-20 -166t-66 -111q-77 -77 -202 -77q-128 0 -205 77q-46 46 -66 111t-20 170zM930 338q0 -149 34 -205.5t123 -56.5 q91 0 125.5 56t34.5 202t-34 202t-123 56t-124.5 -56t-35.5 -198z" />
<glyph unicode="&#x26;" horiz-adv-x="1419" d="M86 403q0 166 78 270.5t266 190.5q-127 167 -127 332q0 138 93.5 227.5t236.5 89.5q138 0 223.5 -85t85.5 -220q0 -117 -67 -194.5t-248 -169.5l350 -461q20 36 51 102l160 355h141l-196 -428q-44 -90 -74 -138l57 -75q46 -60 77.5 -80.5t78.5 -20.5q34 0 92 19v-115 q-54 -22 -115 -22q-83 0 -133.5 29t-122.5 118l-26 33q-94 -95 -193.5 -137.5t-228.5 -42.5q-224 0 -341.5 108t-117.5 315zM236 410q0 -164 76 -242t237 -78q107 0 188 39.5t156 128.5l-401 533q-154 -86 -205 -162t-51 -219zM449 1200q0 -144 120 -287q128 72 177 135 t49 156q0 95 -43.5 149t-120.5 54q-82 0 -132 -57.5t-50 -149.5z" />
<glyph unicode="'" horiz-adv-x="454" d="M147 1489h158l-33 -533h-92z" />
<glyph unicode="(" horiz-adv-x="860" d="M209 633q0 298 97.5 528t318.5 451h114q-216 -236 -301.5 -452t-85.5 -527t85.5 -527t301.5 -452h-114q-221 221 -318.5 451t-97.5 528z" />
<glyph unicode=")" horiz-adv-x="860" d="M121 -346q216 236 301.5 452t85.5 527t-85.5 527t-301.5 452h115q221 -222 318 -451.5t97 -527.5t-97 -527.5t-318 -451.5h-115z" />
<glyph unicode="*" horiz-adv-x="757" d="M76 1100l246 96l-238 92l68 115l206 -168l-43 272h131l-40 -272l200 168l70 -115l-242 -92l246 -96l-68 -115l-206 176l40 -278h-131l45 278l-213 -176z" />
<glyph unicode="+" d="M168 655v115h379v406h131v-406h381v-115h-381v-405h-131v405h-379z" />
<glyph unicode="," horiz-adv-x="614" d="M166 -205q156 44 168 199q-32 -4 -41 -4q-44 0 -73.5 30t-29.5 74q0 45 33 76t82 31q63 0 101 -50.5t38 -130.5q0 -118 -75 -202q-38 -43 -83.5 -65t-119.5 -34v76z" />
<glyph unicode="-" horiz-adv-x="655" d="M98 625v118h461v-118h-461z" />
<glyph unicode="." horiz-adv-x="614" d="M197 94q0 47 31.5 78t78.5 31q49 0 80 -30.5t31 -80.5q0 -49 -30.5 -79.5t-80.5 -30.5t-80 30.5t-30 81.5z" />
<glyph unicode="/" horiz-adv-x="901" d="M-70 -346l836 1958h125l-836 -1958h-125z" />
<glyph unicode="0" horiz-adv-x="1284" d="M113 659v175q0 326 137.5 502.5t392.5 176.5q253 0 390.5 -176.5t137.5 -502.5v-175q0 -326 -137.5 -502.5t-390.5 -176.5q-255 0 -392.5 176.5t-137.5 502.5zM264 659q0 -298 91 -435.5t288 -137.5q195 0 286 138.5t91 434.5v175q0 296 -91 434.5t-286 138.5 q-197 0 -288 -137.5t-91 -435.5v-175z" />
<glyph unicode="1" horiz-adv-x="864" d="M88 1239v102l371 158h73v-1397h271v-102h-692v102h280v1254z" />
<glyph unicode="2" horiz-adv-x="1042" d="M45 0v84q237 221 339.5 323t182.5 195q109 131 156 241.5t47 239.5q0 322 -297 322q-101 0 -195.5 -36t-201.5 -116v119q98 74 195.5 107.5t211.5 33.5q211 0 323 -108t112 -311q0 -155 -65.5 -291t-217.5 -299q-108 -118 -412 -395h721l-12 -109h-887z" />
<glyph unicode="3" horiz-adv-x="1032" d="M29 -14v116q149 7 236 19.5t179 36.5q177 49 254.5 134t77.5 228q0 242 -252 242q-91 0 -192 -23l-37 -8v111l102 20q180 35 251 103.5t71 203.5q0 123 -61.5 180.5t-192.5 57.5q-96 0 -182 -25.5t-195 -85.5v111q191 106 387 106q191 0 290 -85.5t99 -251.5 q0 -125 -55.5 -197.5t-196.5 -130.5q83 -7 135 -29t95 -67q82 -88 82 -234q0 -167 -97 -279.5t-295 -177.5q-107 -35 -210.5 -50.5t-292.5 -24.5z" />
<glyph unicode="4" horiz-adv-x="1206" d="M45 342v74l703 1073h145l-680 -1040h588v557l143 16v-573h211v-107h-211v-342h-143v342h-756z" />
<glyph unicode="5" horiz-adv-x="995" d="M57 -14v116q142 11 217 24t156 42q160 56 232.5 147.5t72.5 237.5q0 138 -82.5 204t-257.5 66q-128 0 -276 -37l86 703h684l-12 -109h-568l-57 -481q111 31 209 31q204 0 312 -98t108 -283q0 -180 -97.5 -301.5t-296.5 -190.5q-95 -32 -180.5 -46.5t-249.5 -24.5z" />
<glyph unicode="6" horiz-adv-x="1191" d="M113 651q0 288 98.5 469.5t310.5 282.5q93 46 189 68t254 36v-114q-165 -15 -257 -39.5t-178 -77.5q-266 -163 -266 -547v-16q87 84 176.5 121.5t202.5 37.5q211 0 326.5 -113.5t115.5 -320.5q0 -209 -125.5 -333.5t-336.5 -124.5q-279 0 -410 215q-53 86 -76.5 194 t-23.5 262zM264 608q0 -263 90 -392.5t273 -129.5q158 0 233.5 86.5t75.5 267.5q0 326 -311 326q-206 0 -361 -158z" />
<glyph unicode="7" horiz-adv-x="1085" d="M72 1374l14 115h930v-92l-635 -1397h-154l666 1374h-821z" />
<glyph unicode="8" horiz-adv-x="1210" d="M117 389q0 140 76.5 232t257.5 170q-152 72 -212.5 150.5t-60.5 203.5q0 169 119.5 268.5t320.5 99.5t312.5 -95t111.5 -267q0 -125 -61.5 -204t-216.5 -154q189 -83 259.5 -168t70.5 -226q0 -194 -129.5 -306.5t-352.5 -112.5q-230 0 -362.5 109.5t-132.5 299.5z M262 383q0 -140 94.5 -218.5t261.5 -78.5q152 0 241 78.5t89 212.5q0 94 -37 154.5t-125 111.5q-53 34 -231 105q-165 -75 -229 -155t-64 -210zM324 1155q0 -78 31.5 -130.5t105.5 -96.5q52 -34 205 -94q140 77 184.5 137t44.5 172q0 129 -74 196.5t-215 67.5 q-132 0 -207 -67t-75 -185z" />
<glyph unicode="9" horiz-adv-x="1191" d="M104 1053q0 209 127.5 334.5t339.5 125.5q137 0 242.5 -56t169.5 -163q50 -83 72 -187.5t22 -254.5q0 -212 -40.5 -346.5t-135.5 -241.5q-165 -186 -463 -248q-74 -15 -254 -32v118q381 26 561 189.5t183 486.5q-88 -83 -176.5 -120t-200.5 -37q-211 0 -329 114t-118 318 zM256 1055q0 -328 311 -328q207 0 361 154q0 269 -87.5 397.5t-271.5 128.5q-158 0 -235.5 -87t-77.5 -265z" />
<glyph unicode=":" horiz-adv-x="614" d="M197 94q0 47 31.5 78t78.5 31q49 0 80 -30.5t31 -80.5q0 -49 -30.5 -79.5t-80.5 -30.5t-80 30.5t-30 81.5zM197 805q0 47 31.5 77.5t78.5 30.5q50 0 80.5 -30.5t30.5 -79.5t-31 -80t-80 -31q-50 0 -80 31t-30 82z" />
<glyph unicode=";" horiz-adv-x="614" d="M164 -205q160 44 172 199q-32 -4 -41 -4q-44 0 -74.5 30t-30.5 74q0 45 33 76t82 31q61 0 100 -50.5t39 -130.5q0 -114 -75 -202q-40 -43 -85.5 -65t-119.5 -34v76zM197 805q0 47 31.5 77.5t78.5 30.5q50 0 80.5 -30.5t30.5 -79.5t-31 -80t-80 -31q-50 0 -80 31t-30 82z " />
<glyph unicode="&#x3c;" d="M184 641v135l832 346v-125l-725 -288l725 -287v-125z" />
<glyph unicode="=" d="M184 485v115h860v-115h-860zM184 825v115h860v-115h-860z" />
<glyph unicode="&#x3e;" d="M213 297v125l725 287l-725 288v125l831 -344v-135z" />
<glyph unicode="?" horiz-adv-x="862" d="M74 1315v117q91 44 166.5 62.5t169.5 18.5q187 0 288 -89t101 -255q0 -104 -41.5 -176t-179.5 -207q-108 -105 -143.5 -157.5t-35.5 -108.5v-127h-125v133q0 77 37 139t156 179q124 123 155 177.5t31 149.5q0 232 -252 232q-89 0 -159.5 -19t-167.5 -69zM231 94 q0 47 32 78t79 31q50 0 80.5 -30.5t30.5 -80.5q0 -49 -30.5 -79.5t-80.5 -30.5t-80.5 30.5t-30.5 81.5z" />
<glyph unicode="@" horiz-adv-x="1720" d="M70 459q0 196 63.5 363t176 284t273.5 182.5t351 65.5q328 0 522.5 -181t194.5 -487q0 -253 -118.5 -410t-307.5 -157q-175 0 -226 143q-117 -153 -270 -153q-223 0 -223 266q0 119 28.5 242t71.5 192q89 141 271 141q64 0 112 -18t105 -64l49 80h76l-89 -565 q-4 -36 -4 -53q0 -115 113 -115q130 0 208.5 127t78.5 338q0 272 -157.5 423.5t-440.5 151.5q-337 0 -534 -213.5t-197 -578.5q0 -312 165 -481.5t467 -169.5q152 0 284.5 36.5t283.5 120.5v-106q-141 -78 -271.5 -112t-287.5 -34q-352 0 -560 201t-208 541zM647 369 q0 -83 28.5 -121.5t90.5 -38.5q67 0 116.5 33t108.5 116l74 437q-48 36 -87.5 50.5t-88.5 14.5q-143 0 -193 -160q-20 -64 -34.5 -162t-14.5 -169z" />
<glyph unicode="A" horiz-adv-x="1280" d="M27 0l569 1499h96l559 -1499h-153l-174 475h-580l-176 -475h-141zM383 584h502l-248 682z" />
<glyph unicode="B" horiz-adv-x="1298" d="M195 0v1489h497q187 0 293.5 -97t106.5 -266q0 -126 -55.5 -196.5t-192.5 -120.5q166 -28 251 -125.5t85 -261.5q0 -205 -126.5 -313.5t-365.5 -108.5h-493zM336 109h321q191 0 281 75.5t90 235.5q0 163 -87 242t-267 79h-338v-632zM336 850h336q266 0 266 283 q0 130 -63 188.5t-201 58.5h-338v-530z" />
<glyph unicode="C" horiz-adv-x="1236" d="M104 745q0 182 37 314.5t115 234.5q168 219 494 219q203 0 366 -71v-123q-107 46 -189 65t-179 19q-249 0 -369 -156q-67 -88 -96 -204.5t-29 -299.5q0 -182 30 -298t99 -201q124 -154 367 -154q106 0 193 23t200 80v-123q-181 -90 -395 -90q-363 0 -531 260 q-113 175 -113 505z" />
<glyph unicode="D" horiz-adv-x="1423" d="M195 0v1489h467q322 0 489.5 -188.5t167.5 -550.5q0 -209 -49.5 -352t-155.5 -240q-172 -158 -455 -158h-464zM336 109h307q259 0 391 147q71 78 103 193t32 288q0 340 -124 491.5t-402 151.5h-307v-1271z" />
<glyph unicode="E" horiz-adv-x="1179" d="M195 0v1489h833v-109h-692v-557h549v-108h-549v-606h762l-13 -109h-890z" />
<glyph unicode="F" horiz-adv-x="1159" d="M195 0v1489h849v-109h-708v-573h594v-109h-594v-698h-141z" />
<glyph unicode="G" horiz-adv-x="1355" d="M104 735q0 206 47.5 352.5t147.5 247.5q178 178 475 178q102 0 187 -16.5t188 -56.5v-123q-116 50 -196.5 68t-184.5 18q-265 0 -389.5 -161.5t-124.5 -504.5q0 -201 40.5 -328t131.5 -206q129 -115 367 -115q163 0 297 49v471h-295v109h438v-645q-220 -92 -449 -92 q-351 0 -524 206q-156 184 -156 549z" />
<glyph unicode="H" horiz-adv-x="1490" d="M195 0v1489h141v-672h819v672h141v-1489h-141v709h-819v-709h-141z" />
<glyph unicode="I" horiz-adv-x="540" d="M199 0v1489h143v-1489h-143z" />
<glyph unicode="J" horiz-adv-x="534" d="M-33 -326q128 25 180 82t52 174v1559h141v-1546q0 -181 -102 -275q-50 -43 -110 -65.5t-161 -34.5v106z" />
<glyph unicode="K" horiz-adv-x="1241" d="M195 0v1489h141v-735l670 735h163l-684 -741l748 -748h-189l-708 721v-721h-141z" />
<glyph unicode="L" horiz-adv-x="1107" d="M195 0v1489h141v-1380h708l-14 -109h-835z" />
<glyph unicode="M" horiz-adv-x="1744" d="M180 0l45 1489h181l464 -1137l494 1137h186v-1489h-141v1282l-500 -1128h-112l-447 1122l-39 -1276h-131z" />
<glyph unicode="N" horiz-adv-x="1484" d="M193 0v1489h120l846 -1202v1202h133v-1489h-100l-866 1235v-1235h-133z" />
<glyph unicode="O" horiz-adv-x="1472" d="M104 756q0 358 167 557.5t466 199.5t465 -200.5t166 -564.5q0 -365 -166 -566.5t-467 -201.5q-339 0 -508 262q-65 100 -94 222t-29 292zM254 754q0 -668 481 -668q484 0 484 662q0 659 -482 659q-239 0 -361 -165t-122 -488z" />
<glyph unicode="P" horiz-adv-x="1204" d="M195 0v1489h485q203 0 313 -98q61 -54 88 -126.5t27 -185.5q0 -127 -34.5 -206.5t-112.5 -133.5q-124 -82 -353 -82q-156 0 -272 21v-678h-141zM336 784q132 -18 270 -18q97 0 155.5 13.5t104.5 47.5q51 36 71.5 93.5t20.5 156.5q0 97 -19 152t-65 92q-74 59 -210 59 h-328v-596z" />
<glyph unicode="Q" horiz-adv-x="1472" d="M104 748q0 364 166 564.5t467 200.5q299 0 465 -200.5t166 -564.5q0 -424 -221 -623q-141 -126 -340 -141q10 -66 27 -108.5t47.5 -74.5t84 -50t125.5 -29t183 -17v-111q-133 7 -224.5 22t-161.5 42t-114.5 72t-73 105t-47.5 149q-267 34 -408 229.5t-141 534.5zM254 754 q0 -668 481 -668q484 0 484 662q0 659 -482 659q-239 0 -361 -165t-122 -488z" />
<glyph unicode="R" horiz-adv-x="1273" d="M195 0v1489h462q183 0 293 -72q75 -47 110.5 -123.5t35.5 -191.5q0 -94 -25 -158.5t-82 -116.5q-47 -44 -102 -67.5t-150 -40.5q86 -41 164 -160l363 -559h-168l-332 514q-75 116 -125.5 149t-153.5 33h-149v-696h-141zM336 805h301q158 0 237 76q40 40 56 89.5t16 133.5 q0 80 -17.5 129t-58.5 84q-75 63 -231 63h-303v-575z" />
<glyph unicode="S" horiz-adv-x="999" d="M47 84v127q109 -67 203 -95t205 -28q158 0 241.5 67t83.5 193q0 130 -102 219q-37 34 -84.5 65t-161.5 97q-103 60 -154 96t-90 76q-102 105 -102 256q0 163 114 259.5t306 96.5q89 0 164.5 -17.5t171.5 -61.5v-123q-103 51 -179 71.5t-165 20.5q-279 0 -279 -232 q0 -103 53.5 -164.5t231.5 -164.5q115 -66 172.5 -105t111.5 -86q132 -120 132 -291q0 -177 -124.5 -278.5t-340.5 -101.5q-115 0 -210 24t-198 80z" />
<glyph unicode="T" horiz-adv-x="1167" d="M59 1380l11 109h1032v-109h-449v-1380h-141v1380h-453z" />
<glyph unicode="U" horiz-adv-x="1452" d="M172 551v938h141v-938q0 -242 100.5 -349.5t327.5 -107.5q214 0 310 109t96 352v934h133v-932q0 -298 -131.5 -437.5t-409.5 -139.5q-286 0 -426.5 142t-140.5 429z" />
<glyph unicode="V" horiz-adv-x="1275" d="M35 1489h149l459 -1266l457 1266h141l-557 -1499h-96z" />
<glyph unicode="W" horiz-adv-x="1787" d="M51 1489h150l399 -1258l219 605l-254 653h144l186 -494l178 494h137l-243 -635l235 -623l395 1258h140l-492 -1501h-88l-268 704l-262 -704h-88z" />
<glyph unicode="X" horiz-adv-x="1253" d="M53 0l488 774l-451 715h160l383 -606l375 606h149l-446 -717l489 -772h-160l-419 666l-418 -666h-150z" />
<glyph unicode="Y" horiz-adv-x="1261" d="M66 1489h155l420 -760l408 760h147l-494 -899v-590h-141v604z" />
<glyph unicode="Z" horiz-adv-x="1200" d="M68 0v84l854 1296h-799l10 109h965v-82l-852 -1298h854l-8 -109h-1024z" />
<glyph unicode="[" horiz-adv-x="860" d="M283 -346v1958h456v-105h-317v-1749h317v-104h-456z" />
<glyph unicode="\" horiz-adv-x="901" d="M10 1612h125l836 -1958h-125z" />
<glyph unicode="]" horiz-adv-x="860" d="M121 -242h315v1749h-315v105h457v-1958h-457v104z" />
<glyph unicode="^" d="M213 881l350 608h127l324 -608h-121l-266 465l-293 -465h-121z" />
<glyph unicode="_" horiz-adv-x="614" d="M-100 -252h819v-129h-819v129z" />
<glyph unicode="`" horiz-adv-x="1024" d="M313 1548h150l164 -354h-119z" />
<glyph unicode="a" horiz-adv-x="1019" d="M94 258q0 149 105 219.5t362 93.5l164 15v123q0 125 -53 185t-162 60q-86 0 -162 -21t-190 -77v113q103 52 187 75t175 23q167 0 254.5 -90.5t87.5 -265.5v-711h-78l-53 152q-88 -98 -168 -141.5t-174 -43.5q-134 0 -214.5 79.5t-80.5 211.5zM236 258q0 -88 45.5 -136 t130.5 -48q165 0 313 180v244l-164 -17q-181 -19 -253 -68t-72 -155z" />
<glyph unicode="b" horiz-adv-x="1159" d="M166 0v1505q75 3 106 45h33v-659q102 93 192.5 135.5t186.5 42.5q168 0 272 -129q113 -136 113 -405q0 -326 -168 -469q-112 -95 -264 -95q-187 0 -348 158l-43 -129h-80zM305 201q82 -62 153.5 -88.5t157.5 -26.5q146 0 222 94q46 55 65 137t19 222q0 126 -17.5 198 t-60.5 125q-70 88 -201 88q-82 0 -148 -28t-190 -115v-606z" />
<glyph unicode="c" horiz-adv-x="935" d="M90 510q0 557 463 557q80 0 142 -13.5t149 -49.5v-127q-103 49 -156 63t-129 14q-177 0 -249 -99.5t-72 -344.5q0 -136 22.5 -218t73.5 -132q83 -80 229 -80q75 0 142 19t165 69v-119q-104 -47 -170.5 -64.5t-142.5 -17.5q-230 0 -348.5 138t-118.5 405z" />
<glyph unicode="d" horiz-adv-x="1159" d="M90 504q0 153 32.5 259t102.5 181q54 60 130 92.5t161 32.5q167 0 340 -131v567q76 3 107 45h32v-1550h-82l-49 147q-104 -92 -196.5 -134t-188.5 -42q-183 0 -286 141t-103 392zM238 514q0 -134 17 -208t60 -130q72 -90 201 -90q86 0 159 30t181 109v617q-89 60 -159 84 t-154 24q-169 0 -244 -121q-34 -55 -47.5 -126.5t-13.5 -188.5z" />
<glyph unicode="e" horiz-adv-x="1030" d="M90 518q0 154 33.5 258t105.5 176q117 117 306 117q196 0 303.5 -128t107.5 -361v-66h-708q0 -107 10.5 -168.5t36.5 -112.5q79 -153 293 -153q150 0 329 96v-119q-179 -90 -336 -90q-251 0 -378 168q-54 72 -78.5 162t-24.5 221zM238 621h557q-4 90 -13.5 137t-31.5 88 q-61 119 -220 119q-148 0 -225 -111q-32 -45 -45 -91.5t-22 -141.5z" />
<glyph unicode="f" horiz-adv-x="647" d="M41 946v107h166v147q0 163 96.5 257.5t263.5 94.5h82v-114q-36 8 -76 8q-122 0 -182 -78q-26 -32 -35.5 -70.5t-9.5 -111.5v-133h270v-107h-270v-946h-139v946h-166z" />
<glyph unicode="g" horiz-adv-x="985" d="M25 -172q0 75 45.5 131t148.5 107q-115 49 -115 155q0 54 29.5 101.5t95.5 101.5q-67 54 -98 121.5t-31 161.5q0 167 103 263.5t282 96.5q86 0 174 -29h320v-98h-70q-44 0 -102 -12q59 -91 59 -211q0 -170 -102 -268.5t-279 -98.5q-103 0 -194 39q-64 -70 -64 -139 q0 -46 34 -67t108 -21h215q205 0 297 -67t92 -216q0 -155 -127 -241.5t-354 -86.5q-218 0 -342.5 74t-124.5 203zM162 -158q0 -188 327 -188q347 0 347 223q0 88 -57.5 129t-180.5 41h-287q-80 -46 -114.5 -93.5t-34.5 -111.5zM240 715q0 -117 41 -172q68 -90 202 -90 q119 0 181.5 66t62.5 190q0 130 -59 193t-181 63q-247 0 -247 -250z" />
<glyph unicode="h" horiz-adv-x="1142" d="M166 0v1505q75 3 106 45h33v-659q126 99 212 138.5t177 39.5q139 0 215 -83.5t76 -237.5v-748h-139v745q0 205 -178 205q-82 0 -161 -30.5t-202 -110.5v-809h-139z" />
<glyph unicode="i" horiz-adv-x="471" d="M137 1364q0 41 28 68.5t71 27.5q44 0 71 -27t27 -71q0 -43 -27 -70.5t-71 -27.5t-71.5 27t-27.5 73zM166 0v1024q76 3 106 47h33v-1071h-139z" />
<glyph unicode="j" horiz-adv-x="471" d="M-39 -305q108 22 156.5 85t48.5 181v1063q76 3 106 47h33v-1087q0 -95 -20 -160.5t-64 -116.5q-42 -52 -100 -78.5t-160 -44.5v111zM137 1364q0 41 28 68.5t71 27.5q44 0 71 -27t27 -71q0 -43 -27 -70.5t-71 -27.5t-71.5 27t-27.5 73z" />
<glyph unicode="k" horiz-adv-x="997" d="M166 0v1505q75 3 106 45h33v-1067l465 570h160l-369 -435l414 -618h-154l-348 518l-168 -199v-319h-139z" />
<glyph unicode="l" horiz-adv-x="475" d="M168 0v1505q75 3 106 45h33v-1550h-139z" />
<glyph unicode="m" horiz-adv-x="1703" d="M166 0v1024q76 3 106 47h33v-174q123 100 197 136t157 36q88 0 147 -44.5t99 -139.5q107 96 197 140t180 44q126 0 195 -79.5t69 -225.5v-764h-139v762q0 98 -37.5 143t-120.5 45q-77 0 -144 -27.5t-179 -105.5v-817h-140v766q0 184 -153 184q-72 0 -138.5 -27.5 t-189.5 -109.5v-813h-139z" />
<glyph unicode="n" horiz-adv-x="1142" d="M166 0v1024q76 3 106 47h33v-180q126 99 212 138.5t177 39.5q139 0 215 -83.5t76 -237.5v-748h-139v745q0 205 -178 205q-82 0 -161 -30.5t-202 -110.5v-809h-139z" />
<glyph unicode="o" horiz-adv-x="1128" d="M90 522q0 258 124.5 401.5t350.5 143.5q205 0 332 -127q73 -73 107 -175t34 -247q0 -147 -34 -249t-107 -175q-127 -127 -332 -127q-207 0 -334 127q-74 75 -107.5 177t-33.5 251zM238 522q0 -138 21.5 -221t70.5 -135q83 -92 233 -92q179 0 260 123q68 98 68 321 q0 134 -21.5 216.5t-70.5 133.5q-84 93 -234 93q-179 0 -260 -123q-67 -97 -67 -316z" />
<glyph unicode="p" horiz-adv-x="1159" d="M166 -393v1417q76 3 106 47h33v-180q102 93 192.5 135.5t186.5 42.5q180 0 282.5 -142t102.5 -392q0 -264 -115 -414t-317 -150q-178 0 -332 142v-506h-139zM305 201q82 -62 154 -88.5t159 -26.5q157 0 230.5 107.5t73.5 338.5q0 217 -67 317.5t-212 100.5 q-82 0 -148 -28t-190 -115v-606z" />
<glyph unicode="q" horiz-adv-x="1159" d="M90 504q0 266 112.5 415.5t313.5 149.5q168 0 352 -141l45 125h82v-1446h-139v532q-191 -168 -377 -168q-183 0 -286 141t-103 392zM238 500q0 -211 68.5 -312.5t209.5 -101.5q85 0 159.5 30.5t180.5 108.5v617q-89 60 -159 84t-154 24q-161 0 -233 -106t-72 -344z" />
<glyph unicode="r" horiz-adv-x="706" d="M166 0v1024q76 3 106 47h33v-184q197 167 354 182v-141q-121 -20 -199 -46.5t-155 -72.5v-809h-139z" />
<glyph unicode="s" horiz-adv-x="862" d="M96 51v123q101 -55 166.5 -73.5t151.5 -18.5q229 0 229 176q0 76 -45.5 119t-179.5 94q-93 34 -138 58t-83 57q-84 78 -84 198q0 130 89.5 204.5t246.5 74.5q147 0 276 -66v-125q-87 43 -152 61.5t-133 18.5q-196 0 -196 -157q0 -74 44 -115t177 -92q182 -69 248.5 -137 t66.5 -183q0 -140 -97 -219.5t-269 -79.5q-87 0 -159 18.5t-159 63.5z" />
<glyph unicode="t" horiz-adv-x="704" d="M41 946v107h59q57 0 83.5 20.5t39.5 77.5l31 129h86v-227h301v-107h-301v-663q0 -101 44 -150t136 -49q72 0 154 33v-105q-72 -35 -164 -35q-155 0 -230 81t-75 247v641h-164z" />
<glyph unicode="u" horiz-adv-x="1120" d="M156 289v755l139 17v-772q0 -205 186 -205q82 0 155.5 30.5t180.5 108.5v821l137 17v-1061h-77l-48 152q-116 -103 -198.5 -144t-175.5 -41q-143 0 -221 84t-78 238z" />
<glyph unicode="v" horiz-adv-x="974" d="M12 1053h150l338 -852l327 852h136l-424 -1063h-93z" />
<glyph unicode="w" horiz-adv-x="1486" d="M23 1053h149l254 -826l283 836h90l282 -836l252 826h131l-338 -1063h-102l-276 827l-287 -827h-96z" />
<glyph unicode="x" horiz-adv-x="1017" d="M49 0l373 551l-348 502h157l281 -412l268 412h142l-332 -498l379 -555h-156l-313 457l-310 -457h-141z" />
<glyph unicode="y" horiz-adv-x="974" d="M12 1053h150l338 -777l327 777h136l-617 -1446h-135l219 508z" />
<glyph unicode="z" horiz-adv-x="935" d="M76 0v84l606 860h-557v109h727v-82l-606 -862h610v-109h-780z" />
<glyph unicode="{" horiz-adv-x="860" d="M78 586v108q138 17 191 64t53 153v332q0 202 92.5 285.5t316.5 83.5h29v-105h-37q-148 0 -205 -56t-57 -202v-331q0 -120 -48 -181t-171 -98q122 -35 170.5 -97t48.5 -180v-346q0 -145 57 -201.5t205 -56.5h37v-104h-29q-224 0 -316.5 83.5t-92.5 285.5v346 q0 107 -53 154.5t-191 62.5z" />
<glyph unicode="|" horiz-adv-x="614" d="M246 -348v2001h123v-2001h-123z" />
<glyph unicode="}" horiz-adv-x="860" d="M100 -242h39q146 0 203 56.5t57 201.5v346q0 120 48 181t171 96q-123 37 -171 98t-48 181v331q0 145 -57 201.5t-203 56.5h-39v105h29q224 0 317 -83.5t93 -285.5v-332q0 -106 52.5 -153t190.5 -64v-108q-138 -15 -190.5 -62t-52.5 -155v-346q0 -202 -93 -285.5 t-317 -83.5h-29v104z" />
<glyph unicode="~" d="M201 659q58 86 119 125t135 39q57 0 184 -35q97 -28 143 -28q41 0 80.5 24t89.5 78l78 -65q-64 -90 -122 -128t-132 -38q-60 0 -184 35q-100 28 -148 28q-40 0 -78 -22t-87 -74z" />
<glyph unicode="&#xa1;" horiz-adv-x="501" d="M139 1155q0 47 32 78t79 31q49 0 79.5 -30.5t30.5 -80.5t-30.5 -80.5t-79.5 -30.5q-50 0 -80.5 31t-30.5 82zM172 -240l35 1096h92l37 -1096h-164z" />
<glyph unicode="&#xa2;" horiz-adv-x="923" d="M84 518q0 155 35 259.5t112 176.5q119 113 316 113q41 0 76 -4l55 213h108l-59 -232q51 -15 111 -40v-127q-89 40 -140 57l-219 -848q41 -6 80 -6q72 0 139.5 19.5t165.5 68.5v-119q-104 -46 -170.5 -64t-138.5 -18q-49 0 -104 10l-72 -278h-109l78 305 q-139 66 -201.5 188t-62.5 326zM231 500q0 -158 33 -242t115 -137l215 831q-18 2 -41 2q-191 0 -268 -127q-54 -96 -54 -327z" />
<glyph unicode="&#xa3;" horiz-adv-x="1138" d="M109 0v111h161v583h-161v103h161v288q0 212 105 320t309 108q154 0 291 -63v-119q-87 42 -148 58t-135 16q-146 0 -212 -74t-66 -237v-297h354v-103h-354v-583h612l-12 -111h-905z" />
<glyph unicode="&#xa4;" d="M82 291l125 127q-51 79 -70.5 145.5t-19.5 155.5q0 90 19.5 157t70.5 146l-125 127l92 94l123 -123q85 56 152 76.5t165 20.5q170 0 301 -87l17 -10l121 123l92 -94l-125 -127q51 -79 70.5 -145.5t19.5 -157.5q0 -90 -19 -154t-71 -147l125 -127l-92 -94l-123 122 q-77 -54 -148 -75t-170 -21q-94 0 -161.5 20t-155.5 74l-121 -120zM258 725q0 -91 24 -157.5t78 -121.5q96 -102 254 -102t256.5 104t98.5 271q0 169 -98.5 273t-256.5 104t-257 -103.5t-99 -267.5z" />
<glyph unicode="&#xa5;" horiz-adv-x="1234" d="M94 1489h156l389 -719l356 719h146l-418 -809h367v-107h-388v-188h388v-106h-388v-279h-141v279h-387v106h387v188h-387v107h367z" />
<glyph unicode="&#xa6;" horiz-adv-x="614" d="M236 0v586h141v-586h-141zM236 903v586h141v-586h-141z" />
<glyph unicode="&#xa7;" d="M170 692q0 207 254 279q-57 53 -82 107.5t-25 127.5q0 146 95.5 226.5t267.5 80.5q130 0 252 -49v-125q-82 35 -137 48.5t-121 13.5q-106 0 -161.5 -47t-55.5 -137q0 -83 47.5 -134t197.5 -129q141 -73 184 -98.5t81 -58.5q92 -80 92 -217q0 -112 -59.5 -182t-184.5 -107 q58 -57 83.5 -112t25.5 -126q0 -150 -101 -234.5t-280 -84.5q-83 0 -153.5 17.5t-156.5 60.5v125q99 -53 163 -72t145 -19q241 0 241 203q0 98 -61 150q-29 25 -65 46t-146 81q-112 60 -154.5 86.5t-79.5 58.5q-106 87 -106 221zM301 702q0 -77 57 -131q24 -22 46 -36 t112 -64l211 -115q102 25 151.5 75.5t49.5 131.5q0 72 -42.5 119t-172.5 117l-197 106q-215 -35 -215 -203z" />
<glyph unicode="&#xa8;" horiz-adv-x="1024" d="M250 1364q0 40 26.5 66t67.5 26t67.5 -26.5t26.5 -67.5t-26.5 -67.5t-67.5 -26.5q-43 0 -68.5 26t-25.5 70zM586 1364q0 40 26.5 66t67.5 26t67.5 -26.5t26.5 -67.5t-26.5 -67.5t-67.5 -26.5q-43 0 -68.5 26t-25.5 70z" />
<glyph unicode="&#xa9;" horiz-adv-x="1777" d="M111 745q0 162 60.5 306.5t164 248t247.5 164t306 60.5t306 -60.5t247.5 -164t164 -248t60.5 -306.5q0 -217 -102.5 -395t-282 -279.5t-399.5 -101.5q-159 0 -302.5 60.5t-246 164t-163 247.5t-60.5 304zM207 745q0 -198 87.5 -358t242.5 -251t346 -91q197 0 354.5 90 t245.5 250t88 360q0 199 -88.5 360t-244.5 252t-349 91t-349 -91t-244.5 -252t-88.5 -360zM553 741q0 203 92.5 307.5t272.5 104.5q100 0 192 -35v-94q-86 37 -186 37q-129 0 -187.5 -74t-58.5 -237q0 -166 58.5 -242t187.5 -76q102 0 196 47v-94q-102 -45 -209 -45 q-177 0 -267.5 101.5t-90.5 299.5z" />
<glyph unicode="&#xaa;" horiz-adv-x="942" d="M115 819q0 132 89 193.5t310 81.5l139 12v100q0 109 -44.5 159t-139.5 50q-72 0 -137 -18.5t-162 -65.5v99q162 83 307 83t220 -77.5t75 -227.5v-608h-67l-48 129q-72 -82 -141 -119t-149 -37q-114 0 -183 68t-69 178zM238 821q0 -75 38.5 -115t110.5 -40q140 0 266 153 v207l-139 -14q-157 -17 -216.5 -58t-59.5 -133z" />
<glyph unicode="&#xab;" horiz-adv-x="970" d="M104 528v72l273 418h119l-248 -453l248 -452h-119zM483 528v72l273 418h116l-245 -453l245 -452h-116z" />
<glyph unicode="&#xac;" d="M209 655v115h711v-420h-132v305h-579z" />
<glyph unicode="&#xad;" horiz-adv-x="655" d="M98 625v118h461v-118h-461z" />
<glyph unicode="&#xae;" horiz-adv-x="829" d="M88 1196q0 138 94 233t232 95t232.5 -95t94.5 -233q0 -140 -94 -233t-235 -93q-137 0 -230.5 94t-93.5 232zM147 1196q0 -118 75.5 -195t189.5 -77q119 0 194.5 76t75.5 196t-75.5 198.5t-192.5 78.5q-116 0 -191.5 -78.5t-75.5 -198.5zM301 1049v313h127q50 0 77 -23 t27 -65q0 -66 -65 -80q14 -7 31 -37l67 -108h-78l-57 96q-17 31 -43 31h-16v-127h-70zM371 1221h47q25 0 35 10t10 35q0 23 -10 33t-35 10h-47v-88z" />
<glyph unicode="&#xaf;" horiz-adv-x="1024" d="M266 1303v112h492v-112h-492z" />
<glyph unicode="&#xb0;" horiz-adv-x="743" d="M72 1212q0 124 86.5 209.5t212.5 85.5t213.5 -85.5t87.5 -209.5q0 -126 -87.5 -211.5t-215.5 -85.5q-123 0 -210 87t-87 210zM184 1212q0 -90 52.5 -149t132.5 -59q83 0 136.5 58.5t53.5 149.5q0 89 -53 148t-135 59t-134.5 -58t-52.5 -149z" />
<glyph unicode="&#xb1;" d="M170 0v119h891v-119h-891zM170 655v115h379v406h131v-406h381v-115h-381v-405h-131v405h-379z" />
<glyph unicode="&#xb2;" horiz-adv-x="778" d="M111 721v78q8 5 21.5 16t39 31t45.5 35q183 141 246 218.5t63 160.5q0 55 -38.5 85.5t-106.5 30.5q-58 0 -112.5 -19.5t-141.5 -70.5v113q102 74 256 74q268 0 268 -211q0 -78 -27.5 -136t-99 -127t-223.5 -184h367l-11 -94h-546z" />
<glyph unicode="&#xb3;" horiz-adv-x="778" d="M96 668v100q150 7 240 33q92 26 140 68t48 96q0 47 -33 72.5t-96 25.5q-36 0 -147 -21v101l61 8q97 15 138.5 44.5t41.5 84.5q0 44 -33.5 71t-90.5 27q-56 0 -100 -12t-134 -53v104q117 56 238 56q245 0 245 -191q0 -57 -18 -89t-64 -58q62 -25 89.5 -63t27.5 -101 q0 -93 -52 -152.5t-169 -99.5q-69 -25 -135.5 -35t-196.5 -16z" />
<glyph unicode="&#xb4;" horiz-adv-x="1024" d="M438 1194l164 354h150l-195 -354h-119z" />
<glyph unicode="&#xb6;" d="M106 1096q0 192 106 292.5t308 100.5h447v-1704h-146v1575h-172v-660h-74q-232 0 -350.5 100t-118.5 296z" />
<glyph unicode="&#xb7;" horiz-adv-x="614" d="M197 684q0 47 31.5 78t78.5 31q49 0 80 -30.5t31 -80.5t-31 -80.5t-80 -30.5q-50 0 -80 31t-30 82z" />
<glyph unicode="&#xb8;" horiz-adv-x="1024" d="M377 -348l125 348h121l-105 -348h-141z" />
<glyph unicode="&#xb9;" horiz-adv-x="778" d="M141 1286v98l254 82h74v-653h188v-92h-503v92h196v533z" />
<glyph unicode="&#xba;" horiz-adv-x="942" d="M104 1049q0 221 96 342.5t271 121.5t270 -122.5t95 -346.5q0 -226 -95 -348.5t-272 -122.5q-198 0 -295 160q-38 64 -54 136.5t-16 179.5zM240 1047q0 -220 59 -299q59 -80 170 -80q123 0 177 88t54 288q0 219 -59 295q-61 80 -170 80q-122 0 -176.5 -88t-54.5 -284z" />
<glyph unicode="&#xbb;" horiz-adv-x="970" d="M96 113l248 452l-248 453h117l272 -416v-72l-272 -417h-117zM475 113l246 452l-246 453h117l272 -416v-72l-272 -417h-117z" />
<glyph unicode="&#xbc;" horiz-adv-x="1843" d="M203 1286v98l254 82h73v-653h189v-92h-504v92h197v533zM301 0l1120 1436h121l-1118 -1436h-123zM975 152v71l411 555h136l-394 -532h254v262l123 12v-274h109v-94h-109v-152h-123v152h-407z" />
<glyph unicode="&#xbd;" horiz-adv-x="1843" d="M203 1286v98l254 82h73v-653h189v-92h-504v92h197v533zM301 0l1120 1436h121l-1118 -1436h-123zM1114 0v78l107 82q183 141 246 218.5t63 160.5q0 55 -39 85.5t-107 30.5q-59 0 -114.5 -19.5t-139.5 -70.5v115q106 72 256 72q269 0 269 -211q0 -78 -27.5 -136t-99 -127 t-223.5 -184h366l-10 -94h-547z" />
<glyph unicode="&#xbe;" horiz-adv-x="1843" d="M188 668v100q150 7 240 33q92 26 140 68t48 96q0 47 -33 72.5t-96 25.5q-36 0 -147 -21v101l61 8q97 15 139 44.5t42 84.5q0 44 -34 71t-91 27q-56 0 -100 -12t-134 -53v104q117 56 238 56q246 0 246 -191q0 -57 -18 -89t-64 -58q62 -25 89 -63t27 -101q0 -93 -52 -152.5 t-169 -99.5q-69 -25 -135.5 -35t-196.5 -16zM313 0l1121 1436h120l-1118 -1436h-123zM948 152v71l414 555h135l-395 -532h256v262l123 12v-274h108v-94h-108v-152h-123v152h-410z" />
<glyph unicode="&#xbf;" horiz-adv-x="862" d="M63 80q0 104 42 176t180 207q108 105 143 157t35 109v127h125v-133q0 -77 -37 -138t-156 -179q-124 -123 -155 -177.5t-31 -150.5q0 -232 252 -232q89 0 159.5 19t167.5 69v-116q-92 -45 -167 -63.5t-168 -18.5q-188 0 -289 89t-101 255zM410 1155q0 47 31.5 78t78.5 31 q50 0 80.5 -31t30.5 -80t-30.5 -80t-80.5 -31t-80 31t-30 82z" />
<glyph unicode="&#xc0;" horiz-adv-x="1280" d="M27 0l569 1499h96l559 -1499h-153l-174 475h-580l-176 -475h-141zM383 584h502l-248 682zM399 1937h150l147 -325h-118z" />
<glyph unicode="&#xc1;" horiz-adv-x="1280" d="M27 0l569 1499h96l559 -1499h-153l-174 475h-580l-176 -475h-141zM383 584h502l-248 682zM594 1612l147 325h150l-178 -325h-119z" />
<glyph unicode="&#xc2;" horiz-adv-x="1280" d="M27 0l569 1499h96l559 -1499h-153l-174 475h-580l-176 -475h-141zM352 1612l230 325h118l228 -325h-117l-170 207l-172 -207h-117zM383 584h502l-248 682z" />
<glyph unicode="&#xc3;" horiz-adv-x="1280" d="M27 0l569 1499h96l559 -1499h-153l-174 475h-580l-176 -475h-141zM354 1696q41 73 86.5 106t104.5 33q44 0 114 -33q58 -26 91 -26q61 0 108 71l70 -47q-43 -75 -86 -107t-101 -32q-43 0 -116 33q-58 26 -93 26q-60 0 -108 -71zM383 584h502l-248 682z" />
<glyph unicode="&#xc4;" horiz-adv-x="1280" d="M27 0l569 1499h96l559 -1499h-153l-174 475h-580l-176 -475h-141zM379 1753q0 40 26.5 66t67.5 26t67.5 -26.5t26.5 -67.5t-26.5 -67.5t-67.5 -26.5q-43 0 -68.5 26t-25.5 70zM383 584h502l-248 682zM715 1753q0 40 26.5 66t67.5 26t67.5 -26.5t26.5 -67.5t-26.5 -67.5 t-67.5 -26.5q-43 0 -68.5 26t-25.5 70z" />
<glyph unicode="&#xc5;" horiz-adv-x="1280" d="M27 0l569 1499h96l559 -1499h-153l-174 475h-580l-176 -475h-141zM383 584h502l-248 682zM442 1769q0 86 55 138.5t144 52.5t144 -52t55 -136q0 -85 -55 -137t-144 -52q-88 0 -143.5 51.5t-55.5 134.5zM535 1774q0 -56 27.5 -86.5t78.5 -30.5q50 0 78.5 30.5t28.5 84.5 t-28.5 84t-78.5 30t-78 -30t-28 -82z" />
<glyph unicode="&#xc6;" horiz-adv-x="1968" d="M41 0l926 1489h817v-109h-680v-559h541v-110h-541v-600h745l-16 -111h-868v489h-482l-297 -489h-145zM559 614h406v664z" />
<glyph unicode="&#xc7;" horiz-adv-x="1236" d="M104 745q0 182 37 314.5t115 234.5q168 219 494 219q203 0 366 -71v-123q-107 46 -189 65t-179 19q-249 0 -369 -156q-67 -88 -96 -204.5t-29 -299.5q0 -182 30 -298t99 -201q124 -154 367 -154q106 0 193 23t200 80v-123q-164 -84 -379 -90l-98 -328h-142l119 334 q-203 23 -336 147q-106 99 -154.5 244.5t-48.5 367.5z" />
<glyph unicode="&#xc8;" horiz-adv-x="1179" d="M195 0v1489h833v-109h-692v-557h549v-108h-549v-606h762l-13 -109h-890zM422 1937h149l148 -325h-119z" />
<glyph unicode="&#xc9;" horiz-adv-x="1179" d="M195 0v1489h833v-109h-692v-557h549v-108h-549v-606h762l-13 -109h-890zM582 1612l147 325h150l-179 -325h-118z" />
<glyph unicode="&#xca;" horiz-adv-x="1179" d="M195 0v1489h833v-109h-692v-557h549v-108h-549v-606h762l-13 -109h-890zM338 1612l229 325h119l227 -325h-116l-170 207l-172 -207h-117z" />
<glyph unicode="&#xcb;" horiz-adv-x="1179" d="M195 0v1489h833v-109h-692v-557h549v-108h-549v-606h762l-13 -109h-890zM371 1753q0 40 26.5 66t67.5 26t67.5 -26.5t26.5 -67.5t-26.5 -67.5t-67.5 -26.5q-43 0 -68.5 26t-25.5 70zM707 1753q0 40 26.5 66t67.5 26t67.5 -26.5t26.5 -67.5t-26.5 -67.5t-67.5 -26.5 q-43 0 -68.5 26t-25.5 70z" />
<glyph unicode="&#xcc;" horiz-adv-x="540" d="M59 1937h150l147 -325h-118zM199 0v1489h143v-1489h-143z" />
<glyph unicode="&#xcd;" horiz-adv-x="540" d="M199 0v1489h143v-1489h-143zM213 1612l147 325h150l-178 -325h-119z" />
<glyph unicode="&#xce;" horiz-adv-x="540" d="M-18 1612l229 325h119l227 -325h-117l-170 207l-172 -207h-116zM199 0v1489h143v-1489h-143z" />
<glyph unicode="&#xcf;" horiz-adv-x="540" d="M8 1753q0 40 26.5 66t67.5 26t68 -26.5t27 -67.5t-27 -67.5t-68 -26.5q-43 0 -68.5 26t-25.5 70zM199 0v1489h143v-1489h-143zM344 1753q0 40 26.5 66t67.5 26t67.5 -26.5t26.5 -67.5t-26.5 -67.5t-67.5 -26.5q-43 0 -68.5 26t-25.5 70z" />
<glyph unicode="&#xd0;" horiz-adv-x="1423" d="M37 711v110h158v668h467q322 0 489.5 -188.5t167.5 -550.5q0 -209 -49.5 -352t-155.5 -240q-172 -158 -455 -158h-464v711h-158zM336 109h307q259 0 391 147q71 78 103 193t32 288q0 340 -124 491.5t-402 151.5h-307v-559h407v-110h-407v-602z" />
<glyph unicode="&#xd1;" horiz-adv-x="1484" d="M193 0v1489h120l846 -1202v1202h133v-1489h-100l-866 1235v-1235h-133zM473 1696q41 73 86.5 106t104.5 33q44 0 114 -33q59 -26 90 -26q62 0 109 71l70 -47q-43 -75 -86 -107t-101 -32q-44 0 -117 33q-59 26 -92 26q-60 0 -108 -71z" />
<glyph unicode="&#xd2;" horiz-adv-x="1472" d="M104 756q0 358 167 557.5t466 199.5t465 -200.5t166 -564.5q0 -365 -166 -566.5t-467 -201.5q-339 0 -508 262q-65 100 -94 222t-29 292zM254 754q0 -668 481 -668q484 0 484 662q0 659 -482 659q-239 0 -361 -165t-122 -488zM526 1937h150l147 -325h-118z" />
<glyph unicode="&#xd3;" horiz-adv-x="1472" d="M104 756q0 358 167 557.5t466 199.5t465 -200.5t166 -564.5q0 -365 -166 -566.5t-467 -201.5q-339 0 -508 262q-65 100 -94 222t-29 292zM254 754q0 -668 481 -668q484 0 484 662q0 659 -482 659q-239 0 -361 -165t-122 -488zM680 1612l147 325h150l-178 -325h-119z" />
<glyph unicode="&#xd4;" horiz-adv-x="1472" d="M104 756q0 358 167 557.5t466 199.5t465 -200.5t166 -564.5q0 -365 -166 -566.5t-467 -201.5q-339 0 -508 262q-65 100 -94 222t-29 292zM254 754q0 -668 481 -668q484 0 484 662q0 659 -482 659q-239 0 -361 -165t-122 -488zM449 1612l229 325h119l227 -325h-117 l-170 207l-172 -207h-116z" />
<glyph unicode="&#xd5;" horiz-adv-x="1472" d="M104 756q0 358 167 557.5t466 199.5t465 -200.5t166 -564.5q0 -365 -166 -566.5t-467 -201.5q-339 0 -508 262q-65 100 -94 222t-29 292zM254 754q0 -668 481 -668q484 0 484 662q0 659 -482 659q-239 0 -361 -165t-122 -488zM451 1696q41 73 86 106t104 33q45 0 115 -33 q58 -26 90 -26q61 0 108 71l70 -47q-43 -75 -85.5 -107t-100.5 -32q-44 0 -117 33q-59 26 -92 26q-61 0 -109 -71z" />
<glyph unicode="&#xd6;" horiz-adv-x="1472" d="M104 756q0 358 167 557.5t466 199.5t465 -200.5t166 -564.5q0 -365 -166 -566.5t-467 -201.5q-339 0 -508 262q-65 100 -94 222t-29 292zM254 754q0 -668 481 -668q484 0 484 662q0 659 -482 659q-239 0 -361 -165t-122 -488zM475 1753q0 40 26.5 66t67.5 26t68 -26.5 t27 -67.5t-27 -67.5t-68 -26.5q-43 0 -68.5 26t-25.5 70zM811 1753q0 40 26.5 66t67.5 26t67.5 -26.5t26.5 -67.5t-26.5 -67.5t-67.5 -26.5q-43 0 -68.5 26t-25.5 70z" />
<glyph unicode="&#xd7;" d="M190 1038l91 92l329 -331l330 331l86 -90l-328 -327l328 -328l-90 -92l-330 328l-325 -326l-88 86l327 328z" />
<glyph unicode="&#xd8;" horiz-adv-x="1472" d="M41 -92l217 291q-80 106 -117 236.5t-37 309.5q0 365 166 566.5t465 201.5q236 0 402 -135l133 178h131l-191 -256q84 -108 121 -237.5t37 -314.5q0 -365 -166 -566.5t-465 -201.5q-238 0 -407 141l-158 -213h-131zM254 743q0 -275 86 -434l723 971q-124 127 -328 127 q-481 0 -481 -664zM403 219q127 -133 334 -133q482 0 482 662q0 148 -21.5 251.5t-69.5 192.5z" />
<glyph unicode="&#xd9;" horiz-adv-x="1452" d="M172 551v938h141v-938q0 -242 100.5 -349.5t327.5 -107.5q214 0 310 109t96 352v934h133v-932q0 -298 -131.5 -437.5t-409.5 -139.5q-286 0 -426.5 142t-140.5 429zM516 1937h150l147 -325h-119z" />
<glyph unicode="&#xda;" horiz-adv-x="1452" d="M172 551v938h141v-938q0 -242 100.5 -349.5t327.5 -107.5q214 0 310 109t96 352v934h133v-932q0 -298 -131.5 -437.5t-409.5 -139.5q-286 0 -426.5 142t-140.5 429zM670 1612l147 325h150l-179 -325h-118z" />
<glyph unicode="&#xdb;" horiz-adv-x="1452" d="M172 551v938h141v-938q0 -242 100.5 -349.5t327.5 -107.5q214 0 310 109t96 352v934h133v-932q0 -298 -131.5 -437.5t-409.5 -139.5q-286 0 -426.5 142t-140.5 429zM438 1612l230 325h118l228 -325h-117l-170 207l-172 -207h-117z" />
<glyph unicode="&#xdc;" horiz-adv-x="1452" d="M172 551v938h141v-938q0 -242 100.5 -349.5t327.5 -107.5q214 0 310 109t96 352v934h133v-932q0 -298 -131.5 -437.5t-409.5 -139.5q-286 0 -426.5 142t-140.5 429zM465 1753q0 40 26.5 66t67.5 26t67.5 -26.5t26.5 -67.5t-26.5 -67.5t-67.5 -26.5q-43 0 -68.5 26 t-25.5 70zM801 1753q0 40 26.5 66t67.5 26t67.5 -26.5t26.5 -67.5t-26.5 -67.5t-67.5 -26.5q-43 0 -68.5 26t-25.5 70z" />
<glyph unicode="&#xdd;" horiz-adv-x="1261" d="M66 1489h155l420 -760l408 760h147l-494 -899v-590h-141v604zM586 1612l147 325h150l-178 -325h-119z" />
<glyph unicode="&#xde;" horiz-adv-x="1204" d="M195 0v1489h141v-313h344q202 0 313 -99q62 -54 88.5 -126.5t26.5 -184.5q0 -127 -34.5 -206.5t-112.5 -133.5q-124 -82 -353 -82q-156 0 -272 21v-365h-141zM336 471q132 -18 270 -18q97 0 155.5 13.5t104.5 47.5q51 36 71.5 93.5t20.5 156.5q0 97 -19 152t-65 92 q-74 59 -210 59h-328v-596z" />
<glyph unicode="&#xdf;" horiz-adv-x="1179" d="M166 0v1071q0 117 20.5 191.5t71.5 140.5q127 158 363 158q172 0 272 -75.5t100 -205.5q0 -82 -38.5 -144.5t-159.5 -179.5q-92 -88 -118 -124.5t-26 -77.5t35.5 -72t142.5 -82q142 -68 195 -113q92 -80 92 -217q0 -143 -93.5 -222t-262.5 -79q-148 0 -283 66v123 q87 -43 148.5 -59.5t136.5 -16.5q217 0 217 174q0 92 -59 139q-32 28 -158 88q-117 56 -166 97q-76 67 -76 161q0 64 32 116t140 161q102 102 134 152.5t32 107.5q0 86 -63.5 132t-180.5 46q-170 0 -249 -113q-34 -47 -47 -105t-13 -159v-1079h-139z" />
<glyph unicode="&#xe0;" horiz-adv-x="1019" d="M94 258q0 149 105 219.5t362 93.5l164 15v123q0 125 -53 185t-162 60q-86 0 -162 -21t-190 -77v113q103 52 187 75t175 23q167 0 254.5 -90.5t87.5 -265.5v-711h-78l-53 152q-88 -98 -168 -141.5t-174 -43.5q-134 0 -214.5 79.5t-80.5 211.5zM236 258q0 -88 45.5 -136 t130.5 -48q165 0 313 180v244l-164 -17q-181 -19 -253 -68t-72 -155zM311 1548h150l164 -354h-119z" />
<glyph unicode="&#xe1;" horiz-adv-x="1019" d="M94 258q0 149 105 219.5t362 93.5l164 15v123q0 125 -53 185t-162 60q-86 0 -162 -21t-190 -77v113q103 52 187 75t175 23q167 0 254.5 -90.5t87.5 -265.5v-711h-78l-53 152q-88 -98 -168 -141.5t-174 -43.5q-134 0 -214.5 79.5t-80.5 211.5zM236 258q0 -88 45.5 -136 t130.5 -48q165 0 313 180v244l-164 -17q-181 -19 -253 -68t-72 -155zM436 1194l164 354h150l-195 -354h-119z" />
<glyph unicode="&#xe2;" horiz-adv-x="1019" d="M94 258q0 149 105 219.5t362 93.5l164 15v123q0 125 -53 185t-162 60q-86 0 -162 -21t-190 -77v113q103 52 187 75t175 23q167 0 254.5 -90.5t87.5 -265.5v-711h-78l-53 152q-88 -98 -168 -141.5t-174 -43.5q-134 0 -214.5 79.5t-80.5 211.5zM221 1202l230 326h118 l228 -326h-117l-170 207l-172 -207h-117zM236 258q0 -88 45.5 -136t130.5 -48q165 0 313 180v244l-164 -17q-181 -19 -253 -68t-72 -155z" />
<glyph unicode="&#xe3;" horiz-adv-x="1019" d="M94 258q0 149 105 219.5t362 93.5l164 15v123q0 125 -53 185t-162 60q-86 0 -162 -21t-190 -77v113q103 52 187 75t175 23q167 0 254.5 -90.5t87.5 -265.5v-711h-78l-53 152q-88 -98 -168 -141.5t-174 -43.5q-134 0 -214.5 79.5t-80.5 211.5zM223 1307q41 73 86.5 106 t104.5 33q44 0 114 -33q61 -27 90 -27q62 0 109 72l70 -47q-43 -75 -86 -107t-101 -32q-43 0 -116 33q-58 26 -93 26q-60 0 -108 -71zM236 258q0 -88 45.5 -136t130.5 -48q165 0 313 180v244l-164 -17q-181 -19 -253 -68t-72 -155z" />
<glyph unicode="&#xe4;" horiz-adv-x="1019" d="M94 258q0 149 105 219.5t362 93.5l164 15v123q0 125 -53 185t-162 60q-86 0 -162 -21t-190 -77v113q103 52 187 75t175 23q167 0 254.5 -90.5t87.5 -265.5v-711h-78l-53 152q-88 -98 -168 -141.5t-174 -43.5q-134 0 -214.5 79.5t-80.5 211.5zM236 258q0 -88 45.5 -136 t130.5 -48q165 0 313 180v244l-164 -17q-181 -19 -253 -68t-72 -155zM258 1364q0 40 26.5 66t67.5 26t67.5 -26.5t26.5 -67.5t-26.5 -67.5t-67.5 -26.5q-43 0 -68.5 26t-25.5 70zM594 1364q0 40 26.5 66t67.5 26t67.5 -26.5t26.5 -67.5t-26.5 -67.5t-67.5 -26.5 q-43 0 -68.5 26t-25.5 70z" />
<glyph unicode="&#xe5;" horiz-adv-x="1019" d="M94 258q0 149 105 219.5t362 93.5l164 15v123q0 125 -53 185t-162 60q-86 0 -162 -21t-190 -77v113q103 52 187 75t175 23q167 0 254.5 -90.5t87.5 -265.5v-711h-78l-53 152q-88 -98 -168 -141.5t-174 -43.5q-134 0 -214.5 79.5t-80.5 211.5zM236 258q0 -88 45.5 -136 t130.5 -48q165 0 313 180v244l-164 -17q-181 -19 -253 -68t-72 -155zM311 1380q0 86 55 138.5t144 52.5t144 -52.5t55 -136.5q0 -85 -55 -136.5t-144 -51.5q-88 0 -143.5 51.5t-55.5 134.5zM403 1384q0 -55 28 -85.5t79 -30.5q50 0 78 30t28 84t-28 84.5t-78 30.5 t-78.5 -30.5t-28.5 -82.5z" />
<glyph unicode="&#xe6;" horiz-adv-x="1660" d="M94 254q0 154 110.5 232t356.5 100l164 14v109q0 126 -52.5 185.5t-164.5 59.5q-85 0 -161.5 -21.5t-188.5 -76.5v113q103 52 187 75t175 23q124 0 195 -47.5t106 -153.5q57 105 139.5 154t204.5 49q197 0 304.5 -128t107.5 -361v-74h-709v-39q0 -387 340 -387 q151 0 330 96v-119q-179 -90 -336 -90q-145 0 -244 53.5t-165 167.5q-101 -123 -189.5 -172t-208.5 -49q-138 0 -219.5 77.5t-81.5 209.5zM236 254q0 -85 46.5 -132.5t129.5 -47.5q165 0 313 180v250l-164 -17q-182 -19 -253.5 -70t-71.5 -163zM868 612h559q-9 191 -70 272 t-196 81q-133 0 -209 -88q-39 -45 -57.5 -104.5t-26.5 -160.5z" />
<glyph unicode="&#xe7;" horiz-adv-x="935" d="M90 510q0 557 463 557q80 0 142 -13.5t149 -49.5v-127q-103 49 -156 63t-129 14q-177 0 -249 -99.5t-72 -344.5q0 -136 22.5 -218t73.5 -132q83 -80 229 -80q75 0 142 19t165 69v-119q-91 -41 -149.5 -58.5t-128.5 -23.5l-94 -315h-142l115 321q-381 55 -381 537z" />
<glyph unicode="&#xe8;" horiz-adv-x="1030" d="M90 518q0 154 33.5 258t105.5 176q117 117 306 117q196 0 303.5 -128t107.5 -361v-66h-708q0 -107 10.5 -168.5t36.5 -112.5q79 -153 293 -153q150 0 329 96v-119q-179 -90 -336 -90q-251 0 -378 168q-54 72 -78.5 162t-24.5 221zM238 621h557q-4 90 -13.5 137t-31.5 88 q-61 119 -220 119q-148 0 -225 -111q-32 -45 -45 -91.5t-22 -141.5zM317 1548h150l164 -354h-119z" />
<glyph unicode="&#xe9;" horiz-adv-x="1030" d="M90 518q0 154 33.5 258t105.5 176q117 117 306 117q196 0 303.5 -128t107.5 -361v-66h-708q0 -107 10.5 -168.5t36.5 -112.5q79 -153 293 -153q150 0 329 96v-119q-179 -90 -336 -90q-251 0 -378 168q-54 72 -78.5 162t-24.5 221zM238 621h557q-4 90 -13.5 137t-31.5 88 q-61 119 -220 119q-148 0 -225 -111q-32 -45 -45 -91.5t-22 -141.5zM465 1194l164 354h149l-194 -354h-119z" />
<glyph unicode="&#xea;" horiz-adv-x="1030" d="M90 518q0 154 33.5 258t105.5 176q117 117 306 117q196 0 303.5 -128t107.5 -361v-66h-708q0 -107 10.5 -168.5t36.5 -112.5q79 -153 293 -153q150 0 329 96v-119q-179 -90 -336 -90q-251 0 -378 168q-54 72 -78.5 162t-24.5 221zM238 621h557q-4 90 -13.5 137t-31.5 88 q-61 119 -220 119q-148 0 -225 -111q-32 -45 -45 -91.5t-22 -141.5zM244 1202l229 326h119l227 -326h-117l-170 207l-172 -207h-116z" />
<glyph unicode="&#xeb;" horiz-adv-x="1030" d="M90 518q0 154 33.5 258t105.5 176q117 117 306 117q196 0 303.5 -128t107.5 -361v-66h-708q0 -107 10.5 -168.5t36.5 -112.5q79 -153 293 -153q150 0 329 96v-119q-179 -90 -336 -90q-251 0 -378 168q-54 72 -78.5 162t-24.5 221zM238 621h557q-4 90 -13.5 137t-31.5 88 q-61 119 -220 119q-148 0 -225 -111q-32 -45 -45 -91.5t-22 -141.5zM291 1364q0 40 26.5 66t67.5 26t67.5 -26.5t26.5 -67.5t-26.5 -67.5t-67.5 -26.5q-43 0 -68.5 26t-25.5 70zM627 1364q0 40 26.5 66t67.5 26t67.5 -26.5t26.5 -67.5t-26.5 -67.5t-67.5 -26.5 q-43 0 -68.5 26t-25.5 70z" />
<glyph unicode="&#xec;" horiz-adv-x="471" d="M4 1548h150l163 -354h-118zM166 0v1024q76 3 106 47h33v-1071h-139z" />
<glyph unicode="&#xed;" horiz-adv-x="471" d="M162 1194l164 354h149l-194 -354h-119zM166 0v1024q76 3 106 47h33v-1071h-139z" />
<glyph unicode="&#xee;" horiz-adv-x="471" d="M-53 1202l229 326h119l227 -326h-116l-170 207l-173 -207h-116zM166 0v1024q76 3 106 47h33v-1071h-139z" />
<glyph unicode="&#xef;" horiz-adv-x="471" d="M-27 1364q0 40 27 66t68 26t67.5 -26.5t26.5 -67.5t-26.5 -67.5t-67.5 -26.5q-43 0 -69 26t-26 70zM166 0v1024q76 3 106 47h33v-1071h-139zM309 1364q0 40 26.5 66t67.5 26t68 -26.5t27 -67.5t-27 -67.5t-68 -26.5q-43 0 -68.5 26t-25.5 70z" />
<glyph unicode="&#xf0;" horiz-adv-x="1128" d="M90 520q0 140 30 235.5t97 170.5q132 141 338 141q87 0 151.5 -26.5t124.5 -86.5q-72 166 -208 326l-287 -123v105l217 92q-93 93 -221 194h164q100 -68 178 -141l254 109v-105l-180 -78q157 -178 223.5 -353.5t66.5 -408.5q0 -178 -33 -288.5t-110 -188.5 q-130 -127 -332 -127q-206 0 -332 129q-74 75 -107.5 176t-33.5 248zM238 535q0 -122 12.5 -192t44.5 -124q84 -147 272 -147q146 0 232 98q51 60 70.5 135.5t19.5 206.5q0 146 -19 222t-69 132q-86 95 -234 95q-173 0 -260 -119q-38 -54 -53.5 -122t-15.5 -185z" />
<glyph unicode="&#xf1;" horiz-adv-x="1142" d="M166 0v1024q76 3 106 47h33v-180q126 99 212 138.5t177 39.5q139 0 215 -83.5t76 -237.5v-748h-139v745q0 205 -178 205q-82 0 -161 -30.5t-202 -110.5v-809h-139zM285 1307q41 73 86 106t104 33q45 0 115 -33q61 -27 90 -27q61 0 108 72l70 -47q-43 -75 -85.5 -107 t-100.5 -32q-44 0 -117 33q-58 26 -92 26q-61 0 -109 -71z" />
<glyph unicode="&#xf2;" horiz-adv-x="1128" d="M90 522q0 258 124.5 401.5t350.5 143.5q205 0 332 -127q73 -73 107 -175t34 -247q0 -147 -34 -249t-107 -175q-127 -127 -332 -127q-207 0 -334 127q-74 75 -107.5 177t-33.5 251zM238 522q0 -138 21.5 -221t70.5 -135q83 -92 233 -92q179 0 260 123q68 98 68 321 q0 134 -21.5 216.5t-70.5 133.5q-84 93 -234 93q-179 0 -260 -123q-67 -97 -67 -316zM367 1548h149l164 -354h-119z" />
<glyph unicode="&#xf3;" horiz-adv-x="1128" d="M90 522q0 258 124.5 401.5t350.5 143.5q205 0 332 -127q73 -73 107 -175t34 -247q0 -147 -34 -249t-107 -175q-127 -127 -332 -127q-207 0 -334 127q-74 75 -107.5 177t-33.5 251zM238 522q0 -138 21.5 -221t70.5 -135q83 -92 233 -92q179 0 260 123q68 98 68 321 q0 134 -21.5 216.5t-70.5 133.5q-84 93 -234 93q-179 0 -260 -123q-67 -97 -67 -316zM492 1194l163 354h150l-195 -354h-118z" />
<glyph unicode="&#xf4;" horiz-adv-x="1128" d="M90 522q0 258 124.5 401.5t350.5 143.5q205 0 332 -127q73 -73 107 -175t34 -247q0 -147 -34 -249t-107 -175q-127 -127 -332 -127q-207 0 -334 127q-74 75 -107.5 177t-33.5 251zM238 522q0 -138 21.5 -221t70.5 -135q83 -92 233 -92q179 0 260 123q68 98 68 321 q0 134 -21.5 216.5t-70.5 133.5q-84 93 -234 93q-179 0 -260 -123q-67 -97 -67 -316zM276 1202l230 326h119l227 -326h-117l-170 207l-172 -207h-117z" />
<glyph unicode="&#xf5;" horiz-adv-x="1128" d="M90 522q0 258 124.5 401.5t350.5 143.5q205 0 332 -127q73 -73 107 -175t34 -247q0 -147 -34 -249t-107 -175q-127 -127 -332 -127q-207 0 -334 127q-74 75 -107.5 177t-33.5 251zM238 522q0 -138 21.5 -221t70.5 -135q83 -92 233 -92q179 0 260 123q68 98 68 321 q0 134 -21.5 216.5t-70.5 133.5q-84 93 -234 93q-179 0 -260 -123q-67 -97 -67 -316zM279 1307q41 73 86 106t104 33q45 0 115 -33q61 -27 90 -27q61 0 108 72l70 -47q-43 -75 -85.5 -107t-100.5 -32q-44 0 -117 33q-59 26 -92 26q-61 0 -109 -71z" />
<glyph unicode="&#xf6;" horiz-adv-x="1128" d="M90 522q0 258 124.5 401.5t350.5 143.5q205 0 332 -127q73 -73 107 -175t34 -247q0 -147 -34 -249t-107 -175q-127 -127 -332 -127q-207 0 -334 127q-74 75 -107.5 177t-33.5 251zM238 522q0 -138 21.5 -221t70.5 -135q83 -92 233 -92q179 0 260 123q68 98 68 321 q0 134 -21.5 216.5t-70.5 133.5q-84 93 -234 93q-179 0 -260 -123q-67 -97 -67 -316zM303 1364q0 40 26.5 66t67.5 26t68 -26.5t27 -67.5t-27 -67.5t-68 -26.5q-43 0 -68.5 26t-25.5 70zM639 1364q0 40 26.5 66t67.5 26t67.5 -26.5t26.5 -67.5t-26.5 -67.5t-67.5 -26.5 q-43 0 -68.5 26t-25.5 70z" />
<glyph unicode="&#xf7;" d="M168 655v115h891v-115h-891zM502 344q0 47 32 80t78 33t78.5 -32.5t32.5 -78.5q0 -47 -32.5 -78.5t-80.5 -31.5q-46 0 -77 31t-31 77zM502 1087q0 47 32 80t78 33t78.5 -32t32.5 -78q0 -47 -33 -79t-80 -32q-46 0 -77 31t-31 77z" />
<glyph unicode="&#xf8;" horiz-adv-x="1128" d="M59 -92l152 207q-65 78 -93 171.5t-28 231.5q0 145 34 247t107 175q127 127 334 127q165 0 283 -84l82 113h129l-135 -185q60 -75 87 -168t27 -225q0 -147 -34 -249t-107 -175q-127 -127 -332 -127q-84 0 -148.5 18.5t-127.5 59.5l-101 -137h-129zM238 516 q0 -105 11 -169.5t40 -125.5l489 668q-87 72 -215 72q-85 0 -151.5 -31.5t-106.5 -91.5q-67 -97 -67 -322zM358 139q82 -65 207 -65q85 0 151.5 31.5t106.5 91.5q68 98 68 321q0 100 -10.5 163.5t-36.5 121.5z" />
<glyph unicode="&#xf9;" horiz-adv-x="1120" d="M156 289v755l139 17v-772q0 -205 186 -205q82 0 155.5 30.5t180.5 108.5v821l137 17v-1061h-77l-48 152q-116 -103 -198.5 -144t-175.5 -41q-143 0 -221 84t-78 238zM362 1548h150l164 -354h-119z" />
<glyph unicode="&#xfa;" horiz-adv-x="1120" d="M156 289v755l139 17v-772q0 -205 186 -205q82 0 155.5 30.5t180.5 108.5v821l137 17v-1061h-77l-48 152q-116 -103 -198.5 -144t-175.5 -41q-143 0 -221 84t-78 238zM487 1194l164 354h150l-195 -354h-119z" />
<glyph unicode="&#xfb;" horiz-adv-x="1120" d="M156 289v755l139 17v-772q0 -205 186 -205q82 0 155.5 30.5t180.5 108.5v821l137 17v-1061h-77l-48 152q-116 -103 -198.5 -144t-175.5 -41q-143 0 -221 84t-78 238zM272 1202l230 326h119l227 -326h-117l-170 207l-172 -207h-117z" />
<glyph unicode="&#xfc;" horiz-adv-x="1120" d="M156 289v755l139 17v-772q0 -205 186 -205q82 0 155.5 30.5t180.5 108.5v821l137 17v-1061h-77l-48 152q-116 -103 -198.5 -144t-175.5 -41q-143 0 -221 84t-78 238zM299 1364q0 40 26.5 66t67.5 26t67.5 -26.5t26.5 -67.5t-26.5 -67.5t-67.5 -26.5q-43 0 -68.5 26 t-25.5 70zM635 1364q0 40 26.5 66t67.5 26t67.5 -26.5t26.5 -67.5t-26.5 -67.5t-67.5 -26.5q-43 0 -68.5 26t-25.5 70z" />
<glyph unicode="&#xfd;" horiz-adv-x="974" d="M12 1053h150l338 -777l327 777h136l-617 -1446h-135l219 508zM414 1194l164 354h149l-195 -354h-118z" />
<glyph unicode="&#xfe;" horiz-adv-x="1159" d="M166 -393v1898q75 3 106 45h33v-659q102 93 192.5 135.5t186.5 42.5q180 0 282.5 -142t102.5 -392q0 -264 -115 -414t-317 -150q-178 0 -332 142v-506h-139zM305 201q82 -62 154 -88.5t159 -26.5q157 0 230.5 107.5t73.5 338.5q0 217 -67 317.5t-212 100.5 q-82 0 -148 -28t-190 -115v-606z" />
<glyph unicode="&#xff;" horiz-adv-x="974" d="M12 1053h150l338 -777l327 777h136l-617 -1446h-135l219 508zM244 1364q0 40 26.5 66t67.5 26t67.5 -26.5t26.5 -67.5t-26.5 -67.5t-67.5 -26.5q-43 0 -68.5 26t-25.5 70zM580 1364q0 40 26.5 66t67.5 26t67.5 -26.5t26.5 -67.5t-26.5 -67.5t-67.5 -26.5q-43 0 -68.5 26 t-25.5 70z" />
<glyph unicode="&#x152;" horiz-adv-x="2203" d="M104 743q0 176 34 303.5t106 229.5q172 237 495 237q169 0 285 -63t199 -201v240h829v-113h-692v-553h549v-110h-549v-602h762l-13 -111h-886v248q-83 -140 -200 -204t-288 -64q-315 0 -483 217q-77 100 -112.5 230t-35.5 316zM254 752q0 -190 29.5 -308.5t97.5 -203.5 q127 -154 354 -154q228 0 355 154q68 83 98.5 203t30.5 302q0 186 -33 310.5t-105 212.5q-56 66 -145.5 102.5t-198.5 36.5q-270 0 -393 -213q-47 -84 -68.5 -188t-21.5 -254z" />
<glyph unicode="&#x153;" horiz-adv-x="1828" d="M90 518q0 288 146 428q124 121 323 121q145 0 240.5 -60t154.5 -188q59 128 152 189t231 61q195 0 301.5 -127.5t106.5 -361.5v-66h-717v-47q0 -192 87 -289.5t257 -97.5q158 0 334 96v-119q-181 -90 -340 -90q-154 0 -254.5 63t-159.5 195q-60 -132 -157 -195t-240 -63 q-198 0 -324 123q-141 144 -141 428zM238 530q0 -150 24.5 -237t81.5 -141q83 -80 215 -80q159 0 246 116q76 103 76 334q0 139 -23 222.5t-76 134.5q-85 82 -223 82q-163 0 -248 -111q-73 -97 -73 -320zM1028 621h565q-9 187 -68.5 265.5t-191.5 78.5q-136 0 -217 -93 q-40 -45 -59.5 -100t-28.5 -151z" />
<glyph unicode="&#x178;" horiz-adv-x="1261" d="M66 1489h155l420 -760l408 760h147l-494 -899v-590h-141v604zM369 1753q0 40 26.5 66t67.5 26t67.5 -26.5t26.5 -67.5t-26.5 -67.5t-67.5 -26.5q-43 0 -68.5 26t-25.5 70zM705 1753q0 40 26.5 66t67.5 26t67.5 -26.5t26.5 -67.5t-26.5 -67.5t-67.5 -26.5q-43 0 -68.5 26 t-25.5 70z" />
<glyph unicode="&#x2c6;" horiz-adv-x="1024" d="M223 1202l230 326h118l228 -326h-117l-170 207l-172 -207h-117z" />
<glyph unicode="&#x2dc;" horiz-adv-x="1024" d="M225 1307q41 73 86.5 106t104.5 33q44 0 114 -33q61 -27 91 -27q61 0 108 72l70 -47q-43 -75 -86 -107t-101 -32q-43 0 -116 33q-59 26 -93 26q-60 0 -108 -71z" />
<glyph unicode="&#x2000;" horiz-adv-x="980" />
<glyph unicode="&#x2001;" horiz-adv-x="1960" />
<glyph unicode="&#x2002;" horiz-adv-x="980" />
<glyph unicode="&#x2003;" horiz-adv-x="1960" />
<glyph unicode="&#x2004;" horiz-adv-x="653" />
<glyph unicode="&#x2005;" horiz-adv-x="490" />
<glyph unicode="&#x2006;" horiz-adv-x="326" />
<glyph unicode="&#x2007;" horiz-adv-x="326" />
<glyph unicode="&#x2008;" horiz-adv-x="245" />
<glyph unicode="&#x2009;" horiz-adv-x="392" />
<glyph unicode="&#x200a;" horiz-adv-x="108" />
<glyph unicode="&#x2010;" horiz-adv-x="655" d="M98 625v118h461v-118h-461z" />
<glyph unicode="&#x2011;" horiz-adv-x="655" d="M98 625v118h461v-118h-461z" />
<glyph unicode="&#x2012;" horiz-adv-x="655" d="M98 625v118h461v-118h-461z" />
<glyph unicode="&#x2013;" d="M158 625v118h915v-118h-915z" />
<glyph unicode="&#x2014;" d="M-111 625v118h1452v-118h-1452z" />
<glyph unicode="&#x2018;" horiz-adv-x="425" d="M96 1272q0 107 68 184q34 40 76.5 61t111.5 31v-75q-141 -35 -153 -173q18 3 34 3q41 0 69 -27.5t28 -67.5q0 -41 -30.5 -69.5t-74.5 -28.5q-57 0 -93 45t-36 117z" />
<glyph unicode="&#x2019;" horiz-adv-x="423" d="M74 1102v76q139 30 151 172q-28 -4 -39 -4q-40 0 -66 27.5t-26 68.5t30.5 69.5t74.5 28.5q57 0 93 -46t36 -118q0 -105 -68 -182q-35 -40 -77.5 -60.5t-108.5 -31.5z" />
<glyph unicode="&#x201a;" horiz-adv-x="423" d="M74 -133q139 37 151 174q-28 -4 -39 -4q-40 0 -66 27t-26 69q0 41 30.5 68.5t74.5 27.5q57 0 93 -45.5t36 -117.5q0 -109 -70 -185q-36 -39 -77.5 -59t-106.5 -29v74z" />
<glyph unicode="&#x201c;" horiz-adv-x="794" d="M96 1272q0 107 68 184q34 40 76.5 61t111.5 31v-75q-141 -35 -153 -173q18 3 34 3q41 0 69 -27.5t28 -67.5q0 -41 -30.5 -69.5t-74.5 -28.5q-57 0 -93 45t-36 117zM465 1272q0 106 67 182q36 41 78.5 62.5t110.5 31.5v-75q-142 -35 -154 -173q35 5 37 5q41 0 67.5 -27 t26.5 -70q0 -41 -30 -69.5t-74 -28.5q-57 0 -93 45t-36 117z" />
<glyph unicode="&#x201d;" horiz-adv-x="792" d="M74 1102v76q139 30 151 172q-28 -4 -39 -4q-40 0 -66 27.5t-26 68.5t30.5 69.5t74.5 28.5q57 0 93 -46t36 -118q0 -105 -68 -182q-35 -40 -77.5 -60.5t-108.5 -31.5zM444 1102v76q138 30 150 172q-28 -4 -39 -4q-40 0 -66 27.5t-26 68.5t30 69.5t74 28.5q57 0 93 -46 t36 -118q0 -108 -67 -184q-35 -38 -77 -59t-108 -31z" />
<glyph unicode="&#x201e;" horiz-adv-x="792" d="M74 -133q139 37 151 174q-28 -4 -39 -4q-40 0 -66 27t-26 69q0 41 30.5 68.5t74.5 27.5q57 0 93 -45.5t36 -117.5q0 -109 -70 -185q-36 -39 -77.5 -59t-106.5 -29v74zM444 -133q71 19 107.5 61.5t42.5 112.5q-28 -4 -39 -4q-40 0 -66 27t-26 69q0 41 30 68.5t74 27.5 q58 0 93.5 -44.5t35.5 -118.5q0 -112 -69 -187q-35 -38 -76.5 -57.5t-106.5 -28.5v74z" />
<glyph unicode="&#x2022;" d="M307 711q0 127 89 215t218 88q131 0 219.5 -88.5t88.5 -218.5q0 -131 -89 -219.5t-219 -88.5q-132 0 -219.5 89t-87.5 223z" />
<glyph unicode="&#x2026;" horiz-adv-x="1843" d="M238 94q0 47 31.5 78t78.5 31q50 0 80.5 -30.5t30.5 -80.5q0 -49 -30.5 -79.5t-80.5 -30.5t-80 30.5t-30 81.5zM811 94q0 47 32 78t79 31q49 0 79.5 -30.5t30.5 -80.5t-30 -80t-80 -30t-80.5 30.5t-30.5 81.5zM1384 94q0 47 32 78t79 31q49 0 80 -30.5t31 -80.5 q0 -49 -30.5 -79.5t-80.5 -30.5t-80.5 30.5t-30.5 81.5z" />
<glyph unicode="&#x202f;" horiz-adv-x="392" />
<glyph unicode="&#x2039;" horiz-adv-x="589" d="M104 528v72l273 418h119l-248 -453l248 -452h-119z" />
<glyph unicode="&#x203a;" horiz-adv-x="589" d="M96 113l248 452l-248 453h117l272 -416v-72l-272 -417h-117z" />
<glyph unicode="&#x205f;" horiz-adv-x="490" />
<glyph unicode="&#x20ac;" horiz-adv-x="1150" d="M82 514v107h154v206h-154v107h158q14 118 29.5 181.5t47.5 127.5q135 258 467 258q79 0 137.5 -9.5t149.5 -37.5v-123q-117 36 -170.5 47t-120.5 11q-231 0 -321 -160q-32 -56 -47.5 -118t-24.5 -177h447v-107h-449v-206h449v-107h-443q12 -108 30 -168.5t52 -114.5 q49 -73 125.5 -106t198.5 -33q80 0 133 12t168 56v-123q-154 -57 -312 -57q-302 0 -438 202q-44 66 -66.5 135.5t-39.5 196.5h-160z" />
<glyph unicode="&#x2122;" horiz-adv-x="1030" d="M76 1430l4 59h340v-59h-131v-388h-80v388h-133zM502 1042l10 447h94l125 -293l127 293h94v-447h-80v338l-129 -293h-45l-123 287l-6 -332h-67z" />
<glyph unicode="&#x25fc;" horiz-adv-x="1054" d="M0 0v1055h1055v-1055h-1055z" />
<glyph unicode="&#xfb01;" horiz-adv-x="1138" d="M41 946v107h166v147q0 163 87 257.5t238 94.5h82v-114q-36 8 -73 8q-101 0 -148 -62.5t-47 -197.5v-133h455q97 0 129 18h43v-1071h-139v946h-488v-946h-139v946h-166zM803 1364q0 41 27.5 68.5t70.5 27.5q44 0 71 -27t27 -71q0 -43 -27 -70.5t-71 -27.5t-71 27t-27 73z " />
<glyph unicode="&#xfb02;" horiz-adv-x="1140" d="M41 946v107h166v118q0 189 113.5 285t336.5 96q149 0 316 -34v-1518h-139v1430q-91 16 -185 16q-181 0 -252 -86q-29 -35 -40 -80.5t-11 -126.5v-100h250v-107h-250v-946h-139v946h-166z" />
</font>
</defs>
</svg>
