<?xml version="1.0" standalone="no"?>
<!DOCTYPE svg PUBLIC "-//W3C//DTD SVG 1.1//EN" "http://www.w3.org/Graphics/SVG/1.1/DTD/svg11.dtd" >
<svg xmlns="http://www.w3.org/2000/svg">
<metadata>
This is a custom SVG webfont generated by Font Squirrel.
Copyright   : 2006 by Deutsche Bahn AG
</metadata>
<defs>
<font id="DBOfficeBold" horiz-adv-x="1139" vert-adv-y="2048" >
<font-face units-per-em="2048" ascent="1638" descent="-410" />
<missing-glyph horiz-adv-x="569" />
<glyph horiz-adv-x="0" vert-adv-y="0" />
<glyph horiz-adv-x="569" vert-adv-y="2288" />
<glyph unicode=" " horiz-adv-x="569" vert-adv-y="2288" />
<glyph unicode="!" horiz-adv-x="682" vert-adv-y="2288" d="M234 471l-70 1018h356l-69 -1018h-217zM342 321q80 0 129 -51q46 -49 46 -124t-46 -124q-48 -51 -128 -51q-81 0 -130 51q-46 50 -46 126q0 73 46 122q49 51 129 51z" />
<glyph unicode="&#x22;" horiz-adv-x="971" vert-adv-y="2288" d="M602 928l-41 561h279l-41 -561h-197zM170 928l-41 561h279l-41 -561h-197z" />
<glyph unicode="#" vert-adv-y="2288" d="M144 836v223h184l58 387h176l-58 -387h230l57 387h174l-57 -387h135v-223h-168l-33 -218h154v-229h-186l-58 -389h-176l57 389h-229l-57 -389h-174l57 389h-133v229h166l33 218h-152zM470 836l-31 -218h229l31 218h-229z" />
<glyph unicode="$" vert-adv-y="2288" d="M264 -293l56 279q-110 22 -201 65v252q129 -69 248 -90l84 418q-143 74 -204 131q-126 114 -126 303q0 242 183 348q118 68 321 67l33 158h151l-37 -178q79 -18 158 -47v-250q-111 48 -203 69l-78 -386q143 -69 209 -123q140 -114 140 -320q0 -436 -527 -434l-53 -262 h-154zM518 205q197 21 197 180q0 72 -49 118q-24 23 -76 54zM578 1247q-83 -7 -124 -32q-63 -40 -63 -125q0 -71 42 -116q25 -27 77 -57z" />
<glyph unicode="%" horiz-adv-x="1821" vert-adv-y="2288" d="M123 1071v60q0 157 86 252q87 96 248 96q175 0 262 -113q72 -93 72 -235v-60q0 -158 -87 -252q-87 -96 -247 -96q-175 0 -262 113q-72 94 -72 235zM563 1057v88q0 66 -15 108q-21 62 -91 62t-92 -62q-15 -42 -15 -108v-88q0 -66 15 -108q22 -62 92 -62t91 62 q15 42 15 108zM297 0l1024 1446h201l-1024 -1446h-201zM1028 319v60q0 158 87 252q87 96 247 96q176 0 263 -113q71 -94 71 -235v-60q0 -157 -86 -252q-87 -96 -248 -96q-175 0 -262 113q-72 94 -72 235zM1469 305v88q0 66 -15 108q-22 62 -92 62q-69 0 -91 -62 q-15 -42 -15 -108v-88q0 -66 15 -108q22 -62 91 -62q70 0 92 62q15 42 15 108z" />
<glyph unicode="&#x26;" horiz-adv-x="1479" vert-adv-y="2288" d="M949 78q-158 -109 -369 -109q-236 0 -372 105t-136 349q0 115 37 192q64 137 272 233q-122 158 -122 316q0 168 125 268q114 92 299 92q191 0 311 -97q106 -87 106 -240q0 -154 -119 -262q-65 -58 -188 -118l204 -287l142 328h262l-190 -422q-21 -46 -60 -117 q69 -78 140 -78q40 0 96 19v-248q-76 -31 -157 -31q-169 0 -281 107zM521 668q-47 -34 -69 -68q-36 -54 -36 -158q0 -130 57 -180q52 -47 155 -47q107 0 181 43zM674 950q5 4 12 8q123 81 123 210q0 143 -121 143q-58 0 -90 -36q-32 -37 -32 -103q0 -68 44 -138 q15 -25 36 -51q27 -33 28 -33z" />
<glyph unicode="'" horiz-adv-x="487" vert-adv-y="2288" d="M145 928l-41 561h279l-41 -561h-197z" />
<glyph unicode="(" horiz-adv-x="682" vert-adv-y="2288" d="M641 -332h-260q-124 188 -189 357q-104 268 -104 588q0 364 122 652q62 146 171 312h260q-95 -185 -146 -348q-46 -150 -65 -298q-16 -120 -16 -309q0 -241 31 -405q50 -265 196 -549z" />
<glyph unicode=")" horiz-adv-x="682" vert-adv-y="2288" d="M41 1577h260q124 -189 189 -357q59 -151 83 -300q21 -124 21 -288q0 -364 -122 -652q-61 -145 -171 -312h-260q95 186 146 348q46 150 65 298q16 120 16 308q0 242 -31 406q-51 265 -196 549z" />
<glyph unicode="*" horiz-adv-x="797" vert-adv-y="2288" d="M286 836l76 272l-194 -196l-111 184l258 70l-256 67l111 182l192 -196l-76 270h224l-76 -270l190 196l113 -182l-258 -67l258 -70l-111 -184l-192 196l76 -272h-224z" />
<glyph unicode="+" horiz-adv-x="1196" vert-adv-y="2288" d="M131 572v225h340v372h252v-372h340v-225h-340v-371h-252v371h-340z" />
<glyph unicode="," horiz-adv-x="569" vert-adv-y="2288" d="M299 7q-13 -1 -18 -1q-53 0 -95 18q-78 34 -78 129q0 77 52 124q46 42 115 42q99 0 154 -75q49 -66 49 -169q0 -174 -130 -284q-93 -80 -239 -98v110q160 43 190 204z" />
<glyph unicode="-" horiz-adv-x="682" vert-adv-y="2288" d="M87 571v222h508v-222h-508z" />
<glyph unicode="." horiz-adv-x="569" vert-adv-y="2288" d="M283 321q80 0 129 -51q46 -49 46 -124t-46 -124q-48 -51 -128 -51q-81 0 -130 51q-46 50 -46 126q0 73 46 122q49 51 129 51z" />
<glyph unicode="/" horiz-adv-x="569" vert-adv-y="2288" d="M-72 -332l444 1909h222l-447 -1909h-219z" />
<glyph unicode="0" vert-adv-y="2288" d="M82 555v342q0 229 80 370q122 216 408 216q285 0 407 -216q80 -141 80 -370v-342q0 -229 -80 -370q-121 -216 -407 -216q-287 0 -408 216q-80 141 -80 370zM752 535v383q0 173 -41 258q-39 80 -142 80q-102 0 -141 -80q-41 -85 -41 -258v-383q0 -174 41 -259 q39 -80 142 -80q102 0 141 80q41 85 41 259z" />
<glyph unicode="1" vert-adv-y="2288" d="M209 0v186h246v961l-256 -115v225l379 199h186v-1270h223v-186h-778z" />
<glyph unicode="2" vert-adv-y="2288" d="M113 0v185q268 270 365 390q119 147 160 262q31 87 31 196q0 102 -40 148q-46 54 -156 54q-96 0 -194 -39q-50 -20 -127 -63v245q171 105 372 105q450 0 450 -424q0 -186 -71 -325q-74 -146 -266 -346q-36 -37 -143 -144h506l-23 -244h-864z" />
<glyph unicode="3" vert-adv-y="2288" d="M105 -96v242q215 17 343 54q159 46 215 136q36 57 36 150q0 87 -41 124q-42 37 -132 37q-63 0 -140 -14l-68 -12v219l91 19q134 28 190 75q55 48 55 161q0 75 -36 109q-42 39 -142 39q-140 0 -326 -88v236q185 92 389 92q412 0 412 -349q0 -164 -87 -247 q-47 -45 -143 -88q129 -19 191 -71q94 -77 94 -231q0 -238 -140 -369q-151 -141 -479 -195q-88 -15 -282 -29z" />
<glyph unicode="4" vert-adv-y="2288" d="M66 285v176l534 1069h273l-512 -1032h307v379l283 45v-424h127v-213h-127v-285h-283v285h-602z" />
<glyph unicode="5" vert-adv-y="2288" d="M490 1206l-39 -332q78 21 150 21q181 0 281 -96q103 -100 103 -306q0 -213 -108 -343q-134 -162 -449 -218q-99 -18 -303 -29v240q245 23 361 69q126 49 171 128q27 48 27 141q0 102 -49 144q-57 51 -207 51q-111 0 -237 -29l90 799h708l-22 -240h-477z" />
<glyph unicode="6" vert-adv-y="2288" d="M401 809q126 117 289 117q175 0 269 -106q96 -106 96 -316v-58q0 -233 -143 -363q-124 -114 -327 -114q-225 0 -352 145q-145 166 -145 504v130q0 372 220 578q145 136 364 185q85 20 258 33v-244q-172 -15 -267 -50q-135 -50 -199 -162q-42 -74 -53 -163 q-6 -50 -10 -116zM401 647v-69q0 -200 37 -289q41 -99 145 -99q97 0 135 67q32 56 32 169v74q0 130 -48 173q-37 34 -115 34q-99 0 -186 -60z" />
<glyph unicode="7" vert-adv-y="2288" d="M176 -96l578 1286h-645l20 256h895v-188l-532 -1354h-316z" />
<glyph unicode="8" vert-adv-y="2288" d="M809 793q112 -59 164 -118q84 -97 84 -271q0 -195 -113 -305q-134 -130 -373 -130q-242 0 -378 120q-115 101 -115 284q0 162 104 256q52 48 152 90q-93 54 -139 112q-76 96 -76 254q0 192 118 293q122 105 341 105q230 0 346 -112q92 -89 92 -251q0 -104 -39 -171 q-50 -89 -168 -156zM488 643q-6 -3 -12 -7q-34 -22 -55 -45q-62 -68 -62 -203q0 -100 51 -147q60 -55 163 -55q197 0 197 197q0 77 -28 117q-33 49 -142 96q-41 18 -112 47zM641 864q4 4 8 7q19 17 38 40q50 62 50 176q0 87 -33 128q-43 53 -136 53q-164 0 -164 -159 q0 -88 38 -130q34 -38 118 -79q79 -38 81 -36z" />
<glyph unicode="9" vert-adv-y="2288" d="M166 -92v242q132 9 215 30q237 59 316 241q29 68 40 220q-123 -115 -288 -115q-367 0 -367 456q0 144 36 235q56 142 191 212q105 54 246 54q250 0 376 -181q117 -168 117 -534q0 -271 -70 -427q-125 -283 -478 -384q-121 -34 -334 -49zM737 805v68q0 201 -37 290 q-41 99 -146 99q-99 0 -133 -66q-32 -64 -32 -216q0 -161 48 -204q37 -33 114 -33q102 0 186 62z" />
<glyph unicode=":" horiz-adv-x="682" vert-adv-y="2288" d="M340 321q80 0 129 -51q46 -49 46 -124t-46 -124q-48 -51 -128 -51q-81 0 -130 51q-46 50 -46 126q0 73 46 122q49 51 129 51zM340 981q80 0 129 -51q46 -49 46 -124t-46 -124q-48 -51 -128 -51q-81 0 -130 51q-46 50 -46 126q0 73 46 122q49 51 129 51z" />
<glyph unicode=";" horiz-adv-x="682" vert-adv-y="2288" d="M340 981q80 0 129 -51q46 -49 46 -124q0 -74 -46 -124q-48 -51 -128 -51q-82 0 -130 51q-46 50 -46 126q0 73 46 122q49 51 129 51zM349 7q-13 -1 -18 -1q-53 0 -95 18q-78 34 -78 129q0 77 52 124q46 42 115 42q99 0 154 -75q49 -66 49 -169q0 -174 -130 -284 q-93 -80 -239 -98v110q160 43 190 204z" />
<glyph unicode="&#x3c;" horiz-adv-x="1196" vert-adv-y="2288" d="M1035 227l-894 346v220l894 348v-233l-644 -224l644 -224v-233z" />
<glyph unicode="=" horiz-adv-x="1196" vert-adv-y="2288" d="M131 768v225h932v-225h-932zM131 375v225h932v-225h-932z" />
<glyph unicode="&#x3e;" horiz-adv-x="1196" vert-adv-y="2288" d="M162 227v233l644 224l-644 224v233l894 -346v-220z" />
<glyph unicode="?" horiz-adv-x="1251" vert-adv-y="2288" d="M379 469v133q0 78 41 136q36 54 158 135q101 67 133 106q33 41 33 120q0 78 -36 115q-48 52 -161 52q-175 0 -371 -101v256q196 103 429 103q230 0 356 -102q121 -100 121 -300q0 -143 -72 -230q-59 -71 -220 -174q-103 -66 -132 -95q-27 -29 -27 -74v-80h-252zM503 321 q80 0 129 -51q46 -49 46 -124q0 -74 -46 -124q-48 -51 -128 -51q-82 0 -130 51q-46 50 -46 126q0 73 46 122q49 51 129 51z" />
<glyph unicode="@" horiz-adv-x="1997" vert-adv-y="2288" d="M1079 254q-111 -153 -271 -153q-111 0 -171 73q-61 73 -61 204q0 162 60 336q76 220 286 220q132 0 245 -100l60 98h186l-76 -484q-12 -75 -12 -103q0 -95 84 -95q129 0 203 130q70 123 70 312q0 267 -159 427q-175 176 -474 176q-319 0 -526 -209q-232 -233 -232 -637 q0 -660 668 -660q328 0 624 148v-150q-281 -137 -613 -137q-440 0 -669 252q-188 205 -188 547q0 298 135 532q120 208 324 326q214 123 483 123q266 0 467 -117q157 -92 246 -243q94 -163 94 -377q0 -316 -176 -477q-129 -118 -318 -118q-215 0 -289 156zM1114 721 q-52 39 -102 39q-66 0 -98 -53q-27 -43 -54 -189q-17 -93 -17 -134q0 -105 81 -105q69 0 135 90z" />
<glyph unicode="A" horiz-adv-x="1479" vert-adv-y="2288" d="M979 328h-553l-114 -328h-281l551 1491h321l545 -1491h-356zM902 553l-197 574l-201 -574h398z" />
<glyph unicode="B" horiz-adv-x="1479" vert-adv-y="2288" d="M160 0v1489h633q228 0 348 -69q166 -95 166 -312q0 -166 -104 -248q-50 -40 -144 -73q143 -30 215 -96q103 -96 103 -266q0 -270 -240 -371q-130 -54 -332 -54h-645zM496 893h287q100 0 145 47q39 40 39 127q0 96 -45 137q-41 37 -135 37h-291v-348zM496 246h299 q121 0 180 51q33 29 46 67q12 34 12 94q0 112 -53 157q-54 45 -175 45h-309v-414z" />
<glyph unicode="C" horiz-adv-x="1479" vert-adv-y="2288" d="M1437 209q-182 -240 -580 -240q-379 0 -577 228q-102 118 -141 279q-29 116 -29 273q0 222 60 370q98 240 325 340q148 65 349 65q398 0 579 -256l-214 -180q-39 65 -77 100q-100 91 -269 91q-216 0 -318 -145q-85 -120 -85 -385q0 -296 108 -415q107 -119 312 -119 q163 0 264 81q40 32 80 92z" />
<glyph unicode="D" horiz-adv-x="1479" vert-adv-y="2288" d="M148 0v1489h553q287 0 455 -139q128 -106 181 -286q36 -123 36 -318q0 -254 -71 -411q-151 -335 -611 -335h-543zM486 252h195q188 0 267 113q48 69 66 176q11 70 11 198q0 190 -33 293q-64 201 -311 201h-195v-981z" />
<glyph unicode="E" horiz-adv-x="1366" vert-adv-y="2288" d="M169 0v1489h1055v-266h-719v-340h584v-250h-584v-369h774l-26 -264h-1084z" />
<glyph unicode="F" horiz-adv-x="1251" vert-adv-y="2288" d="M153 0v1489h985v-266h-647v-385h541v-252h-541v-586h-338z" />
<glyph unicode="G" horiz-adv-x="1593" vert-adv-y="2288" d="M1435 69q-258 -100 -534 -100q-310 0 -511 123q-149 91 -224 267q-36 84 -48 197q-8 79 -12 200v0q9 242 59 363q99 240 326 340q148 65 348 65q399 0 579 -256l-213 -180q-39 65 -77 99q-100 91 -269 91q-215 0 -318 -145q-84 -120 -84 -386q0 -183 37 -285 q88 -241 416 -241q108 0 210 24v291h-264v250h579v-717z" />
<glyph unicode="H" horiz-adv-x="1479" vert-adv-y="2288" d="M148 0v1489h338v-596h508v596h338v-1489h-338v633h-508v-633h-338z" />
<glyph unicode="I" horiz-adv-x="569" vert-adv-y="2288" d="M116 0v1489h338v-1489h-338z" />
<glyph unicode="J" vert-adv-y="2288" d="M659 1489h338v-979q0 -221 -104 -356q-143 -187 -460 -187q-172 0 -341 76v254q76 -32 119 -46q89 -28 183 -28q163 0 220 82q45 63 45 191v993z" />
<glyph unicode="K" horiz-adv-x="1479" vert-adv-y="2288" d="M182 0v1489h336v-688l565 688h346l-596 -707l637 -782h-397l-555 682v-682h-336z" />
<glyph unicode="L" horiz-adv-x="1251" vert-adv-y="2288" d="M162 0v1489h338v-1225h688l-24 -264h-1002z" />
<glyph unicode="M" horiz-adv-x="1706" vert-adv-y="2288" d="M132 0l35 1489h381l307 -880l326 880h377v-1489h-322v1030l-330 -876h-182l-301 876l-23 -1030h-268z" />
<glyph unicode="N" horiz-adv-x="1479" vert-adv-y="2288" d="M148 0v1489h287l614 -873v873h283v-1489h-223l-678 973v-973h-283z" />
<glyph unicode="O" horiz-adv-x="1593" vert-adv-y="2288" d="M796 1524q402 0 581 -300q109 -182 109 -477q0 -185 -36 -308q-67 -232 -247 -357q-163 -113 -408 -113q-400 0 -580 300q-68 114 -92 252q-17 95 -17 233q0 322 136 513q184 257 554 257zM796 1278q-207 0 -287 -162q-53 -107 -53 -363q0 -291 66 -400q84 -138 274 -138 q207 0 287 162q53 107 53 370q0 285 -66 394q-84 137 -274 137z" />
<glyph unicode="P" horiz-adv-x="1366" vert-adv-y="2288" d="M145 0v1489h574q162 0 241 -19q326 -79 326 -442q0 -157 -50 -251q-124 -234 -486 -234q-119 0 -267 18v-561h-338zM483 795q94 -16 231 -16q131 0 189 69q43 51 43 172q0 133 -57 179q-52 42 -158 42h-248v-446z" />
<glyph unicode="Q" horiz-adv-x="1593" vert-adv-y="2288" d="M1359 -188v-224q-335 -1 -497 84q-136 70 -185 227q-9 28 -20 81q-214 36 -349 170q-130 129 -177 330q-25 108 -25 267q0 184 36 307q68 232 247 357q163 113 407 113q402 0 581 -300q109 -182 109 -477q0 -233 -64 -388q-107 -259 -361 -348q-32 -11 -70 -20 q12 -62 36 -94q39 -51 121 -67q87 -16 211 -18zM796 1278q-207 0 -287 -162q-53 -107 -53 -363q0 -291 66 -400q84 -138 274 -138q207 0 287 162q53 107 53 370q0 285 -66 394q-84 137 -274 137z" />
<glyph unicode="R" horiz-adv-x="1479" vert-adv-y="2288" d="M169 0v1489h636q248 0 372 -89q151 -109 151 -343q0 -163 -83 -256q-55 -62 -141 -94q-30 -12 -93 -27q105 -41 170 -154l301 -526h-365l-249 435q-53 93 -97 125q-38 28 -112 28h-154v-588h-336zM505 831h256q119 0 174 49q53 48 53 161q0 124 -73 169q-49 31 -156 31 h-254v-410z" />
<glyph unicode="S" horiz-adv-x="1366" vert-adv-y="2288" d="M45 93l100 260q91 -58 157 -85q128 -52 294 -52q174 0 259 58q71 48 71 136q0 78 -68 119q-44 27 -94 44q-65 23 -177 59q-204 65 -296 134q-150 111 -150 311q0 231 175 351q143 97 378 97q323 0 517 -157l-99 -231q-63 51 -110 76q-123 65 -277 65q-124 0 -199 -42 q-76 -41 -76 -133q0 -80 63 -119q58 -36 255 -99q186 -60 257 -97q121 -63 172 -147q52 -86 52 -209q0 -213 -166 -339q-162 -123 -462 -123q-339 0 -576 123z" />
<glyph unicode="T" horiz-adv-x="1251" vert-adv-y="2288" d="M455 0v1223h-420l25 266h1146v-266h-415v-1223h-336z" />
<glyph unicode="U" horiz-adv-x="1479" vert-adv-y="2288" d="M142 1489h338v-963q0 -134 50 -209q66 -100 238 -100q177 0 242 117q39 70 39 194v961h289v-957q0 -204 -82 -336q-140 -227 -508 -227q-606 0 -606 557v963z" />
<glyph unicode="V" horiz-adv-x="1366" vert-adv-y="2288" d="M528 0l-487 1489h350l318 -1051l329 1051h287l-496 -1489h-301z" />
<glyph unicode="W" horiz-adv-x="1933" vert-adv-y="2288" d="M405 0l-348 1489h348l203 -1022l264 1022h248l268 -1022l209 1022h279l-359 -1489h-305l-246 971l-258 -971h-303z" />
<glyph unicode="X" horiz-adv-x="1366" vert-adv-y="2288" d="M33 0l442 774l-405 715h379l264 -506l254 506h311l-391 -719l446 -770h-380l-302 563l-307 -563h-311z" />
<glyph unicode="Y" horiz-adv-x="1366" vert-adv-y="2288" d="M534 0v571l-481 918h362l320 -639l280 639h297l-440 -903v-586h-338z" />
<glyph unicode="Z" horiz-adv-x="1251" vert-adv-y="2288" d="M86 0v227l670 996h-629l18 266h1008v-229l-668 -996h678l-20 -264h-1057z" />
<glyph unicode="[" horiz-adv-x="682" vert-adv-y="2288" d="M158 -332v1909h459v-213h-156v-1483h156v-213h-459z" />
<glyph unicode="\" horiz-adv-x="569" vert-adv-y="2288" d="M641 -332h-220l-446 1909h221z" />
<glyph unicode="]" horiz-adv-x="682" vert-adv-y="2288" d="M525 1577v-1909h-459v213h156v1483h-156v213h459z" />
<glyph unicode="^" horiz-adv-x="1196" vert-adv-y="2288" d="M125 866l344 623h262l338 -623h-248l-221 344l-227 -344h-248z" />
<glyph unicode="_" vert-adv-y="2288" d="M170 -412v187h800v-187h-800z" />
<glyph unicode="`" horiz-adv-x="682" vert-adv-y="2288" d="M483 1216h-225l-197 338h304z" />
<glyph unicode="a" vert-adv-y="2288" d="M698 139q-119 -170 -304 -170q-151 0 -233 95q-69 81 -69 229q0 152 76 234q63 69 182 94q104 22 332 34v50q0 86 -36 126q-40 43 -140 43t-208 -29q-41 -11 -134 -42v241q188 74 379 74q255 0 357 -113q89 -98 89 -296v-426q0 -76 65 -76q15 0 33 4v-195 q-67 -34 -155 -34q-110 0 -172 57q-38 34 -62 100zM682 473q-152 -10 -200 -23q-61 -17 -79 -57q-10 -24 -10 -69q0 -83 29 -114q31 -34 89 -34q86 0 171 84v213z" />
<glyph unicode="b" horiz-adv-x="1251" vert-adv-y="2288" d="M149 0v1482q177 8 239 64h68v-592q59 58 104 88q106 70 230 70q184 0 275 -150q83 -135 83 -418q0 -186 -36 -295q-94 -280 -362 -280q-181 0 -335 135l-35 -104h-231zM456 240q86 -56 184 -56q107 0 154 90q23 43 31 104q6 46 6 147q0 140 -12 196q-18 83 -65 117 q-36 26 -102 26q-64 0 -120 -25q-28 -12 -76 -42v-557z" />
<glyph unicode="c" vert-adv-y="2288" d="M911 350l197 -160q-50 -73 -104 -115q-134 -108 -349 -108q-292 0 -435 169q-69 81 -96 181q-22 84 -22 219q0 174 43 282q118 301 492 301q218 0 356 -111q54 -42 103 -112l-197 -161q-27 48 -53 78q-74 86 -189 86q-142 0 -194 -113q-37 -78 -37 -236q0 -204 47 -276 q57 -87 187 -87q121 0 197 86q27 30 54 77z" />
<glyph unicode="d" horiz-adv-x="1251" vert-adv-y="2288" d="M829 129q-60 -56 -101 -84q-115 -76 -249 -76q-213 0 -310 189q-67 129 -67 383q0 179 32 281q50 159 165 233q88 57 206 57q158 0 289 -105v475q172 8 237 64h70v-1546h-225zM794 817q-91 53 -184 53q-107 0 -153 -84q-38 -69 -38 -265q0 -122 11 -173q17 -87 64 -126 q37 -32 107 -32q97 0 193 66v561z" />
<glyph unicode="e" vert-adv-y="2288" d="M1043 465h-623q4 -83 13 -121q25 -92 101 -120q51 -19 142 -19q102 0 194 25q49 14 132 46v-231q-169 -76 -358 -76q-301 0 -432 156q-62 75 -88 184q-21 93 -21 233q0 152 28 248q55 188 210 272q103 56 254 56q268 0 373 -182q75 -129 75 -365v-106zM740 645 q-1 105 -20 171q-27 89 -129 89q-119 0 -152 -113q-15 -51 -19 -147h320z" />
<glyph unicode="f" horiz-adv-x="682" vert-adv-y="2288" d="M163 868h-106v219h106v49q0 412 383 412h119v-223q-34 6 -63 6q-83 0 -114 -53q-22 -38 -22 -109v-82h173v-219h-173v-868h-303v868z" />
<glyph unicode="g" horiz-adv-x="1251" vert-adv-y="2288" d="M382 397q-36 -42 -36 -83q0 -53 43 -74q27 -13 94 -13h311q194 0 292 -51q130 -68 130 -247q0 -139 -70 -219q-83 -94 -260 -130q-100 -20 -274 -20q-292 0 -429 58q-159 68 -159 212q0 138 188 211q-100 59 -100 165q0 134 150 253q-127 102 -127 283q0 183 122 282 q114 94 347 94q132 0 235 -31h365v-169h-66q-55 0 -94 -12q29 -77 29 -159q0 -208 -147 -308q-95 -65 -252 -76q-30 -2 -67 -3v0q-140 1 -225 37zM369 0q-64 -50 -64 -121q0 -53 47 -80q62 -36 261 -36q176 0 247 29q42 18 59 45q14 23 14 62q0 64 -50 85q-38 16 -117 16 h-397zM604 918q-99 0 -140 -45q-38 -40 -38 -133t38 -134q41 -45 137 -45q102 0 143 45q38 41 38 134t-38 133q-42 45 -140 45z" />
<glyph unicode="h" horiz-adv-x="1251" vert-adv-y="2288" d="M149 0v1482q175 8 239 64h68v-622q174 188 372 188q282 0 282 -353v-759h-307v717q0 141 -135 141q-88 0 -212 -72v-786h-307z" />
<glyph unicode="i" horiz-adv-x="569" vert-adv-y="2288" d="M285 1545q72 0 119 -49q43 -45 43 -113t-43 -113q-47 -49 -119 -49t-119 49q-43 45 -43 115q0 67 43 111q48 49 119 49zM131 0v1044q176 5 237 64h70v-1108h-307z" />
<glyph unicode="j" horiz-adv-x="569" vert-adv-y="2288" d="M-25 -426v225q88 15 124 64q32 45 32 126v1055q176 5 237 64h70v-1104q0 -216 -135 -325q-106 -86 -328 -105zM284 1545q72 0 118 -49q44 -45 44 -113t-44 -113q-46 -49 -118 -49t-119 49q-43 45 -43 115q0 67 43 111q48 49 119 49z" />
<glyph unicode="k" vert-adv-y="2288" d="M150 0v1482q175 8 237 64h70v-924l334 465h321l-335 -416l362 -671h-328l-249 461l-105 -124v-337h-307z" />
<glyph unicode="l" horiz-adv-x="569" vert-adv-y="2288" d="M131 0v1482q175 8 237 64h70v-1546h-307z" />
<glyph unicode="m" horiz-adv-x="1821" vert-adv-y="2288" d="M150 0v1053q173 7 237 65h70v-186q165 180 340 180q113 0 177 -72q35 -40 60 -116q191 188 372 188q163 0 232 -134q42 -80 42 -200v-778h-307v717q0 141 -115 141q-88 0 -191 -66v-792h-307v717q0 141 -112 141q-85 0 -191 -66v-792h-307z" />
<glyph unicode="n" horiz-adv-x="1251" vert-adv-y="2288" d="M149 0v1053q173 7 239 65h68v-194q174 188 371 188q157 0 230 -115q53 -84 53 -219v-778h-307v714q0 144 -136 144q-65 0 -132 -30q-26 -11 -79 -42v-786h-307z" />
<glyph unicode="o" horiz-adv-x="1251" vert-adv-y="2288" d="M625 1118q271 0 408 -171q71 -88 97 -199q19 -78 19 -204q0 -174 -41 -275q-120 -300 -483 -300q-270 0 -407 171q-72 88 -97 198q-19 79 -19 213q0 165 41 267q120 300 482 300zM625 899q-120 0 -171 -101q-35 -70 -35 -249q0 -132 11 -187q37 -174 195 -174 q121 0 171 101q36 71 36 255q0 125 -11 181q-37 174 -196 174z" />
<glyph unicode="p" horiz-adv-x="1251" vert-adv-y="2288" d="M149 -414v1467q176 7 239 65h68v-164q63 63 112 93q102 65 222 65q198 0 290 -176q68 -130 68 -388q0 -178 -32 -284q-90 -295 -366 -295q-164 0 -294 105v-488h-307zM456 240q86 -56 183 -56q104 0 151 80q27 46 36 126q5 49 5 157q0 178 -38 245q-41 72 -140 72 q-70 0 -130 -29q-24 -11 -67 -38v-557z" />
<glyph unicode="q" horiz-adv-x="1251" vert-adv-y="2288" d="M792 -422v520q-151 -129 -319 -129q-200 0 -294 161q-77 134 -77 414q0 164 27 262q86 306 371 306q134 0 244 -69q39 -25 91 -73l41 117h225v-1509h-309zM792 819q-90 51 -180 51q-113 0 -155 -83q-38 -73 -38 -274q0 -189 44 -259q40 -64 137 -64q99 0 192 64v565z" />
<glyph unicode="r" horiz-adv-x="797" vert-adv-y="2288" d="M150 0v1053q173 7 239 65h68v-215q67 93 133 142q73 55 166 67v-285q-153 -8 -299 -67v-760h-307z" />
<glyph unicode="s" vert-adv-y="2288" d="M14 93l100 233q86 -57 141 -82q125 -56 273 -56q234 0 234 125q0 47 -48 67q-37 15 -198 48q-197 40 -276 95q-111 77 -111 236q0 133 75 226q109 133 362 133q268 0 449 -143l-99 -208q-108 80 -180 105q-81 27 -157 27q-68 0 -117 -22q-58 -25 -58 -84q0 -51 52 -74 q47 -20 203 -49q192 -37 272 -91q114 -78 114 -238q0 -178 -136 -275t-370 -97q-295 0 -525 124z" />
<glyph unicode="t" horiz-adv-x="682" vert-adv-y="2288" d="M141 868h-88v219q55 8 79 25q40 27 60 102l31 117h221v-244h176v-219h-176v-522q0 -70 23 -101q25 -33 81 -33q45 0 91 15v-221q-67 -29 -156 -29q-195 0 -278 113q-64 87 -64 261v517z" />
<glyph unicode="u" horiz-adv-x="1251" vert-adv-y="2288" d="M139 1067l309 27v-708q0 -102 40 -136q34 -29 97 -29q93 0 208 70v776l309 27v-1094h-241l-52 162q-171 -193 -368 -193q-171 0 -250 128q-52 84 -52 250v720z" />
<glyph unicode="v" vert-adv-y="2288" d="M449 0l-414 1087h324l235 -690l240 690h270l-405 -1087h-250z" />
<glyph unicode="w" horiz-adv-x="1593" vert-adv-y="2288" d="M360 0l-317 1087h317l168 -645l209 645h195l198 -645l175 645h245l-313 -1087h-225l-197 688l-229 -688h-226z" />
<glyph unicode="x" vert-adv-y="2288" d="M43 0l336 557l-316 530h342l183 -337l184 337h287l-311 -515l348 -572h-342l-215 381l-211 -381h-285z" />
<glyph unicode="y" vert-adv-y="2288" d="M223 -414l226 512l-414 989h324l237 -626l238 626h270l-608 -1501h-273z" />
<glyph unicode="z" horiz-adv-x="1024" vert-adv-y="2288" d="M90 0v182l496 690h-451v215h799v-182l-494 -690h498v-215h-848z" />
<glyph unicode="{" horiz-adv-x="797" vert-adv-y="2288" d="M309 631q114 -39 162 -97q59 -73 59 -211v-210q0 -123 37 -175q39 -57 129 -57h35v-213h-27q-256 0 -367 105q-76 72 -97 193q-11 60 -11 159v198q0 117 -67 160q-37 24 -119 35v225q82 11 119 35q67 44 67 160v182q0 170 38 254q66 143 250 185q82 18 187 18h27v-213 h-35q-99 0 -137 -70q-29 -52 -29 -162v-194q0 -138 -59 -211q-48 -58 -162 -96z" />
<glyph unicode="|" horiz-adv-x="573" vert-adv-y="2288" d="M166 -334v1950h242v-1950h-242z" />
<glyph unicode="}" horiz-adv-x="797" vert-adv-y="2288" d="M488 631q-114 38 -162 96q-59 73 -59 211v194q0 123 -37 175q-39 57 -129 57h-35v213h27q256 0 367 -105q76 -72 97 -194q11 -59 11 -158v-182q0 -116 67 -160q37 -24 119 -35v-225q-82 -11 -119 -35q-67 -43 -67 -160v-198q0 -170 -38 -254q-66 -143 -250 -185 q-82 -18 -187 -18h-27v213h35q99 0 137 70q29 52 29 162v210q0 138 59 211q48 58 162 97z" />
<glyph unicode="~" horiz-adv-x="1196" vert-adv-y="2288" d="M243 515l-110 127q138 188 320 188q64 0 172 -30q95 -27 146 -27q65 0 124 39q23 16 58 44l110 -128q-58 -79 -113 -120q-92 -69 -206 -69q-64 0 -170 30q-96 27 -142 27q-67 0 -120 -32q-25 -14 -69 -49z" />
<glyph unicode="&#xa0;" horiz-adv-x="569" vert-adv-y="2288" />
<glyph unicode="&#xa1;" horiz-adv-x="682" vert-adv-y="2288" d="M451 782l69 -1018h-356l70 1018h217zM339 1284q81 0 130 -51q46 -49 46 -126q0 -72 -46 -122q-48 -51 -129 -51t-129 51q-46 50 -46 124q0 75 46 124q49 51 128 51z" />
<glyph unicode="&#xa2;" vert-adv-y="2288" d="M344 -293l105 293q-146 55 -218 161q-55 80 -75 187q-13 65 -13 175q0 203 42 315q104 278 478 278q82 0 175 -14l67 188h153l-83 -233v-232q-25 10 -65 24l-9 3l-229 -649q96 -1 163 13q69 13 149 46v-223q-153 -72 -314 -72q-36 0 -80 4l-92 -264h-154zM760 878 q-7 1 -37 3q-18 2 -42 2q-182 0 -219 -120q-24 -77 -24 -251q0 -151 37 -215q20 -34 58 -59z" />
<glyph unicode="&#xa3;" vert-adv-y="2288" d="M103 619v215h125v197q0 202 109 321q121 131 357 131q172 0 296 -60v-241q-131 53 -245 53q-127 0 -179 -72q-25 -34 -34 -85q-5 -27 -5 -94v-150h328v-215h-328v-375h500l-25 -244h-897v244h123v375h-125z" />
<glyph unicode="&#xa4;" vert-adv-y="2288" d="M570 994q-112 0 -181 -71q-74 -76 -74 -199q0 -132 74 -208q69 -71 182 -71q112 0 180 71q74 77 74 204q0 128 -74 203q-69 71 -181 71zM131 159l-129 131l129 131q-84 137 -84 299q0 127 46 227q13 30 38 72l-129 130l129 131l125 -126q139 92 313 92q178 0 315 -92 l125 126l129 -131l-129 -131q83 -132 83 -298q0 -164 -83 -299l129 -131l-129 -131l-125 126q-136 -92 -314 -92t-314 92z" />
<glyph unicode="&#xa5;" vert-adv-y="2288" d="M113 598v166h266l-336 682h330l227 -518l225 518h266l-325 -682h264v-166h-305v-133h305v-168h-305v-297h-307v297h-305v168h305v133h-305z" />
<glyph unicode="&#xa6;" horiz-adv-x="573" vert-adv-y="2288" d="M147 883v606h280v-606h-280zM147 0v606h280v-606h-280z" />
<glyph unicode="&#xa7;" vert-adv-y="2288" d="M818 324q98 -101 98 -256q0 -188 -112 -287q-107 -96 -315 -96q-161 0 -315 67v230q167 -76 294 -76q169 0 169 129q0 75 -57 114q-30 21 -180 85q-142 61 -206 122q-81 78 -81 212t86 211q43 39 123 69q-103 100 -103 260q0 166 99 265q111 110 325 110q133 0 277 -49 v-232q-141 54 -257 54q-173 0 -173 -122q0 -61 41 -95q38 -31 144 -73q140 -55 188 -84q97 -57 134 -134q29 -60 29 -138q0 -135 -80 -213q-44 -43 -128 -73zM662 420q94 30 94 125q0 53 -32 84q-39 37 -119 70l-128 53q-98 -30 -98 -123q0 -95 133 -149z" />
<glyph unicode="&#xa8;" horiz-adv-x="682" vert-adv-y="2288" d="M124 1538q69 0 114 -47q42 -43 42 -108q0 -66 -42 -109q-45 -47 -116 -47q-67 0 -111 47q-42 43 -42 109t42 108q46 47 113 47zM556 1538q69 0 114 -47q42 -43 42 -108q0 -66 -42 -109q-44 -47 -116 -47q-66 0 -111 47q-42 43 -42 109t42 108q46 47 113 47z" />
<glyph unicode="&#xa9;" horiz-adv-x="1509" vert-adv-y="2288" d="M974 438q-75 -36 -182 -36q-185 0 -271 112q-63 83 -63 229q0 179 101 271q89 80 238 80q89 0 173 -29v-151q-71 28 -145 28q-91 0 -125 -50q-27 -41 -27 -146q0 -113 38 -154q35 -38 115 -38q65 0 148 30v-146zM755 1393q274 0 461 -187q188 -188 188 -461 q0 -272 -188 -459q-186 -186 -467 -186q-174 0 -323 85q-146 85 -230 232q-86 150 -86 328q0 273 187 462q92 93 220 143q112 43 238 43zM756 1303q-226 0 -376 -150q-161 -161 -161 -408q0 -242 157 -402q151 -153 375 -153q234 0 386 153q158 159 158 402q0 242 -158 404 q-150 154 -381 154z" />
<glyph unicode="&#xaa;" horiz-adv-x="758" vert-adv-y="2288" d="M467 780q-80 -129 -214 -129q-109 0 -166 76q-44 58 -44 159q0 110 55 162q60 58 216 78q39 5 143 13v45q0 60 -23 87q-25 30 -94 30q-95 0 -242 -50v177q138 55 267 55q184 0 254 -90q55 -70 55 -205v-332q0 -70 7 -99q7 -25 26 -40v-41h-209zM457 1020q-93 -3 -133 -14 q-43 -11 -58 -35q-12 -19 -12 -64q0 -52 16 -73q18 -23 61 -23q66 0 126 62v147z" />
<glyph unicode="&#xab;" vert-adv-y="2288" d="M843 94l-317 373v135l317 375h209l-264 -442l264 -441h-209zM409 94l-315 373v135l315 375h209l-260 -442l260 -441h-209z" />
<glyph unicode="&#xac;" horiz-adv-x="1196" vert-adv-y="2288" d="M959 201h-252v371h-530v225h782v-596z" />
<glyph unicode="&#xad;" horiz-adv-x="682" vert-adv-y="2288" d="M87 571v222h508v-222h-508z" />
<glyph unicode="&#xae;" horiz-adv-x="1509" vert-adv-y="2288" d="M499 440v627h278q96 0 153 -32q81 -46 81 -149q0 -122 -125 -161q35 -16 68 -76l112 -209h-186l-93 179q-15 28 -28 40q-17 15 -45 15h-39v-234h-176zM675 786h90q76 0 76 74q0 76 -74 76h-92v-150zM755 1393q274 0 461 -187q188 -188 188 -461q0 -272 -188 -459 q-186 -186 -467 -186q-174 0 -323 85q-146 85 -230 232q-86 150 -86 328q0 273 187 462q92 93 220 143q112 43 238 43zM756 1303q-226 0 -376 -150q-161 -161 -161 -408q0 -242 157 -402q151 -153 375 -153q234 0 386 153q158 159 158 402q0 242 -158 404q-150 154 -381 154 z" />
<glyph unicode="&#xaf;" horiz-adv-x="682" vert-adv-y="2288" d="M50 1276v208h582v-208h-582z" />
<glyph unicode="&#xb0;" horiz-adv-x="819" vert-adv-y="2288" d="M409 1483q149 0 249 -101q94 -96 94 -234t-94 -234q-99 -101 -248 -101q-151 0 -250 101q-94 96 -94 238q0 137 94 230q102 101 249 101zM409 1328q-75 0 -124 -53q-46 -51 -46 -125q0 -78 46 -129q48 -53 124 -53t124 53q46 51 46 127q0 77 -46 127q-49 53 -124 53z" />
<glyph unicode="&#xb1;" horiz-adv-x="1124" vert-adv-y="2288" d="M95 604v225h340v340h252v-340h340v-225h-340v-301h-252v301h-340zM95 0v225h932v-225h-932z" />
<glyph unicode="&#xb2;" horiz-adv-x="682" vert-adv-y="2288" d="M27 720v130l26 17q201 139 267 199q100 92 100 162q0 86 -128 86q-100 0 -244 -62v169q135 58 285 58q308 0 308 -232q0 -122 -86 -210q-62 -64 -187 -154h286l-20 -163h-607z" />
<glyph unicode="&#xb3;" horiz-adv-x="682" vert-adv-y="2288" d="M13 662v157q411 28 411 149q0 69 -109 69q-41 0 -150 -16v131q124 19 162 35q66 27 66 72q0 65 -103 65q-91 0 -245 -59v162q154 52 289 52q128 0 203 -45q74 -44 74 -152q0 -72 -36 -112q-15 -17 -46 -35q54 -19 80 -45q40 -40 40 -113q0 -148 -123 -214 q-126 -68 -344 -89q-42 -5 -169 -12z" />
<glyph unicode="&#xb4;" horiz-adv-x="682" vert-adv-y="2288" d="M197 1216l118 338h304l-197 -338h-225z" />
<glyph unicode="&#xb5;" horiz-adv-x="1180" vert-adv-y="2288" d="M1064 0h-239l-45 139q-62 -65 -119 -101q-90 -58 -196 -58q-12 0 -40 1v-377h-307v1467l307 30v-689q0 -95 20 -131q30 -52 108 -52q89 0 204 78v764l307 30v-1101z" />
<glyph unicode="&#xb6;" vert-adv-y="2288" d="M731 -217v1493h-166v-623h-43q-436 0 -436 419q0 149 54 236q113 181 400 181h451v-1706h-260z" />
<glyph unicode="&#xb7;" horiz-adv-x="569" vert-adv-y="2288" d="M283 860q80 0 129 -51q46 -49 46 -124t-46 -124q-49 -51 -128 -51q-81 0 -130 51q-46 49 -46 126q0 74 46 122q50 51 129 51z" />
<glyph unicode="&#xb8;" horiz-adv-x="682" vert-adv-y="2288" d="M97 -347l161 347h222l-82 -347h-301z" />
<glyph unicode="&#xb9;" horiz-adv-x="682" vert-adv-y="2288" d="M76 720v136h176v421l-185 -59v157l273 101h139v-620h165v-136h-568z" />
<glyph unicode="&#xba;" horiz-adv-x="748" vert-adv-y="2288" d="M376 1483q183 0 276 -131q71 -100 71 -283q0 -202 -86 -304q-94 -111 -261 -111q-183 0 -276 131q-43 60 -59 139q-12 57 -12 150q0 196 86 298q93 111 261 111zM376 1321q-73 0 -99 -57q-23 -50 -23 -193q0 -157 27 -205q27 -50 95 -50q72 0 99 57q23 50 23 196 q0 154 -27 202q-27 50 -95 50z" />
<glyph unicode="&#xbb;" vert-adv-y="2288" d="M518 94l262 441l-262 442h211l315 -373v-135l-315 -375h-211zM86 94l264 441l-264 442h209l315 -373v-135l-315 -375h-209z" />
<glyph unicode="&#xbc;" horiz-adv-x="1708" vert-adv-y="2288" d="M212 0l1069 1447h236l-1069 -1447h-236zM107 720v136h176v421l-185 -59v157l273 101h139v-620h165v-136h-568zM912 136v123l380 534h223l-366 -517h191v197l190 23v-220h88v-140h-88v-136h-190v136h-428z" />
<glyph unicode="&#xbd;" horiz-adv-x="1708" vert-adv-y="2288" d="M88 720v136h176v421l-185 -59v157l273 101h139v-620h165v-136h-568zM1016 0v130l26 17q201 138 267 200q100 91 100 161q0 86 -128 86q-101 0 -244 -62v169q134 58 285 58q308 0 308 -232q0 -122 -86 -210q-61 -63 -187 -154h286l-20 -163h-607zM197 0l1069 1447h236 l-1069 -1447h-236z" />
<glyph unicode="&#xbe;" horiz-adv-x="1708" vert-adv-y="2288" d="M228 0l1068 1447h237l-1069 -1447h-236zM917 136v123l381 534h223l-366 -517h191v197l190 23v-220h87v-140h-87v-136h-190v136h-429zM91 662v157q411 28 411 149q0 69 -109 69q-41 0 -150 -16v131q124 19 162 35q66 27 66 72q0 65 -103 65q-91 0 -245 -59v162 q154 52 289 52q128 0 203 -45q74 -44 74 -152q0 -72 -36 -112q-15 -17 -46 -35q54 -19 80 -45q40 -40 40 -113q0 -148 -123 -214q-126 -68 -344 -89q-42 -5 -169 -12z" />
<glyph unicode="&#xbf;" horiz-adv-x="1251" vert-adv-y="2288" d="M872 784v-133q0 -77 -40 -136q-38 -54 -159 -135q-99 -66 -132 -106t-33 -120q0 -77 36 -115q48 -51 161 -51q175 0 370 100v-256q-195 -102 -428 -102q-230 0 -356 102q-121 99 -121 299q0 144 72 231q59 71 220 173q103 66 132 95q27 29 27 74v80h251zM745 1284 q81 0 130 -51q46 -49 46 -126q0 -73 -46 -122q-48 -51 -129 -51q-80 0 -129 51q-46 50 -46 124q0 75 46 124q49 51 128 51z" />
<glyph unicode="&#xc0;" horiz-adv-x="1479" vert-adv-y="2288" d="M979 328h-553l-114 -328h-281l551 1491h321l545 -1491h-356zM902 553l-197 574l-201 -574h398zM860 1605h-225l-191 313h304z" />
<glyph unicode="&#xc1;" horiz-adv-x="1479" vert-adv-y="2288" d="M979 328h-553l-114 -328h-281l551 1491h321l545 -1491h-356zM902 553l-197 574l-201 -574h398zM645 1605l112 313h304l-191 -313h-225z" />
<glyph unicode="&#xc2;" horiz-adv-x="1479" vert-adv-y="2288" d="M979 328h-553l-114 -328h-281l551 1491h321l545 -1491h-356zM902 553l-197 574l-201 -574h398zM389 1605l225 313h252l225 -313h-203l-148 143l-149 -143h-202z" />
<glyph unicode="&#xc3;" horiz-adv-x="1479" vert-adv-y="2288" d="M979 328h-553l-114 -328h-281l551 1491h321l545 -1491h-356zM902 553l-197 574l-201 -574h398zM478 1610l-101 111q103 165 244 165q50 0 131 -27q70 -23 110 -23q65 0 129 68l101 -112q-104 -166 -243 -166q-51 0 -131 26q-70 24 -111 24q-67 0 -129 -66z" />
<glyph unicode="&#xc4;" horiz-adv-x="1479" vert-adv-y="2288" d="M979 328h-553l-114 -328h-281l551 1491h321l545 -1491h-356zM902 553l-197 574l-201 -574h398zM523 1911q69 0 114 -47q42 -43 42 -108q0 -66 -42 -109q-45 -47 -116 -47q-66 0 -111 47q-42 43 -42 109t42 108q46 47 113 47zM955 1911q69 0 114 -47q42 -43 42 -108 q0 -66 -42 -109q-44 -47 -116 -47q-66 0 -111 47q-42 43 -42 109t42 108q46 47 113 47z" />
<glyph unicode="&#xc5;" horiz-adv-x="1479" vert-adv-y="2288" d="M979 328h-553l-114 -328h-281l551 1491h321l545 -1491h-356zM902 553l-197 574l-201 -574h398zM739 2023q111 0 179 -69q62 -63 62 -157t-62 -157q-68 -69 -178 -69q-112 0 -180 69q-62 63 -62 160q0 93 62 154q70 69 179 69zM739 1909q-54 0 -83 -38q-22 -29 -22 -73 q0 -46 22 -75q29 -38 83 -38t83 38q22 28 22 74q0 47 -22 74q-30 38 -83 38z" />
<glyph unicode="&#xc6;" horiz-adv-x="2048" vert-adv-y="2288" d="M930 328h-455l-162 -328h-315l778 1489h1127v-266h-635v-338h502v-252h-502v-369h690l-25 -264h-1003v328zM930 553v700l-345 -700h345z" />
<glyph unicode="&#xc7;" horiz-adv-x="1479" vert-adv-y="2288" d="M1437 209q-101 -133 -266 -192q-103 -36 -247 -46l-75 -318h-301l152 327q-267 42 -420 218q-102 117 -141 278q-29 116 -29 273q0 222 60 370q98 240 325 340q148 65 349 65q398 0 579 -256l-214 -180q-39 65 -77 100q-100 91 -269 91q-216 0 -318 -145 q-85 -120 -85 -385q0 -296 108 -415q107 -119 312 -119q163 0 264 81q40 32 80 92z" />
<glyph unicode="&#xc8;" horiz-adv-x="1366" vert-adv-y="2288" d="M169 0v1489h1055v-266h-719v-340h584v-250h-584v-369h774l-26 -264h-1084zM858 1605h-225l-191 313h304z" />
<glyph unicode="&#xc9;" horiz-adv-x="1366" vert-adv-y="2288" d="M169 0v1489h1055v-266h-719v-340h584v-250h-584v-369h774l-26 -264h-1084zM581 1605l112 313h304l-191 -313h-225z" />
<glyph unicode="&#xca;" horiz-adv-x="1366" vert-adv-y="2288" d="M169 0v1489h1055v-266h-719v-340h584v-250h-584v-369h774l-26 -264h-1084zM351 1605l225 313h252l225 -313h-203l-148 143l-149 -143h-202z" />
<glyph unicode="&#xcb;" horiz-adv-x="1366" vert-adv-y="2288" d="M169 0v1489h1055v-266h-719v-340h584v-250h-584v-369h774l-26 -264h-1084zM497 1911q69 0 114 -47q42 -43 42 -108q0 -66 -42 -109q-45 -47 -116 -47q-66 0 -111 47q-42 43 -42 109t42 108q46 47 113 47zM929 1911q69 0 114 -47q42 -43 42 -108q0 -66 -42 -109 q-44 -47 -116 -47q-66 0 -111 47q-42 43 -42 109t42 108q46 47 113 47z" />
<glyph unicode="&#xcc;" horiz-adv-x="569" vert-adv-y="2288" d="M116 0v1489h338v-1489h-338zM405 1605h-225l-191 313h304z" />
<glyph unicode="&#xcd;" horiz-adv-x="569" vert-adv-y="2288" d="M116 0v1489h338v-1489h-338zM177 1605l112 313h304l-191 -313h-225z" />
<glyph unicode="&#xce;" horiz-adv-x="569" vert-adv-y="2288" d="M116 0v1489h338v-1489h-338zM-66 1605l225 313h252l225 -313h-203l-148 143l-149 -143h-202z" />
<glyph unicode="&#xcf;" horiz-adv-x="569" vert-adv-y="2288" d="M115 0v1489h338v-1489h-338zM68 1911q69 0 114 -47q42 -43 42 -108q0 -66 -42 -109q-45 -47 -116 -47q-66 0 -111 47q-42 43 -42 109t42 108q46 47 113 47zM500 1911q69 0 114 -47q42 -43 42 -108q0 -66 -42 -109q-44 -47 -116 -47q-66 0 -111 47q-42 43 -42 109t42 108 q46 47 113 47z" />
<glyph unicode="&#xd0;" horiz-adv-x="1479" vert-adv-y="2288" d="M148 633h-109v252h109v604h553q286 0 454 -139q128 -106 181 -285q36 -123 36 -319q0 -254 -71 -411q-151 -335 -611 -335h-542v633zM486 633v-381h194q188 0 267 113q48 69 66 176q11 70 11 198q0 190 -33 293q-64 201 -311 201h-194v-348h288v-252h-288z" />
<glyph unicode="&#xd1;" horiz-adv-x="1479" vert-adv-y="2288" d="M148 0v1489h287l614 -873v873h283v-1489h-223l-678 973v-973h-283zM513 1610l-101 111q103 165 244 165q50 0 131 -27q70 -23 110 -23q65 0 129 68l101 -112q-104 -166 -243 -166q-51 0 -131 26q-70 24 -111 24q-67 0 -129 -66z" />
<glyph unicode="&#xd2;" horiz-adv-x="1593" vert-adv-y="2288" d="M796 1524q402 0 581 -300q109 -182 109 -477q0 -185 -36 -308q-67 -232 -247 -357q-163 -113 -408 -113q-400 0 -580 300q-68 114 -92 252q-17 95 -17 233q0 322 136 513q184 257 554 257zM796 1278q-207 0 -287 -162q-53 -107 -53 -363q0 -291 66 -400q84 -138 274 -138 q207 0 287 162q53 107 53 370q0 285 -66 394q-84 137 -274 137zM941 1605h-225l-191 313h304z" />
<glyph unicode="&#xd3;" horiz-adv-x="1593" vert-adv-y="2288" d="M796 1524q402 0 581 -300q109 -182 109 -477q0 -185 -36 -308q-67 -232 -247 -357q-163 -113 -408 -113q-400 0 -580 300q-68 114 -92 252q-17 95 -17 233q0 322 136 513q184 257 554 257zM796 1278q-207 0 -287 -162q-53 -107 -53 -363q0 -291 66 -400q84 -138 274 -138 q207 0 287 162q53 107 53 370q0 285 -66 394q-84 137 -274 137zM682 1605l112 313h304l-191 -313h-225z" />
<glyph unicode="&#xd4;" horiz-adv-x="1593" vert-adv-y="2288" d="M796 1524q402 0 581 -300q109 -182 109 -477q0 -185 -36 -308q-67 -232 -247 -357q-163 -113 -408 -113q-400 0 -580 300q-68 114 -92 252q-17 95 -17 233q0 322 136 513q184 257 554 257zM796 1278q-207 0 -287 -162q-53 -107 -53 -363q0 -291 66 -400q84 -138 274 -138 q207 0 287 162q53 107 53 370q0 285 -66 394q-84 137 -274 137zM446 1605l225 313h252l225 -313h-203l-148 143l-149 -143h-202z" />
<glyph unicode="&#xd5;" horiz-adv-x="1593" vert-adv-y="2288" d="M796 1524q402 0 581 -300q109 -182 109 -477q0 -185 -36 -308q-67 -232 -247 -357q-163 -113 -408 -113q-400 0 -580 300q-68 114 -92 252q-17 95 -17 233q0 322 136 513q184 257 554 257zM796 1278q-207 0 -287 -162q-53 -107 -53 -363q0 -291 66 -400q84 -138 274 -138 q207 0 287 162q53 107 53 370q0 285 -66 394q-84 137 -274 137zM539 1610l-101 111q103 165 244 165q50 0 131 -27q70 -23 110 -23q65 0 129 68l101 -112q-104 -166 -243 -166q-51 0 -131 26q-70 24 -111 24q-67 0 -129 -66z" />
<glyph unicode="&#xd6;" horiz-adv-x="1593" vert-adv-y="2288" d="M796 1524q402 0 581 -300q109 -182 109 -477q0 -185 -36 -308q-67 -232 -247 -357q-163 -113 -408 -113q-400 0 -580 300q-68 114 -92 252q-17 95 -17 233q0 322 136 513q184 257 554 257zM796 1278q-207 0 -287 -162q-53 -107 -53 -363q0 -291 66 -400q84 -138 274 -138 q207 0 287 162q53 107 53 370q0 285 -66 394q-84 137 -274 137zM580 1911q69 0 114 -47q42 -43 42 -108q0 -66 -42 -109q-45 -47 -116 -47q-66 0 -111 47q-42 43 -42 109t42 108q46 47 113 47zM1012 1911q69 0 114 -47q42 -43 42 -108q0 -66 -42 -109q-44 -47 -116 -47 q-66 0 -111 47q-42 43 -42 109t42 108q46 47 113 47z" />
<glyph unicode="&#xd7;" horiz-adv-x="1196" vert-adv-y="2288" d="M146 977l159 159l292 -292l292 292l159 -159l-292 -292l292 -292l-159 -159l-292 292l-292 -292l-159 159l292 292z" />
<glyph unicode="&#xd8;" horiz-adv-x="1593" vert-adv-y="2288" d="M271 191q-63 76 -101 168q-64 157 -64 387q0 185 36 308q68 233 248 358q161 112 403 112q233 0 394 -102l100 134h233l-193 -259q60 -76 96 -163q64 -156 64 -387q0 -185 -36 -308q-68 -233 -248 -357q-162 -113 -402 -113q-229 0 -388 97l-117 -158h-236zM478 470 l544 731q-84 78 -223 78q-210 0 -290 -162q-53 -108 -53 -378q0 -154 22 -269zM1116 1013l-539 -727q79 -71 220 -71q207 0 287 162q53 107 53 371q0 164 -21 265z" />
<glyph unicode="&#xd9;" horiz-adv-x="1479" vert-adv-y="2288" d="M142 1489h338v-963q0 -134 50 -209q66 -100 238 -100q177 0 242 117q39 70 39 194v961h289v-957q0 -204 -82 -336q-140 -227 -508 -227q-606 0 -606 557v963zM897 1605h-225l-191 313h304z" />
<glyph unicode="&#xda;" horiz-adv-x="1479" vert-adv-y="2288" d="M142 1489h338v-963q0 -134 50 -209q66 -100 238 -100q177 0 242 117q39 70 39 194v961h289v-957q0 -204 -82 -336q-140 -227 -508 -227q-606 0 -606 557v963zM656 1605l112 313h304l-191 -313h-225z" />
<glyph unicode="&#xdb;" horiz-adv-x="1479" vert-adv-y="2288" d="M142 1489h338v-963q0 -134 50 -209q66 -100 238 -100q177 0 242 117q39 70 39 194v961h289v-957q0 -204 -82 -336q-140 -227 -508 -227q-606 0 -606 557v963zM413 1605l225 313h252l225 -313h-203l-148 143l-149 -143h-202z" />
<glyph unicode="&#xdc;" horiz-adv-x="1479" vert-adv-y="2288" d="M142 1489h338v-963q0 -134 50 -209q66 -100 238 -100q177 0 242 117q39 70 39 194v961h289v-957q0 -204 -82 -336q-140 -227 -508 -227q-606 0 -606 557v963zM548 1911q69 0 114 -47q42 -43 42 -108q0 -66 -42 -109q-45 -47 -116 -47q-66 0 -111 47q-42 43 -42 109 t42 108q46 47 113 47zM980 1911q69 0 114 -47q42 -43 42 -108q0 -66 -42 -109q-44 -47 -116 -47q-66 0 -111 47q-42 43 -42 109t42 108q46 47 113 47z" />
<glyph unicode="&#xdd;" horiz-adv-x="1366" vert-adv-y="2288" d="M534 0v571l-481 918h362l320 -639l280 639h297l-440 -903v-586h-338zM598 1605l112 313h304l-191 -313h-225z" />
<glyph unicode="&#xde;" horiz-adv-x="1366" vert-adv-y="2288" d="M145 0v1489h338v-258h265q226 0 349 -79q179 -117 179 -375q0 -223 -134 -343q-134 -119 -387 -119q-175 0 -272 15v-330h-338zM483 559q113 -13 238 -13q129 0 183 64q44 51 44 161q0 116 -51 162t-160 46h-254v-420z" />
<glyph unicode="&#xdf;" horiz-adv-x="1251" vert-adv-y="2288" d="M106 0v1023q0 148 32 231q60 157 210 232q119 60 289 60q183 0 301 -67q149 -84 149 -246q0 -87 -52 -166q-32 -49 -111 -133q-58 -63 -73 -86q-18 -29 -18 -51q0 -45 55 -86q28 -21 97 -64q100 -61 141 -114q66 -86 66 -211q0 -167 -110 -257q-100 -83 -285 -83 q-146 0 -236 32v222q96 -37 195 -37q145 0 145 105q0 53 -40 89q-26 24 -96 65q-99 58 -137 99q-67 72 -67 175q0 81 40 150q26 44 89 124q61 78 78 111q22 42 22 81q0 60 -42 96q-45 37 -122 37q-114 0 -169 -78q-44 -63 -44 -174v-1079h-307z" />
<glyph unicode="&#xe0;" vert-adv-y="2288" d="M698 139q-119 -170 -304 -170q-151 0 -233 95q-69 81 -69 229q0 152 76 234q63 69 182 94q104 22 332 34v50q0 86 -36 126q-40 43 -140 43t-208 -29q-41 -11 -134 -42v241q188 74 379 74q255 0 357 -113q89 -98 89 -296v-426q0 -76 65 -76q15 0 33 4v-195 q-67 -34 -155 -34q-110 0 -172 57q-38 34 -62 100zM682 473q-152 -10 -200 -23q-61 -17 -79 -57q-10 -24 -10 -69q0 -83 29 -114q31 -34 89 -34q86 0 171 84v213zM712 1216h-225l-197 338h304z" />
<glyph unicode="&#xe1;" vert-adv-y="2288" d="M698 139q-119 -170 -304 -170q-151 0 -233 95q-69 81 -69 229q0 152 76 234q63 69 182 94q104 22 332 34v50q0 86 -36 126q-40 43 -140 43t-208 -29q-41 -11 -134 -42v241q188 74 379 74q255 0 357 -113q89 -98 89 -296v-426q0 -76 65 -76q15 0 33 4v-195 q-67 -34 -155 -34q-110 0 -172 57q-38 34 -62 100zM682 473q-152 -10 -200 -23q-61 -17 -79 -57q-10 -24 -10 -69q0 -83 29 -114q31 -34 89 -34q86 0 171 84v213zM443 1216l118 338h304l-197 -338h-225z" />
<glyph unicode="&#xe2;" vert-adv-y="2288" d="M698 139q-119 -170 -304 -170q-151 0 -233 95q-69 81 -69 229q0 152 76 234q63 69 182 94q104 22 332 34v50q0 86 -36 126q-40 43 -140 43t-208 -29q-41 -11 -134 -42v241q188 74 379 74q255 0 357 -113q89 -98 89 -296v-426q0 -76 65 -76q15 0 33 4v-195 q-67 -34 -155 -34q-110 0 -172 57q-38 34 -62 100zM682 473q-152 -10 -200 -23q-61 -17 -79 -57q-10 -24 -10 -69q0 -83 29 -114q31 -34 89 -34q86 0 171 84v213zM194 1222l225 325h252l225 -325h-203l-148 155l-149 -155h-202z" />
<glyph unicode="&#xe3;" vert-adv-y="2288" d="M698 139q-119 -170 -304 -170q-151 0 -233 95q-69 81 -69 229q0 152 76 234q63 69 182 94q104 22 332 34v50q0 86 -36 126q-40 43 -140 43t-208 -29q-41 -11 -134 -42v241q188 74 379 74q255 0 357 -113q89 -98 89 -296v-426q0 -76 65 -76q15 0 33 4v-195 q-67 -34 -155 -34q-110 0 -172 57q-38 34 -62 100zM682 473q-152 -10 -200 -23q-61 -17 -79 -57q-10 -24 -10 -69q0 -83 29 -114q31 -34 89 -34q86 0 171 84v213zM300 1232l-101 112q103 165 244 165q50 0 131 -27q70 -23 110 -23q65 0 129 68l101 -112q-103 -166 -243 -166 q-50 0 -131 26q-71 24 -111 24q-66 0 -129 -67z" />
<glyph unicode="&#xe4;" vert-adv-y="2288" d="M698 139q-119 -170 -304 -170q-151 0 -233 95q-69 81 -69 229q0 152 76 234q63 69 182 94q104 22 332 34v50q0 86 -36 126q-40 43 -140 43t-208 -29q-41 -11 -134 -42v241q188 74 379 74q255 0 357 -113q89 -98 89 -296v-426q0 -76 65 -76q15 0 33 4v-195 q-67 -34 -155 -34q-110 0 -172 57q-38 34 -62 100zM682 473q-152 -10 -200 -23q-61 -17 -79 -57q-10 -24 -10 -69q0 -83 29 -114q31 -34 89 -34q86 0 171 84v213zM352 1538q69 0 114 -47q42 -43 42 -108q0 -66 -42 -109q-45 -47 -116 -47q-67 0 -111 47q-42 43 -42 109 t42 108q46 47 113 47zM784 1538q69 0 114 -47q42 -43 42 -108q0 -66 -42 -109q-44 -47 -116 -47q-66 0 -111 47q-42 43 -42 109t42 108q46 47 113 47z" />
<glyph unicode="&#xe5;" vert-adv-y="2288" d="M698 139q-119 -170 -304 -170q-151 0 -233 95q-69 81 -69 229q0 152 76 234q63 69 182 94q104 22 332 34v50q0 86 -36 126q-40 43 -140 43t-208 -29q-41 -11 -134 -42v241q188 74 379 74q255 0 357 -113q89 -98 89 -296v-426q0 -76 65 -76q15 0 33 4v-195 q-67 -34 -155 -34q-110 0 -172 57q-38 34 -62 100zM682 473q-152 -10 -200 -23q-61 -17 -79 -57q-10 -24 -10 -69q0 -83 29 -114q31 -34 89 -34q86 0 171 84v213zM587 1663q111 0 179 -69q62 -63 62 -157t-62 -157q-68 -69 -178 -69q-112 0 -180 69q-62 63 -62 160 q0 93 62 154q70 69 179 69zM587 1549q-54 0 -83 -38q-22 -29 -22 -73q0 -46 22 -75q29 -38 83 -38t83 38q22 28 22 74q0 47 -22 74q-30 38 -83 38z" />
<glyph unicode="&#xe6;" horiz-adv-x="1821" vert-adv-y="2288" d="M1724 465h-684q8 -134 45 -184q56 -74 213 -74q162 0 367 72v-234q-195 -76 -394 -76q-204 0 -329 73q-69 40 -125 116q-88 -96 -176 -139q-101 -50 -221 -50q-154 0 -245 90q-83 83 -83 225q0 146 75 228q79 87 241 117q91 17 321 27v49q0 89 -46 130q-45 40 -149 40 q-153 0 -360 -82v242q188 84 399 84q162 0 252 -52q53 -31 95 -92q122 144 332 144q252 0 372 -163q100 -136 100 -384v-107zM729 473q-151 -6 -213 -18q-74 -13 -102 -53q-21 -30 -21 -89q0 -71 30 -102q34 -35 105 -35q101 0 201 88v209zM1411 666q-5 102 -28 153 q-36 83 -143 83q-122 0 -170 -104q-21 -48 -30 -132h371z" />
<glyph unicode="&#xe7;" vert-adv-y="2288" d="M911 350l197 -160q-139 -199 -382 -220l-76 -317h-301l153 328q-181 37 -282 155q-69 82 -96 182q-22 83 -22 218q0 174 42 282q119 301 493 301q304 0 459 -223l-197 -161q-27 48 -53 78q-74 86 -189 86q-142 0 -194 -113q-37 -78 -37 -236q0 -204 47 -276 q57 -87 187 -87q121 0 197 86q26 30 54 77z" />
<glyph unicode="&#xe8;" vert-adv-y="2288" d="M1043 465h-623q4 -83 13 -121q25 -92 101 -120q51 -19 142 -19q102 0 194 25q49 14 132 46v-231q-169 -76 -358 -76q-301 0 -432 156q-62 75 -88 184q-21 93 -21 233q0 152 28 248q55 188 210 272q103 56 254 56q268 0 373 -182q75 -129 75 -365v-106zM740 645 q-1 105 -20 171q-27 89 -129 89q-119 0 -152 -113q-15 -51 -19 -147h320zM736 1216h-225l-197 338h304z" />
<glyph unicode="&#xe9;" vert-adv-y="2288" d="M1043 465h-623q4 -83 13 -121q25 -92 101 -120q51 -19 142 -19q102 0 194 25q49 14 132 46v-231q-169 -76 -358 -76q-301 0 -432 156q-62 75 -88 184q-21 93 -21 233q0 152 28 248q55 188 210 272q103 56 254 56q268 0 373 -182q75 -129 75 -365v-106zM740 645 q-1 105 -20 171q-27 89 -129 89q-119 0 -152 -113q-15 -51 -19 -147h320zM474 1216l118 338h304l-197 -338h-225z" />
<glyph unicode="&#xea;" vert-adv-y="2288" d="M1043 465h-623q4 -83 13 -121q25 -92 101 -120q51 -19 142 -19q102 0 194 25q49 14 132 46v-231q-169 -76 -358 -76q-301 0 -432 156q-62 75 -88 184q-21 93 -21 233q0 152 28 248q55 188 210 272q103 56 254 56q268 0 373 -182q75 -129 75 -365v-106zM740 645 q-1 105 -20 171q-27 89 -129 89q-119 0 -152 -113q-15 -51 -19 -147h320zM255 1222l225 325h252l225 -325h-203l-148 155l-149 -155h-202z" />
<glyph unicode="&#xeb;" vert-adv-y="2288" d="M1043 465h-623q4 -83 13 -121q25 -92 101 -120q51 -19 142 -19q102 0 194 25q49 14 132 46v-231q-169 -76 -358 -76q-301 0 -432 156q-62 75 -88 184q-21 93 -21 233q0 152 28 248q55 188 210 272q103 56 254 56q268 0 373 -182q75 -129 75 -365v-106zM740 645 q-1 105 -20 171q-27 89 -129 89q-119 0 -152 -113q-15 -51 -19 -147h320zM395 1538q69 0 114 -47q42 -43 42 -108q0 -66 -42 -109q-45 -47 -116 -47q-67 0 -111 47q-42 43 -42 109t42 108q46 47 113 47zM827 1538q69 0 114 -47q42 -43 42 -108q0 -66 -42 -109 q-44 -47 -116 -47q-66 0 -111 47q-42 43 -42 109t42 108q46 47 113 47z" />
<glyph unicode="&#xec;" horiz-adv-x="569" vert-adv-y="2288" d="M131 0v1044q175 5 237 64h70v-1108h-307zM415 1216h-225l-197 338h304z" />
<glyph unicode="&#xed;" horiz-adv-x="569" vert-adv-y="2288" d="M131 0v1044q175 5 237 64h70v-1108h-307zM164 1216l118 338h304l-197 -338h-225z" />
<glyph unicode="&#xee;" horiz-adv-x="569" vert-adv-y="2288" d="M131 0v1044q175 5 237 64h70v-1108h-307zM-66 1222l225 325h252l225 -325h-203l-148 155l-149 -155h-202z" />
<glyph unicode="&#xef;" horiz-adv-x="569" vert-adv-y="2288" d="M131 0v1044q175 5 237 64h70v-1108h-307zM68 1538q69 0 114 -47q42 -43 42 -108q0 -66 -42 -109q-45 -47 -116 -47q-67 0 -111 47q-42 43 -42 109t42 108q46 47 113 47zM500 1538q69 0 114 -47q42 -43 42 -108q0 -66 -42 -109q-44 -47 -116 -47q-66 0 -111 47 q-42 43 -42 109t42 108q46 47 113 47z" />
<glyph unicode="&#xf0;" horiz-adv-x="1251" vert-adv-y="2288" d="M733 1053q-46 91 -115 192l-307 -88v156l209 59q-85 98 -176 176h315q28 -21 119 -100l285 82v-154l-170 -49q115 -144 174 -280q47 -110 65 -219q17 -100 17 -253q0 -200 -42 -306q-118 -300 -482 -300q-270 0 -407 171q-71 88 -97 199q-19 79 -19 205q0 169 39 270 q109 284 406 284q107 0 186 -45zM625 887q-120 0 -171 -99q-35 -70 -35 -245q0 -130 11 -184q37 -171 195 -171q120 0 171 99q35 70 35 250q0 124 -12 179q-36 171 -194 171z" />
<glyph unicode="&#xf1;" horiz-adv-x="1251" vert-adv-y="2288" d="M149 0v1053q173 7 239 65h68v-194q174 188 371 188q157 0 230 -115q53 -84 53 -219v-778h-307v714q0 144 -136 144q-65 0 -132 -30q-26 -11 -79 -42v-786h-307zM368 1232l-101 112q103 165 244 165q50 0 131 -27q70 -23 110 -23q65 0 129 68l101 -112 q-103 -166 -243 -166q-50 0 -131 26q-71 24 -111 24q-66 0 -129 -67z" />
<glyph unicode="&#xf2;" horiz-adv-x="1251" vert-adv-y="2288" d="M625 1118q271 0 408 -171q71 -88 97 -199q19 -78 19 -204q0 -174 -41 -275q-120 -300 -483 -300q-270 0 -407 171q-72 88 -97 198q-19 79 -19 213q0 165 41 267q120 300 482 300zM625 899q-120 0 -171 -101q-35 -70 -35 -249q0 -132 11 -187q37 -174 195 -174 q121 0 171 101q36 71 36 255q0 125 -11 181q-37 174 -196 174zM768 1216h-225l-197 338h304z" />
<glyph unicode="&#xf3;" horiz-adv-x="1251" vert-adv-y="2288" d="M625 1118q271 0 408 -171q71 -88 97 -199q19 -78 19 -204q0 -174 -41 -275q-120 -300 -483 -300q-270 0 -407 171q-72 88 -97 198q-19 79 -19 213q0 165 41 267q120 300 482 300zM625 899q-120 0 -171 -101q-35 -70 -35 -249q0 -132 11 -187q37 -174 195 -174 q121 0 171 101q36 71 36 255q0 125 -11 181q-37 174 -196 174zM499 1216l118 338h304l-197 -338h-225z" />
<glyph unicode="&#xf4;" horiz-adv-x="1251" vert-adv-y="2288" d="M625 1118q271 0 408 -171q71 -88 97 -199q19 -78 19 -204q0 -174 -41 -275q-120 -300 -483 -300q-270 0 -407 171q-72 88 -97 198q-19 79 -19 213q0 165 41 267q120 300 482 300zM625 899q-120 0 -171 -101q-35 -70 -35 -249q0 -132 11 -187q37 -174 195 -174 q121 0 171 101q36 71 36 255q0 125 -11 181q-37 174 -196 174zM274 1222l225 325h252l225 -325h-203l-148 155l-149 -155h-202z" />
<glyph unicode="&#xf5;" horiz-adv-x="1251" vert-adv-y="2288" d="M625 1118q271 0 408 -171q71 -88 97 -199q19 -78 19 -204q0 -174 -41 -275q-120 -300 -483 -300q-270 0 -407 171q-72 88 -97 198q-19 79 -19 213q0 165 41 267q120 300 482 300zM625 899q-120 0 -171 -101q-35 -70 -35 -249q0 -132 11 -187q37 -174 195 -174 q121 0 171 101q36 71 36 255q0 125 -11 181q-37 174 -196 174zM368 1232l-101 112q103 165 244 165q50 0 131 -27q70 -23 110 -23q65 0 129 68l101 -112q-103 -166 -243 -166q-50 0 -131 26q-71 24 -111 24q-66 0 -129 -67z" />
<glyph unicode="&#xf6;" horiz-adv-x="1251" vert-adv-y="2288" d="M625 1118q271 0 408 -171q71 -88 97 -199q19 -78 19 -204q0 -174 -41 -275q-120 -300 -483 -300q-270 0 -407 171q-72 88 -97 198q-19 79 -19 213q0 165 41 267q120 300 482 300zM625 899q-120 0 -171 -101q-35 -70 -35 -249q0 -132 11 -187q37 -174 195 -174 q121 0 171 101q36 71 36 255q0 125 -11 181q-37 174 -196 174zM409 1538q69 0 114 -47q42 -43 42 -108q0 -66 -42 -109q-45 -47 -116 -47q-67 0 -111 47q-42 43 -42 109t42 108q46 47 113 47zM841 1538q69 0 114 -47q42 -43 42 -108q0 -66 -42 -109q-44 -47 -116 -47 q-66 0 -111 47q-42 43 -42 109t42 108q46 47 113 47z" />
<glyph unicode="&#xf7;" horiz-adv-x="1124" vert-adv-y="2288" d="M560 1254q72 0 119 -49q44 -45 44 -113q0 -69 -44 -114q-47 -49 -118 -49q-72 0 -119 49q-44 45 -44 116q0 67 44 111q48 49 118 49zM560 440q72 0 119 -49q44 -45 44 -114q0 -68 -44 -113q-47 -49 -118 -49q-72 0 -119 49q-44 45 -44 116q0 67 44 111q48 49 118 49z M95 572v225h932v-225h-932z" />
<glyph unicode="&#xf8;" horiz-adv-x="1251" vert-adv-y="2288" d="M219 139q-36 47 -58 91q-58 118 -58 314q0 173 41 274q120 300 482 300q175 0 302 -76l86 109h186l-163 -208q31 -41 51 -80q38 -75 49 -150q12 -76 12 -169q0 -174 -41 -275q-120 -300 -482 -300q-172 0 -298 74l-107 -135h-184zM425 402l345 438q-55 59 -145 59 q-120 0 -170 -100q-35 -71 -35 -250q0 -97 5 -147zM827 678l-341 -434q50 -56 141 -56q119 0 170 101q35 70 35 256q0 81 -5 133z" />
<glyph unicode="&#xf9;" horiz-adv-x="1251" vert-adv-y="2288" d="M139 1067l309 27v-708q0 -102 40 -136q34 -29 97 -29q93 0 208 70v776l309 27v-1094h-241l-52 162q-171 -193 -368 -193q-171 0 -250 128q-52 84 -52 250v720zM756 1216h-225l-197 338h304z" />
<glyph unicode="&#xfa;" horiz-adv-x="1251" vert-adv-y="2288" d="M139 1067l309 27v-708q0 -102 40 -136q34 -29 97 -29q93 0 208 70v776l309 27v-1094h-241l-52 162q-171 -193 -368 -193q-171 0 -250 128q-52 84 -52 250v720zM511 1216l118 338h304l-197 -338h-225z" />
<glyph unicode="&#xfb;" horiz-adv-x="1251" vert-adv-y="2288" d="M139 1067l309 27v-708q0 -102 40 -136q34 -29 97 -29q93 0 208 70v776l309 27v-1094h-241l-52 162q-171 -193 -368 -193q-171 0 -250 128q-52 84 -52 250v720zM270 1222l225 325h252l225 -325h-203l-148 155l-149 -155h-202z" />
<glyph unicode="&#xfc;" horiz-adv-x="1251" vert-adv-y="2288" d="M139 1067l309 27v-708q0 -102 40 -136q34 -29 97 -29q93 0 208 70v776l309 27v-1094h-241l-52 162q-171 -193 -368 -193q-171 0 -250 128q-52 84 -52 250v720zM413 1538q69 0 114 -47q42 -43 42 -108q0 -66 -42 -109q-45 -47 -116 -47q-67 0 -111 47q-42 43 -42 109 t42 108q46 47 113 47zM845 1538q69 0 114 -47q42 -43 42 -108q0 -66 -42 -109q-44 -47 -116 -47q-66 0 -111 47q-42 43 -42 109t42 108q46 47 113 47z" />
<glyph unicode="&#xfd;" vert-adv-y="2288" d="M223 -414l226 512l-414 989h324l237 -626l238 626h270l-608 -1501h-273zM473 1216l118 338h304l-197 -338h-225z" />
<glyph unicode="&#xfe;" horiz-adv-x="1251" vert-adv-y="2288" d="M149 -414v1896q177 8 239 64h68v-592q63 63 112 93q102 65 222 65q198 0 290 -176q68 -130 68 -388q0 -178 -32 -284q-90 -295 -366 -295q-164 0 -294 105v-488h-307zM456 240q86 -56 183 -56q104 0 151 80q27 46 36 126q5 49 5 157q0 178 -38 245q-41 72 -140 72 q-70 0 -130 -29q-23 -11 -67 -38v-557z" />
<glyph unicode="&#xff;" vert-adv-y="2288" d="M223 -414l226 512l-414 989h324l237 -626l238 626h270l-608 -1501h-273zM377 1538q69 0 114 -47q42 -43 42 -108q0 -66 -42 -109q-45 -47 -116 -47q-67 0 -111 47q-42 43 -42 109t42 108q46 47 113 47zM809 1538q69 0 114 -47q42 -43 42 -108q0 -66 -42 -109 q-44 -47 -116 -47q-66 0 -111 47q-42 43 -42 109t42 108q46 47 113 47z" />
<glyph unicode="&#x100;" horiz-adv-x="1479" vert-adv-y="2288" d="M979 328h-553l-114 -328h-281l551 1491h321l545 -1491h-356zM902 553l-197 574l-201 -574h398zM449 1652v208h582v-208h-582z" />
<glyph unicode="&#x101;" vert-adv-y="2288" d="M698 139q-119 -170 -304 -170q-151 0 -233 95q-69 81 -69 229q0 152 76 234q63 69 182 94q104 22 332 34v50q0 86 -36 126q-40 43 -140 43t-208 -29q-41 -11 -134 -42v241q188 74 379 74q255 0 357 -113q89 -98 89 -296v-426q0 -76 65 -76q15 0 33 4v-195 q-67 -34 -155 -34q-110 0 -172 57q-38 34 -62 100zM682 473q-152 -10 -200 -23q-61 -17 -79 -57q-10 -24 -10 -69q0 -83 29 -114q31 -34 89 -34q86 0 171 84v213zM278 1276v208h582v-208h-582z" />
<glyph unicode="&#x102;" horiz-adv-x="1479" vert-adv-y="2288" d="M979 328h-553l-114 -328h-281l551 1491h321l545 -1491h-356zM902 553l-197 574l-201 -574h398zM429 1897h194q17 -109 117 -109t117 109h194q-7 -123 -74 -196q-88 -97 -237 -97t-237 97q-67 73 -74 196z" />
<glyph unicode="&#x103;" vert-adv-y="2288" d="M698 139q-119 -170 -304 -170q-151 0 -233 95q-69 81 -69 229q0 152 76 234q63 69 182 94q104 22 332 34v50q0 86 -36 126q-40 43 -140 43t-208 -29q-41 -11 -134 -42v241q188 74 379 74q255 0 357 -113q89 -98 89 -296v-426q0 -76 65 -76q15 0 33 4v-195 q-67 -34 -155 -34q-110 0 -172 57q-38 34 -62 100zM682 473q-152 -10 -200 -23q-61 -17 -79 -57q-10 -24 -10 -69q0 -83 29 -114q31 -34 89 -34q86 0 171 84v213zM270 1524h194q16 -109 117 -109q100 0 117 109h194q-7 -123 -74 -196q-88 -97 -237 -97t-237 97 q-67 73 -74 196z" />
<glyph unicode="&#x104;" horiz-adv-x="1479" vert-adv-y="2288" d="M979 328h-553l-115 -328h-280l551 1491h321l545 -1491h-131q-52 -90 -52 -150q0 -91 99 -91q42 0 92 18v-186q-72 -20 -151 -20q-115 0 -189 47q-81 52 -81 155q0 122 126 227h-69zM902 553l-197 574l-201 -574h398z" />
<glyph unicode="&#x105;" vert-adv-y="2288" d="M698 139q-119 -170 -304 -170q-151 0 -233 95q-69 81 -69 229q0 152 76 234q63 69 182 94q101 22 332 34v50q0 86 -36 126q-40 43 -140 43t-208 -29q-41 -11 -134 -42v241q188 74 379 74q255 0 357 -113q89 -98 89 -296v-426q0 -76 65 -76q15 0 33 4v-195 q-47 -25 -117 -33q-43 -74 -43 -133q0 -91 99 -91q41 0 92 18v-186q-73 -20 -151 -20q-115 0 -189 47q-81 52 -81 155q0 80 61 160q29 38 66 67q-88 35 -126 139zM682 473q-153 -10 -200 -23q-61 -17 -79 -57q-10 -24 -10 -69q0 -83 29 -114q31 -34 89 -34q86 0 171 84v213z " />
<glyph unicode="&#x106;" horiz-adv-x="1479" vert-adv-y="2288" d="M1437 209q-182 -240 -580 -240q-379 0 -577 228q-102 118 -141 279q-29 116 -29 273q0 222 60 370q98 240 325 340q148 65 349 65q398 0 579 -256l-214 -180q-39 65 -77 100q-100 91 -269 91q-216 0 -318 -145q-85 -120 -85 -385q0 -296 108 -415q107 -119 312 -119 q163 0 264 81q40 32 80 92zM703 1605l112 313h304l-191 -313h-225z" />
<glyph unicode="&#x107;" vert-adv-y="2288" d="M911 350l197 -160q-50 -73 -104 -115q-134 -108 -349 -108q-292 0 -435 169q-69 81 -96 181q-22 84 -22 219q0 174 43 282q118 301 492 301q218 0 356 -111q54 -42 103 -112l-197 -161q-27 48 -53 78q-74 86 -189 86q-142 0 -194 -113q-37 -78 -37 -236q0 -204 47 -276 q57 -87 187 -87q121 0 197 86q27 30 54 77zM503 1216l118 338h304l-197 -338h-225z" />
<glyph unicode="&#x108;" horiz-adv-x="1479" vert-adv-y="2288" d="M1437 209q-182 -240 -580 -240q-379 0 -577 228q-102 118 -141 279q-29 116 -29 273q0 222 60 370q98 240 325 340q148 65 349 65q398 0 579 -256l-214 -180q-39 65 -77 100q-100 91 -269 91q-216 0 -318 -145q-85 -120 -85 -385q0 -296 108 -415q107 -119 312 -119 q163 0 264 81q40 32 80 92zM509 1605l225 313h252l225 -313h-203l-148 143l-149 -143h-202z" />
<glyph unicode="&#x109;" vert-adv-y="2288" d="M911 350l197 -160q-50 -73 -104 -115q-134 -108 -349 -108q-292 0 -435 169q-69 81 -96 181q-22 84 -22 219q0 174 43 282q118 301 492 301q218 0 356 -111q54 -42 103 -112l-197 -161q-27 48 -53 78q-74 86 -189 86q-142 0 -194 -113q-37 -78 -37 -236q0 -204 47 -276 q57 -87 187 -87q121 0 197 86q27 30 54 77zM297 1222l225 325h252l225 -325h-203l-148 155l-149 -155h-202z" />
<glyph unicode="&#x10a;" horiz-adv-x="1479" vert-adv-y="2288" d="M1437 209q-182 -240 -580 -240q-379 0 -577 228q-102 118 -141 279q-29 116 -29 273q0 222 60 370q98 240 325 340q148 65 349 65q398 0 579 -256l-214 -180q-39 65 -77 100q-100 91 -269 91q-216 0 -318 -145q-85 -120 -85 -385q0 -296 108 -415q107 -119 312 -119 q163 0 264 81q40 32 80 92zM854 1917q72 0 119 -49q43 -45 43 -113t-43 -113q-47 -49 -119 -49t-119 49q-43 45 -43 115q0 67 43 111q48 49 119 49z" />
<glyph unicode="&#x10b;" vert-adv-y="2288" d="M911 350l197 -160q-50 -73 -104 -115q-134 -108 -349 -108q-292 0 -435 169q-69 81 -96 181q-22 84 -22 219q0 174 43 282q118 301 492 301q218 0 356 -111q54 -42 103 -112l-197 -161q-27 48 -53 78q-74 86 -189 86q-142 0 -194 -113q-37 -78 -37 -236q0 -204 47 -276 q57 -87 187 -87q121 0 197 86q27 30 54 77zM672 1545q72 0 119 -49q43 -45 43 -113t-43 -113q-47 -49 -119 -49t-119 49q-43 45 -43 115q0 67 43 111q48 49 119 49z" />
<glyph unicode="&#x10c;" horiz-adv-x="1479" vert-adv-y="2288" d="M1437 209q-182 -240 -580 -240q-379 0 -577 228q-102 118 -141 279q-29 116 -29 273q0 222 60 370q98 240 325 340q148 65 349 65q398 0 579 -256l-214 -180q-39 65 -77 100q-100 91 -269 91q-216 0 -318 -145q-85 -120 -85 -385q0 -296 108 -415q107 -119 312 -119 q163 0 264 81q40 32 80 92zM704 1605l-225 313h202l149 -143l148 143h203l-225 -313h-252z" />
<glyph unicode="&#x10d;" vert-adv-y="2288" d="M911 350l197 -160q-50 -73 -104 -115q-134 -108 -349 -108q-292 0 -435 169q-69 81 -96 181q-22 84 -22 219q0 174 43 282q118 301 492 301q218 0 356 -111q54 -42 103 -112l-197 -161q-27 48 -53 78q-74 86 -189 86q-142 0 -194 -113q-37 -78 -37 -236q0 -204 47 -276 q57 -87 187 -87q121 0 197 86q27 30 54 77zM516 1222l-225 325h202l149 -155l148 155h203l-225 -325h-252z" />
<glyph unicode="&#x10e;" horiz-adv-x="1479" vert-adv-y="2288" d="M148 0v1489h553q287 0 455 -139q128 -106 181 -286q36 -123 36 -318q0 -254 -71 -411q-151 -335 -611 -335h-543zM486 252h195q188 0 267 113q48 69 66 176q11 70 11 198q0 190 -33 293q-64 201 -311 201h-195v-981zM536 1605l-225 313h202l149 -143l148 143h203 l-225 -313h-252z" />
<glyph unicode="&#x10f;" horiz-adv-x="1472" vert-adv-y="2288" d="M784 129q-60 -56 -101 -84q-115 -76 -249 -76q-213 0 -310 189q-67 129 -67 383q0 179 32 281q50 159 165 233q88 57 206 57q158 0 289 -105v475q172 8 237 64h70v-1546h-225zM749 817q-91 53 -184 53q-107 0 -153 -84q-38 -69 -38 -265q0 -122 11 -173q17 -87 64 -126 q37 -32 107 -32q97 0 193 66v561zM1205 1154l66 400h295l-145 -400h-216z" />
<glyph unicode="&#x110;" horiz-adv-x="1479" vert-adv-y="2288" d="M148 633h-109v252h109v604h553q286 0 454 -139q128 -106 181 -285q36 -123 36 -319q0 -254 -71 -411q-151 -335 -611 -335h-542v633zM486 633v-381h194q188 0 267 113q48 69 66 176q11 70 11 198q0 190 -33 293q-64 201 -311 201h-194v-348h288v-252h-288z" />
<glyph unicode="&#x111;" horiz-adv-x="1251" vert-adv-y="2288" d="M829 129q-61 -56 -101 -84q-115 -76 -249 -76q-213 0 -310 189q-67 129 -67 383q0 179 32 281q50 159 165 233q88 57 206 57q158 0 289 -105v193h-284v166h284v117q173 7 237 63h70v-180h165v-166h-165v-1200h-225zM794 817q-91 53 -184 53q-107 0 -153 -84 q-38 -68 -38 -265q0 -122 11 -173q17 -86 64 -126q37 -32 107 -32q97 0 193 66v561z" />
<glyph unicode="&#x112;" horiz-adv-x="1366" vert-adv-y="2288" d="M169 0v1489h1055v-266h-719v-340h584v-250h-584v-369h774l-26 -264h-1084zM393 1652v208h582v-208h-582z" />
<glyph unicode="&#x113;" vert-adv-y="2288" d="M1043 465h-623q4 -83 13 -121q25 -92 101 -120q51 -19 142 -19q102 0 194 25q49 14 132 46v-231q-169 -76 -358 -76q-301 0 -432 156q-62 75 -88 184q-21 93 -21 233q0 152 28 248q55 188 210 272q103 56 254 56q268 0 373 -182q75 -129 75 -365v-106zM740 645 q-1 105 -20 171q-27 89 -129 89q-119 0 -152 -113q-15 -51 -19 -147h320zM279 1276v208h582v-208h-582z" />
<glyph unicode="&#x114;" horiz-adv-x="1366" vert-adv-y="2288" d="M169 0v1489h1055v-266h-719v-340h584v-250h-584v-369h774l-26 -264h-1084zM409 1897h194q17 -109 117 -109t117 109h194q-7 -123 -74 -196q-88 -97 -237 -97t-237 97q-67 73 -74 196z" />
<glyph unicode="&#x116;" horiz-adv-x="1366" vert-adv-y="2288" d="M169 0v1489h1055v-266h-719v-340h584v-250h-584v-369h774l-26 -264h-1084zM720 1917q72 0 119 -49q43 -45 43 -113t-43 -113q-47 -49 -119 -49t-119 49q-43 45 -43 115q0 67 43 111q48 49 119 49z" />
<glyph unicode="&#x117;" vert-adv-y="2288" d="M1043 465h-623q4 -83 13 -121q25 -92 101 -120q51 -19 142 -19q102 0 194 25q49 14 132 46v-231q-169 -76 -358 -76q-301 0 -432 156q-62 75 -88 184q-21 93 -21 233q0 152 28 248q55 188 210 272q103 56 254 56q268 0 373 -182q75 -129 75 -365v-106zM740 645 q-1 105 -20 171q-27 89 -129 89q-119 0 -152 -113q-15 -51 -19 -147h320zM606 1545q72 0 119 -49q43 -45 43 -113t-43 -113q-47 -49 -119 -49t-119 49q-43 45 -43 115q0 67 43 111q48 49 119 49z" />
<glyph unicode="&#x118;" horiz-adv-x="1366" vert-adv-y="2288" d="M169 0v1489h1055v-266h-719v-340h584v-250h-584v-369h774l-26 -264h-99q-52 -86 -52 -150q0 -91 99 -91q42 0 92 18v-186q-72 -20 -151 -20q-115 0 -189 47q-81 52 -81 155q0 122 126 227h-829z" />
<glyph unicode="&#x119;" vert-adv-y="2288" d="M1043 465h-623q4 -83 13 -121q25 -92 101 -120q51 -19 142 -19q102 0 194 25q49 14 132 46v-231q-74 -33 -140 -51q-49 -85 -49 -144q0 -91 99 -91q40 0 92 18v-186q-74 -20 -151 -20q-115 0 -189 47q-81 52 -81 155q0 98 92 197q-25 -1 -34 -1q-300 0 -429 156 q-62 75 -87 184q-22 92 -22 233q0 152 28 248q55 188 210 272q103 56 254 56q268 0 373 -182q75 -129 75 -365v-106zM740 645q-1 105 -20 171q-27 89 -129 89q-119 0 -152 -113q-15 -51 -19 -147h320z" />
<glyph unicode="&#x11a;" horiz-adv-x="1366" vert-adv-y="2288" d="M169 0v1489h1055v-266h-719v-340h584v-250h-584v-369h774l-26 -264h-1084zM594 1605l-225 313h202l149 -143l148 143h203l-225 -313h-252z" />
<glyph unicode="&#x11b;" vert-adv-y="2288" d="M1043 465h-623q4 -83 13 -121q25 -92 101 -120q51 -19 142 -19q102 0 194 25q49 14 132 46v-231q-169 -76 -358 -76q-301 0 -432 156q-62 75 -88 184q-21 93 -21 233q0 152 28 248q55 188 210 272q103 56 254 56q268 0 373 -182q75 -129 75 -365v-106zM740 645 q-1 105 -20 171q-27 89 -129 89q-119 0 -152 -113q-15 -51 -19 -147h320zM474 1222l-225 325h202l149 -155l148 155h203l-225 -325h-252z" />
<glyph unicode="&#x11c;" horiz-adv-x="1593" vert-adv-y="2288" d="M1435 69q-258 -100 -534 -100q-310 0 -511 123q-149 91 -224 267q-36 84 -48 197q-8 79 -12 200v0q9 242 59 363q99 240 326 340q148 65 348 65q399 0 579 -256l-213 -180q-39 65 -77 99q-100 91 -269 91q-215 0 -318 -145q-84 -120 -84 -386q0 -183 37 -285 q88 -241 416 -241q108 0 210 24v291h-264v250h579v-717zM488 1605l225 313h252l225 -313h-203l-148 143l-149 -143h-202z" />
<glyph unicode="&#x11d;" horiz-adv-x="1251" vert-adv-y="2288" d="M382 397q-36 -42 -36 -83q0 -53 43 -74q27 -13 94 -13h311q194 0 292 -51q130 -68 130 -247q0 -139 -70 -219q-83 -94 -260 -130q-100 -20 -274 -20q-292 0 -429 58q-159 68 -159 212q0 138 188 211q-100 59 -100 165q0 134 150 253q-127 102 -127 283q0 183 122 282 q114 94 347 94q132 0 235 -31h365v-169h-66q-55 0 -94 -12q29 -77 29 -159q0 -208 -147 -308q-95 -65 -252 -76q-30 -2 -67 -3v0q-140 1 -225 37zM369 0q-64 -50 -64 -121q0 -53 47 -80q62 -36 261 -36q176 0 247 29q42 18 59 45q14 23 14 62q0 64 -50 85q-38 16 -117 16 h-397zM604 918q-99 0 -140 -45q-38 -40 -38 -133t38 -134q41 -45 137 -45q102 0 143 45q38 41 38 134t-38 133q-42 45 -140 45zM292 1222l225 325h252l225 -325h-203l-148 155l-149 -155h-202z" />
<glyph unicode="&#x11e;" horiz-adv-x="1593" vert-adv-y="2288" d="M1435 69q-258 -100 -534 -100q-310 0 -511 123q-149 91 -224 267q-36 84 -48 197q-8 79 -12 200v0q9 242 59 363q99 240 326 340q148 65 348 65q399 0 579 -256l-213 -180q-39 65 -77 99q-100 91 -269 91q-215 0 -318 -145q-84 -120 -84 -386q0 -183 37 -285 q88 -241 416 -241q108 0 210 24v291h-264v250h579v-717zM539 1897h194q17 -109 117 -109t117 109h194q-7 -123 -74 -196q-88 -97 -237 -97t-237 97q-67 73 -74 196z" />
<glyph unicode="&#x11f;" horiz-adv-x="1251" vert-adv-y="2288" d="M382 397q-36 -42 -36 -83q0 -53 43 -74q27 -13 94 -13h311q194 0 292 -51q130 -68 130 -247q0 -139 -70 -219q-83 -94 -260 -130q-100 -20 -274 -20q-292 0 -429 58q-159 68 -159 212q0 138 188 211q-100 59 -100 165q0 134 150 253q-127 102 -127 283q0 183 122 282 q114 94 347 94q132 0 235 -31h365v-169h-66q-55 0 -94 -12q29 -77 29 -159q0 -208 -147 -308q-95 -65 -252 -76q-30 -2 -67 -3v0q-140 1 -225 37zM369 0q-64 -50 -64 -121q0 -53 47 -80q62 -36 261 -36q176 0 247 29q42 18 59 45q14 23 14 62q0 64 -50 85q-38 16 -117 16 h-397zM604 918q-99 0 -140 -45q-38 -40 -38 -133t38 -134q41 -45 137 -45q102 0 143 45q38 41 38 134t-38 133q-42 45 -140 45zM344 1524h194q16 -109 117 -109q100 0 117 109h194q-7 -123 -74 -196q-88 -97 -237 -97t-237 97q-67 73 -74 196z" />
<glyph unicode="&#x120;" horiz-adv-x="1593" vert-adv-y="2288" d="M1435 69q-258 -100 -534 -100q-310 0 -511 123q-149 91 -224 267q-36 84 -48 197q-8 79 -12 200v0q9 242 59 363q99 240 326 340q148 65 348 65q399 0 579 -256l-213 -180q-39 65 -77 99q-100 91 -269 91q-215 0 -318 -145q-84 -120 -84 -386q0 -183 37 -285 q88 -241 416 -241q108 0 210 24v291h-264v250h579v-717zM845 1917q72 0 119 -49q43 -45 43 -113t-43 -113q-47 -49 -119 -49t-119 49q-43 45 -43 115q0 67 43 111q48 49 119 49z" />
<glyph unicode="&#x121;" horiz-adv-x="1251" vert-adv-y="2288" d="M382 397q-36 -42 -36 -83q0 -53 43 -74q27 -13 94 -13h311q194 0 292 -51q130 -68 130 -247q0 -139 -70 -219q-83 -94 -260 -130q-100 -20 -274 -20q-292 0 -429 58q-159 68 -159 212q0 138 188 211q-100 59 -100 165q0 134 150 253q-127 102 -127 283q0 183 122 282 q114 94 347 94q132 0 235 -31h365v-169h-66q-55 0 -94 -12q29 -77 29 -159q0 -208 -147 -308q-95 -65 -252 -76q-30 -2 -67 -3v0q-140 1 -225 37zM369 0q-64 -50 -64 -121q0 -53 47 -80q62 -36 261 -36q176 0 247 29q42 18 59 45q14 23 14 62q0 64 -50 85q-38 16 -117 16 h-397zM604 918q-99 0 -140 -45q-38 -40 -38 -133t38 -134q41 -45 137 -45q102 0 143 45q38 41 38 134t-38 133q-42 45 -140 45zM643 1545q72 0 119 -49q43 -45 43 -113t-43 -113q-47 -49 -119 -49t-119 49q-43 45 -43 115q0 67 43 111q48 49 119 49z" />
<glyph unicode="&#x122;" horiz-adv-x="1593" vert-adv-y="2288" d="M1435 69q-258 -100 -534 -100q-310 0 -511 123q-149 91 -224 267q-36 84 -48 197q-8 79 -12 200v0q9 242 59 363q99 240 326 340q148 65 348 65q399 0 579 -256l-213 -180q-39 65 -77 99q-100 91 -269 91q-215 0 -318 -145q-84 -120 -84 -386q0 -183 37 -285 q88 -241 416 -241q108 0 210 24v291h-264v250h579v-717zM552 -429l161 347h222l-82 -347h-301z" />
<glyph unicode="&#x123;" horiz-adv-x="1251" vert-adv-y="2288" d="M382 397q-36 -42 -36 -83q0 -53 43 -74q27 -13 94 -13h311q194 0 292 -51q130 -68 130 -247q0 -139 -70 -219q-83 -94 -260 -130q-100 -20 -274 -20q-292 0 -429 58q-159 68 -159 212q0 138 188 211q-100 59 -100 165q0 134 150 253q-127 102 -127 283q0 183 122 282 q114 94 347 94q132 0 235 -31h365v-169h-66q-55 0 -94 -12q29 -77 29 -159q0 -208 -147 -308q-95 -65 -252 -76q-30 -2 -67 -3v0q-140 1 -225 37zM369 0q-64 -50 -64 -121q0 -53 47 -80q62 -36 261 -36q176 0 247 29q42 18 59 45q14 23 14 62q0 64 -50 85q-38 16 -117 16 h-397zM604 918q-99 0 -140 -45q-38 -40 -38 -133t38 -134q41 -45 137 -45q102 0 143 45q38 41 38 134t-38 133q-42 45 -140 45zM903 1554l-118 -338h-304l197 338h225z" />
<glyph unicode="&#x124;" horiz-adv-x="1479" vert-adv-y="2288" d="M148 0v1489h338v-596h508v596h338v-1489h-338v633h-508v-633h-338zM389 1605l225 313h252l225 -313h-203l-148 143l-149 -143h-202z" />
<glyph unicode="&#x125;" horiz-adv-x="1251" vert-adv-y="2288" d="M149 0v1482q175 8 239 64h68v-622q174 188 372 188q282 0 282 -353v-759h-307v717q0 141 -135 141q-88 0 -212 -72v-786h-307zM12 1605l225 313h252l225 -313h-203l-148 143l-149 -143h-202z" />
<glyph unicode="&#x12a;" horiz-adv-x="569" vert-adv-y="2288" d="M116 0v1489h338v-1489h-338zM-6 1652v208h582v-208h-582z" />
<glyph unicode="&#x12b;" horiz-adv-x="569" vert-adv-y="2288" d="M131 0v1044q175 5 237 64h70v-1108h-307zM-6 1276v208h582v-208h-582z" />
<glyph unicode="&#x12d;" horiz-adv-x="569" vert-adv-y="2288" d="M131 0v1044q175 5 237 64h70v-1108h-307zM-27 1524h194q16 -109 117 -109q100 0 117 109h194q-7 -123 -74 -196q-88 -97 -237 -97t-237 97q-67 73 -74 196z" />
<glyph unicode="&#x12e;" horiz-adv-x="569" vert-adv-y="2288" d="M115 0v1489h338v-1489h-89q-52 -90 -52 -150q0 -91 99 -91q42 0 92 18v-186q-72 -20 -151 -20q-115 0 -189 47q-81 52 -81 155q0 122 126 227h-93z" />
<glyph unicode="&#x12f;" horiz-adv-x="569" vert-adv-y="2288" d="M131 0v1044q175 5 237 64h70v-1108h-79q-52 -90 -52 -150q0 -91 99 -91q42 0 92 18v-186q-72 -20 -151 -20q-115 0 -189 47q-81 52 -81 155q0 121 126 227h-72zM284 1545q72 0 118 -49q44 -45 44 -113t-44 -113q-46 -49 -118 -49t-119 49q-43 45 -43 115q0 67 43 111 q48 49 119 49z" />
<glyph unicode="&#x130;" horiz-adv-x="569" vert-adv-y="2288" d="M116 0v1489h338v-1489h-338zM285 1917q72 0 119 -49q43 -45 43 -113t-43 -113q-47 -49 -119 -49t-119 49q-43 45 -43 115q0 67 43 111q48 49 119 49z" />
<glyph unicode="&#x131;" horiz-adv-x="569" vert-adv-y="2288" d="M131 0v1044q175 5 237 64h70v-1108h-307z" />
<glyph unicode="&#x134;" vert-adv-y="2288" d="M659 1489h338v-979q0 -221 -104 -356q-143 -187 -460 -187q-172 0 -341 76v254q76 -32 119 -46q89 -28 183 -28q163 0 220 82q45 63 45 191v993zM442 1605l225 313h252l225 -313h-203l-148 143l-149 -143h-202z" />
<glyph unicode="&#x135;" horiz-adv-x="569" vert-adv-y="2288" d="M-24 -426v225q88 15 124 64q32 45 32 126v1055q176 5 237 64h70v-1104q0 -216 -135 -325q-106 -86 -328 -105zM-66 1222l225 325h252l225 -325h-203l-148 155l-149 -155h-202z" />
<glyph unicode="&#x136;" horiz-adv-x="1479" vert-adv-y="2288" d="M182 0v1489h336v-688l565 688h346l-596 -707l637 -782h-397l-555 682v-682h-336zM513 -429l161 347h222l-82 -347h-301z" />
<glyph unicode="&#x137;" vert-adv-y="2288" d="M150 0v1482q175 8 237 64h70v-924l334 465h321l-335 -416l362 -671h-328l-249 461l-105 -124v-337h-307zM350 -429l161 347h222l-82 -347h-301z" />
<glyph unicode="&#x139;" horiz-adv-x="1251" vert-adv-y="2288" d="M162 0v1489h338v-1225h688l-24 -264h-1002zM227 1605l112 313h304l-191 -313h-225z" />
<glyph unicode="&#x13a;" horiz-adv-x="569" vert-adv-y="2288" d="M131 0v1482q175 8 237 64h70v-1546h-307zM170 1641l112 313h304l-190 -313h-226z" />
<glyph unicode="&#x13b;" horiz-adv-x="1251" vert-adv-y="2288" d="M162 0v1489h338v-1225h688l-24 -264h-1002zM411 -429l161 347h222l-82 -347h-301z" />
<glyph unicode="&#x13c;" horiz-adv-x="569" vert-adv-y="2288" d="M131 0v1482q175 8 237 64h70v-1546h-307zM10 -429l161 347h222l-82 -347h-301z" />
<glyph unicode="&#x13d;" horiz-adv-x="1251" vert-adv-y="2288" d="M162 0v1489h338v-1225h688l-24 -264h-1002zM667 1154l66 400h295l-145 -400h-216z" />
<glyph unicode="&#x13e;" horiz-adv-x="789" vert-adv-y="2288" d="M86 0v1482q175 8 237 64h70v-1546h-307zM523 1154l66 400h295l-145 -400h-216z" />
<glyph unicode="&#x141;" horiz-adv-x="1251" vert-adv-y="2288" d="M163 689v800h338v-641l435 205v-217l-435 -206v-366h688l-25 -264h-1001v470l-120 -56v219z" />
<glyph unicode="&#x142;" horiz-adv-x="569" vert-adv-y="2288" d="M131 794v688q175 8 237 64h70v-542l132 89v-221l-132 -90v-782h-307v573l-132 -90v221z" />
<glyph unicode="&#x143;" horiz-adv-x="1479" vert-adv-y="2288" d="M148 0v1489h287l614 -873v873h283v-1489h-223l-678 973v-973h-283zM632 1605l112 313h304l-191 -313h-225z" />
<glyph unicode="&#x144;" horiz-adv-x="1251" vert-adv-y="2288" d="M149 0v1053q173 7 239 65h68v-194q174 188 371 188q157 0 230 -115q53 -84 53 -219v-778h-307v714q0 144 -136 144q-65 0 -132 -30q-26 -11 -79 -42v-786h-307zM541 1216l118 338h304l-197 -338h-225z" />
<glyph unicode="&#x145;" horiz-adv-x="1479" vert-adv-y="2288" d="M148 0v1489h287l614 -873v873h283v-1489h-223l-678 973v-973h-283zM520 -429l161 347h222l-82 -347h-301z" />
<glyph unicode="&#x146;" horiz-adv-x="1251" vert-adv-y="2288" d="M149 0v1053q173 7 239 65h68v-194q174 188 371 188q157 0 230 -115q53 -84 53 -219v-778h-307v714q0 144 -136 144q-65 0 -132 -30q-26 -11 -79 -42v-786h-307zM363 -429l161 347h222l-82 -347h-301z" />
<glyph unicode="&#x147;" horiz-adv-x="1479" vert-adv-y="2288" d="M148 0v1489h287l614 -873v873h283v-1489h-223l-678 973v-973h-283zM633 1605l-225 313h202l149 -143l148 143h203l-225 -313h-252z" />
<glyph unicode="&#x148;" horiz-adv-x="1251" vert-adv-y="2288" d="M149 0v1053q173 7 239 65h68v-194q174 188 371 188q157 0 230 -115q53 -84 53 -219v-778h-307v714q0 144 -136 144q-65 0 -132 -30q-26 -11 -79 -42v-786h-307zM542 1222l-225 325h202l149 -155l148 155h203l-225 -325h-252z" />
<glyph unicode="&#x14c;" horiz-adv-x="1593" vert-adv-y="2288" d="M796 1524q402 0 581 -300q109 -182 109 -477q0 -185 -36 -308q-67 -232 -247 -357q-163 -113 -408 -113q-400 0 -580 300q-68 114 -92 252q-17 95 -17 233q0 322 136 513q184 257 554 257zM796 1278q-207 0 -287 -162q-53 -107 -53 -363q0 -291 66 -400q84 -138 274 -138 q207 0 287 162q53 107 53 370q0 285 -66 394q-84 137 -274 137zM505 1652v208h582v-208h-582z" />
<glyph unicode="&#x14d;" horiz-adv-x="1251" vert-adv-y="2288" d="M625 1118q271 0 408 -171q71 -88 97 -199q19 -78 19 -204q0 -174 -41 -275q-120 -300 -483 -300q-270 0 -407 171q-72 88 -97 198q-19 79 -19 213q0 165 41 267q120 300 482 300zM625 899q-120 0 -171 -101q-35 -70 -35 -249q0 -132 11 -187q37 -174 195 -174 q121 0 171 101q36 71 36 255q0 125 -11 181q-37 174 -196 174zM334 1276v208h582v-208h-582z" />
<glyph unicode="&#x150;" horiz-adv-x="1593" vert-adv-y="2288" d="M796 1524q402 0 581 -300q109 -182 109 -477q0 -185 -36 -308q-67 -232 -247 -357q-163 -113 -408 -113q-400 0 -580 300q-68 114 -92 252q-17 95 -17 233q0 322 136 513q184 257 554 257zM796 1278q-207 0 -287 -162q-53 -107 -53 -363q0 -291 66 -400q84 -138 274 -138 q207 0 287 162q53 107 53 370q0 285 -66 394q-84 137 -274 137zM520 1605l83 313h255l-124 -313h-214zM885 1605l83 313h256l-125 -313h-214z" />
<glyph unicode="&#x151;" horiz-adv-x="1251" vert-adv-y="2288" d="M625 1118q271 0 408 -171q71 -88 97 -199q19 -78 19 -204q0 -174 -41 -275q-120 -300 -483 -300q-270 0 -407 171q-72 88 -97 198q-19 79 -19 213q0 165 41 267q120 300 482 300zM625 899q-120 0 -171 -101q-35 -70 -35 -249q0 -132 11 -187q37 -174 195 -174 q121 0 171 101q36 71 36 255q0 125 -11 181q-37 174 -196 174zM324 1216l95 338h256l-137 -338h-214zM689 1216l96 338h255l-137 -338h-214z" />
<glyph unicode="&#x152;" horiz-adv-x="2048" vert-adv-y="2288" d="M1292 633v-369h665l-26 -264h-1059q-190 0 -284 18q-250 49 -373 243q-109 170 -109 489q0 280 98 451q105 181 315 249q122 39 316 39h1067v-266h-610v-340h475v-250h-475zM948 1237h-150q-170 0 -252 -93q-92 -104 -92 -387q0 -314 93 -413q84 -88 251 -88h150v981z " />
<glyph unicode="&#x153;" horiz-adv-x="1933" vert-adv-y="2288" d="M1837 465h-678q7 -113 39 -167q53 -91 232 -91q113 0 225 34q41 12 125 44v-234q-196 -82 -379 -82q-205 0 -315 78q-53 37 -95 104q-131 -182 -383 -182q-260 0 -393 171q-69 89 -94 199q-18 78 -18 205q0 173 39 274q117 300 469 300q267 0 395 -178q119 178 372 178 q459 0 459 -547v-106zM1526 655q-5 102 -25 153q-36 93 -147 93q-105 0 -150 -75q-35 -58 -45 -171h367zM631 899q-124 0 -175 -101q-36 -71 -36 -254q0 -126 12 -181q37 -175 199 -175q123 0 175 101q36 70 36 249q0 132 -12 186q-37 175 -199 175z" />
<glyph unicode="&#x154;" horiz-adv-x="1479" vert-adv-y="2288" d="M169 0v1489h636q248 0 372 -89q151 -109 151 -343q0 -163 -83 -256q-55 -62 -141 -94q-30 -12 -93 -27q105 -41 170 -154l301 -526h-365l-249 435q-53 93 -97 125q-38 28 -112 28h-154v-588h-336zM505 831h256q119 0 174 49q53 48 53 161q0 124 -73 169q-49 31 -156 31 h-254v-410zM577 1605l112 313h304l-191 -313h-225z" />
<glyph unicode="&#x155;" horiz-adv-x="797" vert-adv-y="2288" d="M150 0v1053q173 7 239 65h68v-215q67 93 133 142q73 55 166 67v-285q-153 -8 -299 -67v-760h-307zM351 1216l118 338h304l-197 -338h-225z" />
<glyph unicode="&#x156;" horiz-adv-x="1479" vert-adv-y="2288" d="M169 0v1489h636q248 0 372 -89q151 -109 151 -343q0 -163 -83 -256q-55 -62 -141 -94q-30 -12 -93 -27q105 -41 170 -154l301 -526h-365l-249 435q-53 93 -97 125q-38 28 -112 28h-154v-588h-336zM505 831h256q119 0 174 49q53 48 53 161q0 124 -73 169q-49 31 -156 31 h-254v-410zM514 -429l161 347h222l-82 -347h-301z" />
<glyph unicode="&#x157;" horiz-adv-x="797" vert-adv-y="2288" d="M150 0v1053q173 7 239 65h68v-215q67 93 133 142q73 55 166 67v-285q-153 -8 -299 -67v-760h-307zM34 -429l161 347h222l-82 -347h-301z" />
<glyph unicode="&#x158;" horiz-adv-x="1479" vert-adv-y="2288" d="M169 0v1489h636q248 0 372 -89q151 -109 151 -343q0 -163 -83 -256q-55 -62 -141 -94q-30 -12 -93 -27q105 -41 170 -154l301 -526h-365l-249 435q-53 93 -97 125q-38 28 -112 28h-154v-588h-336zM505 831h256q119 0 174 49q53 48 53 161q0 124 -73 169q-49 31 -156 31 h-254v-410zM572 1605l-225 313h202l149 -143l148 143h203l-225 -313h-252z" />
<glyph unicode="&#x159;" horiz-adv-x="797" vert-adv-y="2288" d="M150 0v1053q173 7 239 65h68v-215q67 93 133 142q73 55 166 67v-285q-153 -8 -299 -67v-760h-307zM315 1222l-225 325h202l149 -155l148 155h203l-225 -325h-252z" />
<glyph unicode="&#x15a;" horiz-adv-x="1366" vert-adv-y="2288" d="M45 93l100 260q91 -58 157 -85q128 -52 294 -52q174 0 259 58q71 48 71 136q0 78 -68 119q-44 27 -94 44q-65 23 -177 59q-204 65 -296 134q-150 111 -150 311q0 231 175 351q143 97 378 97q323 0 517 -157l-99 -231q-63 51 -110 76q-123 65 -277 65q-124 0 -199 -42 q-76 -41 -76 -133q0 -80 63 -119q58 -36 255 -99q186 -60 257 -97q121 -63 172 -147q52 -86 52 -209q0 -213 -166 -339q-162 -123 -462 -123q-339 0 -576 123zM592 1605l112 313h304l-191 -313h-225z" />
<glyph unicode="&#x15b;" vert-adv-y="2288" d="M14 93l100 233q86 -57 141 -82q125 -56 273 -56q234 0 234 125q0 47 -48 67q-37 15 -198 48q-197 40 -276 95q-111 77 -111 236q0 133 75 226q109 133 362 133q268 0 449 -143l-99 -208q-108 80 -180 105q-81 27 -157 27q-68 0 -117 -22q-58 -25 -58 -84q0 -51 52 -74 q47 -20 203 -49q192 -37 272 -91q114 -78 114 -238q0 -178 -136 -275t-370 -97q-295 0 -525 124zM461 1216l118 338h304l-197 -338h-225z" />
<glyph unicode="&#x15c;" horiz-adv-x="1366" vert-adv-y="2288" d="M45 93l100 260q91 -58 157 -85q128 -52 294 -52q174 0 259 58q71 48 71 136q0 78 -68 119q-44 27 -94 44q-65 23 -177 59q-204 65 -296 134q-150 111 -150 311q0 231 175 351q143 97 378 97q323 0 517 -157l-99 -231q-63 51 -110 76q-123 65 -277 65q-124 0 -199 -42 q-76 -41 -76 -133q0 -80 63 -119q58 -36 255 -99q186 -60 257 -97q121 -63 172 -147q52 -86 52 -209q0 -213 -166 -339q-162 -123 -462 -123q-339 0 -576 123zM362 1605l225 313h252l225 -313h-203l-148 143l-149 -143h-202z" />
<glyph unicode="&#x15d;" vert-adv-y="2288" d="M14 93l100 233q86 -57 141 -82q125 -56 273 -56q234 0 234 125q0 47 -48 67q-37 15 -198 48q-197 40 -276 95q-111 77 -111 236q0 133 75 226q109 133 362 133q268 0 449 -143l-99 -208q-108 80 -180 105q-81 27 -157 27q-68 0 -117 -22q-58 -25 -58 -84q0 -51 52 -74 q47 -20 203 -49q192 -37 272 -91q114 -78 114 -238q0 -178 -136 -275t-370 -97q-295 0 -525 124zM231 1222l225 325h252l225 -325h-203l-148 155l-149 -155h-202z" />
<glyph unicode="&#x15e;" horiz-adv-x="1366" vert-adv-y="2288" d="M45 93l100 260q90 -58 157 -85q128 -53 294 -53q174 0 259 58q71 48 71 136q0 78 -68 120q-44 26 -94 43q-65 23 -177 59q-204 65 -296 134q-150 112 -150 312q0 231 175 350q143 98 378 98q323 0 517 -157l-99 -231q-63 52 -110 76q-122 65 -277 65q-275 0 -275 -175 q0 -80 63 -119q58 -36 255 -99q186 -60 257 -97q120 -63 172 -147q52 -87 52 -209q0 -152 -89 -265q-129 -163 -412 -192l-77 -322h-301l149 320q-131 8 -241 33q-115 26 -233 87z" />
<glyph unicode="&#x15f;" vert-adv-y="2288" d="M14 93l100 233q87 -57 141 -81q125 -56 273 -56q234 0 234 125q0 47 -48 67q-37 15 -198 48q-141 28 -203 55q-184 78 -184 275q0 133 75 226q109 133 362 133q268 0 449 -143l-99 -208q-108 81 -180 105q-81 27 -157 27q-68 0 -117 -22q-58 -25 -58 -84q0 -51 52 -74 q47 -20 203 -49q192 -37 272 -91q114 -78 114 -238q0 -217 -204 -315q-73 -35 -168 -47l-77 -326h-301l149 320q-131 11 -237 40q-92 26 -193 80z" />
<glyph unicode="&#x160;" horiz-adv-x="1366" vert-adv-y="2288" d="M45 93l100 260q91 -58 157 -85q128 -52 294 -52q174 0 259 58q71 48 71 136q0 78 -68 119q-44 27 -94 44q-65 23 -177 59q-204 65 -296 134q-150 111 -150 311q0 231 175 351q143 97 378 97q323 0 517 -157l-99 -231q-63 51 -110 76q-123 65 -277 65q-124 0 -199 -42 q-76 -41 -76 -133q0 -80 63 -119q58 -36 255 -99q186 -60 257 -97q121 -63 172 -147q52 -86 52 -209q0 -213 -166 -339q-162 -123 -462 -123q-339 0 -576 123zM587 1605l-225 313h202l149 -143l148 143h203l-225 -313h-252z" />
<glyph unicode="&#x161;" vert-adv-y="2288" d="M14 93l100 233q86 -57 141 -82q125 -56 273 -56q234 0 234 125q0 47 -48 67q-37 15 -198 48q-197 40 -276 95q-111 77 -111 236q0 133 75 226q109 133 362 133q268 0 449 -143l-99 -208q-108 80 -180 105q-81 27 -157 27q-68 0 -117 -22q-58 -25 -58 -84q0 -51 52 -74 q47 -20 203 -49q192 -37 272 -91q114 -78 114 -238q0 -178 -136 -275t-370 -97q-295 0 -525 124zM444 1222l-225 325h202l149 -155l148 155h203l-225 -325h-252z" />
<glyph unicode="&#x162;" horiz-adv-x="1251" vert-adv-y="2288" d="M455 0v1223h-420l25 266h1146v-266h-415v-1223h-336zM351 -429l161 347h222l-82 -347h-301z" />
<glyph unicode="&#x163;" horiz-adv-x="682" vert-adv-y="2288" d="M141 868h-88v219q55 8 79 25q40 27 60 102l31 117h221v-244h176v-219h-176v-522q0 -70 23 -101q25 -33 81 -33q45 0 91 15v-221q-67 -29 -156 -29q-195 0 -278 113q-64 87 -64 261v517zM97 -429l161 347h222l-82 -347h-301z" />
<glyph unicode="&#x164;" horiz-adv-x="1251" vert-adv-y="2288" d="M455 0v1223h-420l25 266h1146v-266h-415v-1223h-336zM500 1605l-225 313h202l149 -143l148 143h203l-225 -313h-252z" />
<glyph unicode="&#x165;" horiz-adv-x="981" vert-adv-y="2288" d="M242 868h-88v219q55 8 79 25q40 27 60 102l31 117h221v-244h176v-219h-176v-522q0 -70 23 -101q25 -33 81 -33q45 0 91 15v-221q-67 -29 -156 -29q-195 0 -278 113q-64 87 -64 261v517zM717 1196l66 400h295l-145 -400h-216z" />
<glyph unicode="&#x16a;" horiz-adv-x="1479" vert-adv-y="2288" d="M142 1489h338v-963q0 -134 50 -209q66 -100 238 -100q177 0 242 117q39 70 39 194v961h289v-957q0 -204 -82 -336q-140 -227 -508 -227q-606 0 -606 557v963zM473 1652v208h582v-208h-582z" />
<glyph unicode="&#x16b;" horiz-adv-x="1251" vert-adv-y="2288" d="M139 1067l309 27v-708q0 -102 40 -136q34 -29 97 -29q93 0 208 70v776l309 27v-1094h-241l-52 162q-171 -193 -368 -193q-171 0 -250 128q-52 84 -52 250v720zM339 1276v208h582v-208h-582z" />
<glyph unicode="&#x16c;" horiz-adv-x="1479" vert-adv-y="2288" d="M142 1489h338v-963q0 -134 50 -209q66 -100 238 -100q177 0 242 117q39 70 39 194v961h289v-957q0 -204 -82 -336q-140 -227 -508 -227q-606 0 -606 557v963zM453 1897h194q17 -109 117 -109t117 109h194q-7 -123 -74 -196q-88 -97 -237 -97t-237 97q-67 73 -74 196z" />
<glyph unicode="&#x16d;" horiz-adv-x="1251" vert-adv-y="2288" d="M139 1067l309 27v-708q0 -102 40 -136q34 -29 97 -29q93 0 208 70v776l309 27v-1094h-241l-52 162q-171 -193 -368 -193q-171 0 -250 128q-52 84 -52 250v720zM318 1524h194q16 -109 117 -109q100 0 117 109h194q-7 -123 -74 -196q-88 -97 -237 -97t-237 97 q-67 73 -74 196z" />
<glyph unicode="&#x16e;" horiz-adv-x="1479" vert-adv-y="2288" d="M142 1489h338v-963q0 -134 50 -209q66 -100 238 -100q177 0 242 117q39 70 39 194v961h289v-957q0 -204 -82 -336q-140 -227 -508 -227q-606 0 -606 557v963zM764 2023q111 0 179 -69q62 -63 62 -157t-62 -157q-68 -69 -178 -69q-112 0 -180 69q-62 63 -62 160 q0 93 62 154q70 69 179 69zM764 1909q-54 0 -83 -38q-22 -29 -22 -73q0 -46 22 -75q29 -38 83 -38t83 38q22 28 22 74q0 47 -22 74q-30 38 -83 38z" />
<glyph unicode="&#x16f;" horiz-adv-x="1251" vert-adv-y="2288" d="M139 1067l309 27v-708q0 -102 40 -136q34 -29 97 -29q93 0 208 70v776l309 27v-1094h-241l-52 162q-171 -193 -368 -193q-171 0 -250 128q-52 84 -52 250v720zM629 1663q111 0 179 -69q62 -63 62 -157t-62 -157q-68 -69 -178 -69q-112 0 -180 69q-62 63 -62 160 q0 93 62 154q70 69 179 69zM629 1549q-54 0 -83 -38q-22 -29 -22 -73q0 -46 22 -75q29 -38 83 -38t83 38q22 28 22 74q0 47 -22 74q-30 38 -83 38z" />
<glyph unicode="&#x170;" horiz-adv-x="1479" vert-adv-y="2288" d="M142 1489h338v-963q0 -134 50 -209q66 -100 238 -100q177 0 242 117q39 70 39 194v961h289v-957q0 -204 -82 -336q-140 -227 -508 -227q-606 0 -606 557v963zM464 1605l83 313h255l-124 -313h-214zM829 1605l83 313h256l-125 -313h-214z" />
<glyph unicode="&#x171;" horiz-adv-x="1251" vert-adv-y="2288" d="M139 1067l309 27v-708q0 -102 40 -136q34 -29 97 -29q93 0 208 70v776l309 27v-1094h-241l-52 162q-171 -193 -368 -193q-171 0 -250 128q-52 84 -52 250v720zM337 1216l95 338h256l-137 -338h-214zM702 1216l96 338h255l-137 -338h-214z" />
<glyph unicode="&#x172;" horiz-adv-x="1479" vert-adv-y="2288" d="M142 1489h338v-963q0 -133 50 -209q66 -100 238 -100q178 0 243 117q38 70 38 195v960h289v-956q0 -500 -482 -558q-38 -70 -38 -125q0 -91 99 -91q42 0 92 18v-186q-73 -20 -151 -20q-115 0 -189 47q-81 52 -81 155q0 100 94 198q-262 17 -391 140q-149 143 -149 415 v963z" />
<glyph unicode="&#x173;" horiz-adv-x="1251" vert-adv-y="2288" d="M139 1067l309 27v-708q0 -102 40 -136q34 -29 97 -29q93 0 208 70v776l309 27v-1094h-85q-53 -87 -53 -150q0 -91 99 -91q42 0 92 18v-186q-72 -20 -151 -20q-115 0 -188 47q-82 52 -82 155q0 122 127 227l-52 162q-171 -193 -368 -193q-171 0 -250 128q-52 84 -52 250 v720z" />
<glyph unicode="&#x174;" horiz-adv-x="1933" vert-adv-y="2288" d="M405 0l-348 1489h348l203 -1022l264 1022h248l268 -1022l209 1022h279l-359 -1489h-305l-246 971l-258 -971h-303zM634 1605l225 313h252l225 -313h-203l-148 143l-149 -143h-202z" />
<glyph unicode="&#x176;" horiz-adv-x="1366" vert-adv-y="2288" d="M534 0v571l-481 918h362l320 -639l280 639h297l-440 -903v-586h-338zM370 1605l225 313h252l225 -313h-203l-148 143l-149 -143h-202z" />
<glyph unicode="&#x177;" vert-adv-y="2288" d="M223 -414l226 512l-414 989h324l237 -626l238 626h270l-608 -1501h-273zM249 1222l225 325h252l225 -325h-203l-148 155l-149 -155h-202z" />
<glyph unicode="&#x178;" horiz-adv-x="1366" vert-adv-y="2288" d="M534 0v571l-481 918h362l320 -639l280 639h297l-440 -903v-586h-338zM503 1911q69 0 114 -47q42 -43 42 -108q0 -66 -42 -109q-45 -47 -116 -47q-66 0 -111 47q-42 43 -42 109t42 108q46 47 113 47zM935 1911q69 0 114 -47q42 -43 42 -108q0 -66 -42 -109 q-44 -47 -116 -47q-66 0 -111 47q-42 43 -42 109t42 108q46 47 113 47z" />
<glyph unicode="&#x179;" horiz-adv-x="1251" vert-adv-y="2288" d="M86 0v227l670 996h-629l18 266h1008v-229l-668 -996h678l-20 -264h-1057zM547 1605l112 313h304l-191 -313h-225z" />
<glyph unicode="&#x17a;" horiz-adv-x="1024" vert-adv-y="2288" d="M90 0v182l496 690h-451v215h799v-182l-494 -690h498v-215h-848zM434 1216l118 338h304l-197 -338h-225z" />
<glyph unicode="&#x17b;" horiz-adv-x="1251" vert-adv-y="2288" d="M86 0v227l670 996h-629l18 266h1008v-229l-668 -996h678l-20 -264h-1057zM698 1917q72 0 119 -49q43 -45 43 -113t-43 -113q-47 -49 -119 -49t-119 49q-43 45 -43 115q0 67 43 111q48 49 119 49z" />
<glyph unicode="&#x17c;" horiz-adv-x="1024" vert-adv-y="2288" d="M90 0v182l496 690h-451v215h799v-182l-494 -690h498v-215h-848zM578 1545q72 0 119 -49q43 -45 43 -113t-43 -113q-47 -49 -119 -49t-119 49q-43 45 -43 115q0 67 43 111q48 49 119 49z" />
<glyph unicode="&#x17d;" horiz-adv-x="1251" vert-adv-y="2288" d="M86 0v227l670 996h-629l18 266h1008v-229l-668 -996h678l-20 -264h-1057zM560 1605l-225 313h202l149 -143l148 143h203l-225 -313h-252z" />
<glyph unicode="&#x17e;" horiz-adv-x="1024" vert-adv-y="2288" d="M90 0v182l496 690h-451v215h799v-182l-494 -690h498v-215h-848zM416 1222l-225 325h202l149 -155l148 155h203l-225 -325h-252z" />
<glyph unicode="&#x192;" vert-adv-y="2288" d="M183 639v209h197l22 207q23 212 126 315q109 109 317 109h126v-229q-39 6 -76 6q-112 0 -157 -52q-39 -44 -51 -145l-25 -211h242v-209h-264l-111 -1020h-287l113 1020h-172z" />
<glyph unicode="&#x1cd;" horiz-adv-x="1479" vert-adv-y="2288" d="M979 328h-553l-114 -328h-281l551 1491h321l545 -1491h-356zM902 553l-197 574l-201 -574h398zM614 1605l-225 313h202l149 -143l148 143h203l-225 -313h-252z" />
<glyph unicode="&#x1ce;" vert-adv-y="2288" d="M698 139q-119 -170 -304 -170q-151 0 -233 95q-69 81 -69 229q0 152 76 234q63 69 182 94q104 22 332 34v50q0 86 -36 126q-40 43 -140 43t-208 -29q-41 -11 -134 -42v241q188 74 379 74q255 0 357 -113q89 -98 89 -296v-426q0 -76 65 -76q15 0 33 4v-195 q-67 -34 -155 -34q-110 0 -172 57q-38 34 -62 100zM682 473q-152 -10 -200 -23q-61 -17 -79 -57q-10 -24 -10 -69q0 -83 29 -114q31 -34 89 -34q86 0 171 84v213zM443 1222l-225 325h202l149 -155l148 155h203l-225 -325h-252z" />
<glyph unicode="&#x1d3;" horiz-adv-x="1479" vert-adv-y="2288" d="M142 1489h338v-963q0 -134 50 -209q66 -100 238 -100q177 0 242 117q39 70 39 194v961h289v-957q0 -204 -82 -336q-140 -227 -508 -227q-606 0 -606 557v963zM638 1605l-225 313h202l149 -143l148 143h203l-225 -313h-252z" />
<glyph unicode="&#x1e6;" horiz-adv-x="1593" vert-adv-y="2288" d="M1435 69q-258 -100 -534 -100q-310 0 -511 123q-149 91 -224 267q-36 84 -48 197q-8 79 -12 200v0q9 242 59 363q99 240 326 340q148 65 348 65q399 0 579 -256l-213 -180q-39 65 -77 99q-100 91 -269 91q-215 0 -318 -145q-84 -120 -84 -386q0 -183 37 -285 q88 -241 416 -241q108 0 210 24v291h-264v250h579v-717zM719 1605l-225 313h202l149 -143l148 143h203l-225 -313h-252z" />
<glyph unicode="&#x1e7;" horiz-adv-x="1251" vert-adv-y="2288" d="M382 397q-36 -42 -36 -83q0 -53 43 -74q27 -13 94 -13h311q194 0 292 -51q130 -68 130 -247q0 -139 -70 -219q-83 -94 -260 -130q-100 -20 -274 -20q-292 0 -429 58q-159 68 -159 212q0 138 188 211q-100 59 -100 165q0 134 150 253q-127 102 -127 283q0 183 122 282 q114 94 347 94q132 0 235 -31h365v-169h-66q-55 0 -94 -12q29 -77 29 -159q0 -208 -147 -308q-95 -65 -252 -76q-30 -2 -67 -3v0q-140 1 -225 37zM369 0q-64 -50 -64 -121q0 -53 47 -80q62 -36 261 -36q176 0 247 29q42 18 59 45q14 23 14 62q0 64 -50 85q-38 16 -117 16 h-397zM604 918q-99 0 -140 -45q-38 -40 -38 -133t38 -134q41 -45 137 -45q102 0 143 45q38 41 38 134t-38 133q-42 45 -140 45zM517 1222l-225 325h202l149 -155l148 155h203l-225 -325h-252z" />
<glyph unicode="&#x1f4;" horiz-adv-x="1593" vert-adv-y="2288" d="M1435 69q-258 -100 -534 -100q-310 0 -511 123q-149 91 -224 267q-36 84 -48 197q-8 79 -12 200v0q9 242 59 363q99 240 326 340q148 65 348 65q399 0 579 -256l-213 -180q-39 65 -77 99q-100 91 -269 91q-215 0 -318 -145q-84 -120 -84 -386q0 -183 37 -285 q88 -241 416 -241q108 0 210 24v291h-264v250h579v-717zM700 1605l112 313h304l-191 -313h-225z" />
<glyph unicode="&#x2bc;" horiz-adv-x="569" vert-adv-y="2288" d="M289 1257q-176 7 -176 143q0 68 46 111q45 41 116 41q96 0 150 -71q45 -61 45 -153q0 -175 -136 -279q-81 -62 -218 -84v115q83 25 121 67q39 42 52 110z" />
<glyph unicode="&#x2c6;" horiz-adv-x="682" vert-adv-y="2288" d="M-10 1222l225 325h252l225 -325h-203l-148 155l-149 -155h-202z" />
<glyph unicode="&#x2c7;" horiz-adv-x="682" vert-adv-y="2288" d="M215 1222l-225 325h202l149 -155l148 155h203l-225 -325h-252z" />
<glyph unicode="&#x2c9;" horiz-adv-x="682" vert-adv-y="2288" d="M50 1276v208h582v-208h-582z" />
<glyph unicode="&#x2d8;" horiz-adv-x="682" vert-adv-y="2288" d="M30 1524h194q16 -109 117 -109q100 0 117 109h194q-7 -123 -74 -196q-88 -97 -237 -97t-237 97q-67 73 -74 196z" />
<glyph unicode="&#x2d9;" horiz-adv-x="682" vert-adv-y="2288" d="M341 1545q72 0 119 -49q43 -45 43 -113t-43 -113q-47 -49 -119 -49t-119 49q-43 45 -43 115q0 67 43 111q48 49 119 49z" />
<glyph unicode="&#x2da;" horiz-adv-x="682" vert-adv-y="2288" d="M341 1663q111 0 179 -69q62 -63 62 -157t-62 -157q-68 -69 -178 -69q-112 0 -180 69q-62 63 -62 160q0 93 62 154q70 69 179 69zM341 1549q-54 0 -83 -38q-22 -29 -22 -73q0 -46 22 -75q29 -38 83 -38t83 38q22 28 22 74q0 47 -22 74q-30 38 -83 38z" />
<glyph unicode="&#x2db;" horiz-adv-x="682" vert-adv-y="2288" d="M594 -409q-72 -20 -151 -20q-115 0 -189 47q-81 52 -81 155q0 121 126 227h156q-52 -91 -52 -150q0 -91 99 -91q42 0 92 18v-186z" />
<glyph unicode="&#x2dc;" horiz-adv-x="682" vert-adv-y="2288" d="M84 1232l-101 112q103 165 244 165q50 0 131 -27q70 -23 110 -23q65 0 129 68l101 -112q-103 -166 -243 -166q-50 0 -131 26q-71 24 -111 24q-66 0 -129 -67z" />
<glyph unicode="&#x2dd;" horiz-adv-x="682" vert-adv-y="2288" d="M48 1216l95 338h256l-137 -338h-214zM413 1216l96 338h255l-137 -338h-214z" />
<glyph unicode="&#x387;" horiz-adv-x="569" vert-adv-y="2288" d="M283 860q80 0 129 -51q46 -49 46 -124t-46 -124q-49 -51 -128 -51q-81 0 -130 51q-46 49 -46 126q0 74 46 122q50 51 129 51z" />
<glyph unicode="&#x1e84;" horiz-adv-x="1933" vert-adv-y="2288" d="M405 0l-348 1489h348l203 -1022l264 1022h248l268 -1022l209 1022h279l-359 -1489h-305l-246 971l-258 -971h-303zM779 1911q69 0 114 -47q42 -43 42 -108q0 -66 -42 -109q-45 -47 -116 -47q-66 0 -111 47q-42 43 -42 109t42 108q46 47 113 47zM1211 1911q69 0 114 -47 q42 -43 42 -108q0 -66 -42 -109q-44 -47 -116 -47q-66 0 -111 47q-42 43 -42 109t42 108q46 47 113 47z" />
<glyph unicode="&#x2011;" horiz-adv-x="682" vert-adv-y="2288" d="M87 571v222h508v-222h-508z" />
<glyph unicode="&#x2012;" vert-adv-y="2288" d="M91 581v207h958v-207h-958z" />
<glyph unicode="&#x2013;" vert-adv-y="2288" d="M91 581v207h958v-207h-958z" />
<glyph unicode="&#x2014;" horiz-adv-x="2048" vert-adv-y="2288" d="M287 581v207h1474v-207h-1474z" />
<glyph unicode="&#x2015;" horiz-adv-x="2048" vert-adv-y="2288" d="M287 581v207h1474v-207h-1474z" />
<glyph unicode="&#x2017;" horiz-adv-x="1131" vert-adv-y="2288" d="M156 -279v104h819v-104h-819zM156 -463v104h819v-104h-819z" />
<glyph unicode="&#x2018;" horiz-adv-x="569" vert-adv-y="2288" d="M280 1263q176 -8 176 -144q0 -67 -46 -111q-45 -41 -116 -41q-97 0 -150 71q-45 61 -45 154q0 174 136 278q81 63 218 84v-115q-82 -25 -121 -67t-52 -109z" />
<glyph unicode="&#x2019;" horiz-adv-x="569" vert-adv-y="2288" d="M289 1257q-176 7 -176 143q0 68 46 111q45 41 116 41q96 0 150 -71q45 -61 45 -153q0 -175 -136 -279q-81 -62 -218 -84v115q83 25 121 67q39 42 52 110z" />
<glyph unicode="&#x201a;" horiz-adv-x="569" vert-adv-y="2288" d="M289 24q-176 7 -176 143q0 68 46 111q45 41 116 41q96 0 150 -71q45 -61 45 -153q0 -175 -136 -279q-81 -62 -218 -83v114q83 25 121 67q39 42 52 110z" />
<glyph unicode="&#x201c;" horiz-adv-x="1024" vert-adv-y="2288" d="M280 1263q176 -8 176 -144q0 -67 -46 -111q-45 -41 -116 -41q-97 0 -150 71q-45 61 -45 154q0 174 136 278q81 63 218 84v-115q-82 -25 -121 -67t-52 -109zM735 1263q176 -8 176 -144q0 -68 -46 -111q-45 -41 -116 -41q-96 0 -150 71q-45 61 -45 154q0 174 136 278 q81 63 218 84v-115q-83 -25 -121 -67q-39 -42 -52 -109z" />
<glyph unicode="&#x201d;" horiz-adv-x="1024" vert-adv-y="2288" d="M289 1257q-176 7 -176 143q0 68 46 111q45 41 116 41q96 0 150 -71q45 -61 45 -153q0 -175 -136 -279q-81 -62 -218 -84v115q83 25 121 67q39 42 52 110zM744 1257q-176 7 -176 143q0 68 46 111q45 41 116 41q97 0 150 -71q45 -61 45 -153q0 -175 -136 -279 q-81 -62 -218 -84v115q82 25 121 67t52 110z" />
<glyph unicode="&#x201e;" horiz-adv-x="1024" vert-adv-y="2288" d="M289 24q-176 7 -176 143q0 68 46 111q45 41 116 41q96 0 150 -71q45 -61 45 -153q0 -175 -136 -279q-81 -62 -218 -83v114q83 25 121 67q39 42 52 110zM744 24q-176 8 -176 143q0 68 46 111q45 41 116 41q97 0 150 -71q45 -61 45 -153q0 -175 -136 -279q-81 -62 -218 -83 v114q82 25 121 67t52 110z" />
<glyph unicode="&#x2020;" vert-adv-y="2288" d="M123 850l23 262h270v377h305v-377h299v-262h-299v-1055h-305v1055h-293z" />
<glyph unicode="&#x2021;" vert-adv-y="2288" d="M123 850l23 262h270v377h305v-377h299v-262h-299v-416h293l-21 -262h-272v-377h-305v377h-297v262h297v416h-293z" />
<glyph unicode="&#x2022;" horiz-adv-x="717" vert-adv-y="2288" d="M360 1008q131 0 219 -92q83 -86 83 -210q0 -125 -83 -211q-88 -92 -219 -92q-132 0 -221 92q-82 86 -82 214q0 123 82 207q91 92 221 92z" />
<glyph unicode="&#x2026;" horiz-adv-x="2048" vert-adv-y="2288" d="M340 321q80 0 129 -51q46 -49 46 -124t-46 -124q-48 -51 -128 -51q-81 0 -130 51q-46 50 -46 126q0 73 46 122q49 51 129 51zM1023 321q80 0 129 -51q46 -49 46 -124q0 -74 -46 -124q-48 -51 -128 -51q-82 0 -130 51q-46 50 -46 126q0 73 46 122q49 51 129 51zM1705 321 q80 0 129 -51q46 -49 46 -124q0 -74 -46 -124q-49 -51 -128 -51q-82 0 -130 51q-46 50 -46 126q0 73 46 122q49 51 129 51z" />
<glyph unicode="&#x2030;" horiz-adv-x="2048" vert-adv-y="2288" d="M76 1102v39q0 149 70 238q78 100 225 100q160 0 238 -118q57 -86 57 -220v-39q0 -149 -70 -238q-78 -100 -225 -100q-160 0 -238 118q-57 86 -57 220zM453 1088v67q0 92 -15 126q-19 45 -67 45q-51 0 -69 -50q-13 -35 -13 -121v-67q0 -92 15 -126q19 -45 67 -45 q51 0 69 50q13 35 13 121zM119 0l971 1446h190l-971 -1446h-190zM731 309v39q0 149 70 238q78 100 225 100q160 0 238 -118q57 -86 57 -220v-39q0 -148 -70 -238q-78 -100 -225 -100q-160 0 -238 118q-57 86 -57 220zM1108 295v67q0 93 -15 126q-19 45 -67 45q-51 0 -69 -50 q-13 -35 -13 -121v-67q0 -93 15 -126q19 -45 67 -45q51 0 69 50q13 35 13 121zM1385 309v39q0 149 70 238q78 100 225 100q160 0 238 -118q56 -86 56 -220v-39q0 -149 -69 -238q-78 -100 -225 -100q-160 0 -238 118q-57 86 -57 220zM1762 295v67q0 93 -15 126q-19 45 -67 45 q-51 0 -69 -50q-13 -35 -13 -121v-67q0 -92 15 -126q19 -45 67 -45q51 0 69 50q13 35 13 121z" />
<glyph unicode="&#x2039;" horiz-adv-x="682" vert-adv-y="2288" d="M387 94l-295 373v135l295 375h209l-240 -442l240 -441h-209z" />
<glyph unicode="&#x203a;" horiz-adv-x="682" vert-adv-y="2288" d="M84 94l244 441l-244 442h209l295 -373v-135l-295 -375h-209z" />
<glyph unicode="&#x203e;" horiz-adv-x="1131" vert-adv-y="2288" d="M166 1714v187h800v-187h-800z" />
<glyph unicode="&#x2044;" horiz-adv-x="342" vert-adv-y="2288" d="M-436 0l1012 1446h202l-1013 -1446h-201z" />
<glyph unicode="&#x2070;" horiz-adv-x="778" vert-adv-y="2288" d="M66 1017v140q0 147 78 230q87 92 245 92q174 0 259 -109q64 -81 64 -213v-140q0 -146 -78 -230q-87 -92 -245 -92q-173 0 -259 109q-64 81 -64 213zM498 1020v134q0 89 -21 126q-27 47 -88 47q-66 0 -92 -55q-17 -37 -17 -118v-134q0 -89 21 -127q27 -46 88 -46 q67 0 92 55q17 37 17 118z" />
<glyph unicode="&#x2074;" horiz-adv-x="778" vert-adv-y="2288" d="M42 856v123l380 534h223l-366 -517h191v197l190 23v-220h88v-140h-88v-136h-190v136h-428z" />
<glyph unicode="&#x2075;" horiz-adv-x="778" vert-adv-y="2288" d="M683 1463l-21 -161h-330l-18 -125q53 8 98 8q271 0 271 -206q0 -157 -135 -228q-114 -60 -304 -79q-57 -6 -172 -10v161q169 6 273 42q118 41 118 102q0 76 -154 76q-88 0 -199 -21l68 441h505z" />
<glyph unicode="&#x2076;" horiz-adv-x="778" vert-adv-y="2288" d="M292 1152q73 52 181 52q247 0 247 -237q0 -139 -93 -209q-83 -63 -226 -63q-163 0 -250 86q-89 86 -89 278q0 143 51 229q85 143 299 195q83 20 232 29v-163q-172 -13 -253 -62q-80 -49 -99 -135zM279 1023q0 -185 123 -185q108 0 108 118q0 108 -107 108q-41 0 -80 -17 q-15 -6 -32 -16z" />
<glyph unicode="&#x2077;" horiz-adv-x="778" vert-adv-y="2288" d="M87 669l405 623h-428l19 171h630v-129l-377 -665h-249z" />
<glyph unicode="&#x2078;" horiz-adv-x="778" vert-adv-y="2288" d="M600 1123q57 -30 81 -60q40 -48 40 -131q0 -125 -92 -182q-89 -55 -237 -55q-336 0 -336 217q0 91 59 137q21 17 63 37q-39 26 -56 47q-36 47 -36 123q0 115 83 168q85 55 223 55q299 0 299 -203q0 -77 -42 -117q-17 -17 -49 -36zM431 1163q72 46 72 96q0 40 -33 61 q-34 22 -82 22t-80 -22q-28 -19 -28 -50q0 -58 151 -107zM344 1039q-99 -42 -99 -110q0 -44 42 -70q45 -27 106 -27q59 0 97 25q36 24 36 64q0 46 -72 79q-34 16 -80 30z" />
<glyph unicode="&#x2079;" horiz-adv-x="778" vert-adv-y="2288" d="M486 1022q-72 -52 -180 -52q-248 0 -248 242q0 142 98 210q83 57 221 57q340 0 340 -362q0 -144 -49 -227q-87 -146 -319 -199q-83 -19 -244 -29v162q197 12 286 67q74 46 95 131zM501 1151v11q0 174 -125 174q-108 0 -108 -118q0 -107 111 -107q40 0 79 17q43 18 43 23z " />
<glyph unicode="&#x2080;" horiz-adv-x="778" vert-adv-y="2288" d="M66 297v140q0 146 78 230q87 92 245 92q173 0 259 -109q64 -81 64 -213v-140q0 -146 -78 -230q-87 -92 -245 -92q-173 0 -259 109q-64 81 -64 213zM498 299v135q0 88 -21 126q-27 47 -88 47q-67 0 -92 -55q-17 -37 -17 -118v-135q0 -88 21 -126q27 -46 88 -46q67 0 92 55 q17 37 17 117z" />
<glyph unicode="&#x2081;" horiz-adv-x="778" vert-adv-y="2288" d="M125 0v136h176v421l-185 -59v157l273 101h139v-620h165v-136h-568z" />
<glyph unicode="&#x2082;" horiz-adv-x="778" vert-adv-y="2288" d="M75 0v130l26 17q202 139 267 200q100 91 100 160q0 87 -128 87q-100 0 -244 -62v169q135 58 285 58q308 0 308 -232q0 -121 -86 -210q-58 -60 -187 -154h286l-20 -163h-607z" />
<glyph unicode="&#x2083;" horiz-adv-x="778" vert-adv-y="2288" d="M61 -58v157q182 12 274 40q137 42 137 109q0 69 -110 69q-43 0 -149 -17v132q125 19 162 35q66 27 66 72q0 65 -103 65q-90 0 -245 -59v162q158 52 289 52q128 0 203 -45q74 -44 74 -152q0 -72 -36 -112q-15 -16 -46 -35q54 -18 80 -45q40 -41 40 -113q0 -148 -123 -214 q-125 -68 -344 -90q-43 -4 -169 -11z" />
<glyph unicode="&#x2084;" horiz-adv-x="778" vert-adv-y="2288" d="M42 136v123l380 534h223l-366 -517h191v197l190 23v-220h88v-140h-88v-136h-190v136h-428z" />
<glyph unicode="&#x2085;" horiz-adv-x="778" vert-adv-y="2288" d="M683 743l-21 -161h-330l-18 -125q56 8 99 8q270 0 270 -206q0 -157 -135 -228q-114 -61 -304 -79q-55 -5 -172 -10v161q173 7 273 42q118 41 118 102q0 76 -155 76q-87 0 -198 -21l68 441h505z" />
<glyph unicode="&#x2086;" horiz-adv-x="778" vert-adv-y="2288" d="M292 432q74 51 181 51q247 0 247 -236q0 -139 -93 -209q-83 -63 -226 -63q-163 0 -250 86q-89 86 -89 277q0 144 51 230q85 143 299 195q79 19 232 29v-163q-172 -13 -253 -62q-80 -49 -99 -135zM279 303q0 -185 123 -185q108 0 108 118q0 107 -107 107q-40 0 -80 -16 q-16 -7 -32 -17z" />
<glyph unicode="&#x2087;" horiz-adv-x="778" vert-adv-y="2288" d="M87 -51l405 623h-428l19 171h630v-129l-377 -665h-249z" />
<glyph unicode="&#x2088;" horiz-adv-x="778" vert-adv-y="2288" d="M600 403q57 -31 81 -60q40 -48 40 -131q0 -126 -92 -182q-89 -55 -238 -55q-335 0 -335 217q0 91 59 137q22 17 63 37q-40 26 -56 47q-36 47 -36 122q0 116 83 170q84 54 224 54q298 0 298 -203q0 -77 -42 -117q-17 -17 -49 -36zM431 443q3 2 7 4q0 1 4 3q61 38 61 89 q0 40 -33 61q-34 22 -82 22t-80 -22q-28 -19 -28 -50q0 -58 151 -107zM344 319q-5 -3 -11 -5q-88 -39 -88 -105q0 -44 42 -70q45 -27 105 -27q59 0 98 25q36 24 36 64q0 45 -72 79q-37 17 -110 39z" />
<glyph unicode="&#x2089;" horiz-adv-x="778" vert-adv-y="2288" d="M486 301q-73 -51 -180 -51q-248 0 -248 242q0 142 98 210q83 57 221 57q340 0 340 -363q0 -143 -49 -226q-87 -146 -319 -200q-83 -19 -244 -28v161q197 13 286 68q74 46 95 130zM501 431v11q0 174 -125 174q-108 0 -108 -118q0 -107 111 -107q40 0 79 17q15 6 32 16z " />
<glyph unicode="&#x20ac;" vert-adv-y="2288" d="M82 799v166h119q11 92 25 152q43 183 185 279q128 87 333 87q151 0 288 -47v-248q-141 56 -262 56q-158 0 -213 -90q-37 -61 -47 -189h328v-166h-330v-144h330v-166h-328q10 -108 33 -160q53 -116 227 -116q104 0 275 61v-235q-157 -70 -313 -70q-309 0 -442 204 q-59 92 -80 235q-3 26 -9 81h-119v166h117v144h-117z" />
<glyph unicode="&#x2122;" horiz-adv-x="2048" vert-adv-y="2288" d="M936 688l17 801h268l166 -428l174 428h276v-801h-231v514l-180 -440h-119l-174 430l-8 -504h-189zM141 1317l14 172h668v-172h-228v-629h-225v629h-229z" />
<glyph unicode="&#x2126;" horiz-adv-x="1573" vert-adv-y="2288" d="M41 0v227l320 -35q-102 75 -163 158q-115 158 -115 408q0 207 73 375q170 393 630 393q359 0 539 -235q165 -214 165 -534q0 -266 -134 -432q-56 -68 -144 -133l320 35v-227h-667v227q108 13 179 108q96 129 96 397q0 283 -84 415q-84 131 -270 131q-199 0 -282 -153 q-71 -133 -71 -393q0 -268 96 -397q71 -95 179 -108v-227h-667z" />
<glyph unicode="&#x2202;" horiz-adv-x="1012" vert-adv-y="2288" d="M197 1547h344q198 -170 308 -376q87 -161 112 -320q21 -135 21 -259q0 -294 -99 -434q-136 -190 -379 -190q-247 0 -373 180q-101 145 -101 400q0 283 125 426q111 127 280 127q71 0 112 -26q-73 144 -157 256q-74 99 -193 216zM514 887q-95 0 -134 -100 q-31 -80 -31 -251q0 -167 33 -244q41 -95 125 -95q87 0 124 101q30 82 30 266q0 165 -31 236q-38 87 -116 87z" />
<glyph unicode="&#x2206;" horiz-adv-x="1253" vert-adv-y="2288" d="M1314 0h-1376l551 1491h280zM881 225l-290 844l-294 -844h584z" />
<glyph unicode="&#x220f;" horiz-adv-x="1686" vert-adv-y="2288" d="M311 -325v261l387 787l-355 700v263h1002v-260h-636l350 -701l-382 -793h737v-257h-1103z" />
<glyph unicode="&#x2211;" horiz-adv-x="1460" vert-adv-y="2288" d="M1354 1686v-260h-131v-1751h-323v1751h-340v-1751h-323v1751h-130v260h1247z" />
<glyph unicode="&#x2212;" horiz-adv-x="1196" vert-adv-y="2288" d="M131 572v225h932v-225h-932z" />
<glyph unicode="&#x221a;" horiz-adv-x="1124" vert-adv-y="2288" d="M372 0l-205 603h-133v231h359l134 -455l434 1493h645v-224h-417l-496 -1648h-321z" />
<glyph unicode="&#x221e;" horiz-adv-x="1460" vert-adv-y="2288" d="M730 555q-49 -70 -92 -108q-113 -100 -259 -100q-172 0 -259 114q-73 96 -73 248q0 153 73 248q87 114 260 114q154 0 272 -113q37 -36 78 -95q145 208 351 208q172 0 259 -114q73 -95 73 -248q0 -152 -73 -248q-87 -114 -259 -114q-206 0 -351 208zM615 709l-14 17 q-63 87 -99 116q-58 47 -109 47q-60 0 -92 -51q-33 -52 -33 -129q0 -79 36 -133q31 -47 88 -47q56 0 125 62q29 26 83 100zM845 709l15 -18q48 -66 61 -79q83 -83 147 -83q58 0 89 47q36 54 36 133q0 76 -33 129q-32 51 -91 51q-55 0 -117 -53q-34 -28 -93 -110z" />
<glyph unicode="&#x222b;" horiz-adv-x="561" vert-adv-y="2288" d="M-86 -323v192q65 -16 109 -16q72 0 93 64q11 33 11 128v1219q0 142 8 203q18 143 109 205q79 53 217 53q103 0 191 -33v-192q-67 17 -109 17q-73 0 -94 -64q-11 -33 -11 -129v-1219q0 -142 -8 -203q-18 -143 -110 -204q-79 -53 -216 -53q-103 0 -190 32z" />
<glyph unicode="&#x2243;" horiz-adv-x="1196" vert-adv-y="2288" d="M243 727l-110 127q137 188 319 188q64 0 173 -30q96 -27 147 -27q64 0 123 40q23 15 58 44l110 -129q-59 -78 -113 -119q-92 -70 -206 -70q-62 0 -170 30q-96 27 -142 27q-67 0 -121 -31q-23 -14 -68 -50zM132 375v225h932v-225h-932z" />
<glyph unicode="&#x2248;" horiz-adv-x="1124" vert-adv-y="2288" d="M207 727l-110 127q137 188 320 188q64 0 172 -30q96 -27 147 -27q64 0 123 40q23 15 58 44l110 -129q-58 -78 -113 -119q-92 -70 -206 -70q-62 0 -170 30q-96 27 -142 27q-66 0 -120 -31q-24 -14 -69 -50zM207 302l-110 127q138 188 320 188q64 0 172 -30q95 -26 146 -26 q66 0 124 39q21 15 58 44l110 -128q-58 -78 -113 -120q-91 -69 -207 -69q-63 0 -169 29q-96 27 -142 27q-67 0 -120 -31q-22 -13 -69 -50z" />
<glyph unicode="&#x2260;" horiz-adv-x="1124" vert-adv-y="2288" d="M815 993h213v-225h-319l-80 -168h399v-225h-505l-102 -215l-179 77l65 138h-211v225h318l79 168h-397v225h504l103 218l179 -77z" />
<glyph unicode="&#x2264;" horiz-adv-x="1124" vert-adv-y="2288" d="M999 285l-894 346v220l894 348v-233l-644 -224l644 -224v-233zM105 0v207h894v-207h-894z" />
<glyph unicode="&#x2265;" horiz-adv-x="1124" vert-adv-y="2288" d="M125 285v233l644 224l-644 224v233l894 -346v-220zM125 0v207h894v-207h-894z" />
<glyph unicode="&#x22c5;" horiz-adv-x="569" vert-adv-y="2288" d="M283 860q80 0 129 -51q46 -49 46 -124t-46 -124q-49 -51 -128 -51q-81 0 -130 51q-46 49 -46 126q0 74 46 122q50 51 129 51z" />
<glyph unicode="&#x25ca;" horiz-adv-x="1012" vert-adv-y="2288" d="M506 -98l-559 842l559 842l559 -842zM506 353l250 391l-250 391l-249 -391z" />
<glyph unicode="&#xe000;" horiz-adv-x="1085" vert-adv-y="2169" d="M0 1085h1085v-1085h-1085v1085z" />
<glyph unicode="&#xea3f;" horiz-adv-x="311" vert-adv-y="2288" d="M-1 1154l66 400h295l-145 -400h-216z" />
<glyph unicode="&#xea4f;" horiz-adv-x="682" vert-adv-y="2288" d="M618 1554l-118 -338h-304l197 338h225z" />
<glyph unicode="&#xea66;" horiz-adv-x="682" vert-adv-y="2288" d="M97 -429l161 347h222l-82 -347h-301z" />
<glyph unicode="&#xea67;" horiz-adv-x="682" vert-adv-y="2288" d="M145 1154l66 400h295l-145 -400h-216z" />
<glyph unicode="&#xea69;" horiz-adv-x="682" vert-adv-y="2288" d="M97 -429l161 347h222l-82 -347h-301z" />
<glyph unicode="&#xea6d;" horiz-adv-x="1366" vert-adv-y="2288" d="M45 93l100 260q91 -58 157 -85q128 -52 294 -52q174 0 259 58q71 48 71 136q0 78 -68 119q-44 27 -94 44q-65 23 -177 59q-204 65 -296 134q-150 111 -150 311q0 231 175 351q143 97 378 97q323 0 517 -157l-99 -231q-63 51 -110 76q-123 65 -277 65q-124 0 -199 -42 q-76 -41 -76 -133q0 -80 63 -119q58 -36 255 -99q186 -60 257 -97q121 -63 172 -147q52 -86 52 -209q0 -213 -166 -339q-162 -123 -462 -123q-339 0 -576 123zM378 -429l161 347h222l-82 -347h-301z" />
<glyph unicode="&#xea6e;" vert-adv-y="2288" d="M14 93l100 233q86 -57 141 -82q125 -56 273 -56q234 0 234 125q0 47 -48 67q-37 15 -198 48q-197 40 -276 95q-111 77 -111 236q0 133 75 226q109 133 362 133q268 0 449 -143l-99 -208q-108 80 -180 105q-81 27 -157 27q-68 0 -117 -22q-58 -25 -58 -84q0 -51 52 -74 q47 -20 203 -49q192 -37 272 -91q114 -78 114 -238q0 -178 -136 -275t-370 -97q-295 0 -525 124zM289 -429l161 347h222l-82 -347h-301z" />
<glyph unicode="&#xefed;" horiz-adv-x="682" vert-adv-y="2288" d="M341 1917q72 0 119 -49q43 -45 43 -113t-43 -113q-47 -49 -119 -49t-119 49q-43 45 -43 115q0 67 43 111q48 49 119 49z" />
<glyph unicode="&#xefee;" horiz-adv-x="682" vert-adv-y="2288" d="M30 1897h194q17 -109 117 -109t117 109h194q-7 -123 -74 -196q-88 -97 -237 -97t-237 97q-67 73 -74 196z" />
<glyph unicode="&#xeff1;" horiz-adv-x="682" vert-adv-y="2288" d="M594 -409q-72 -20 -151 -20q-115 0 -189 47q-81 52 -81 155q0 121 126 227h156q-52 -91 -52 -150q0 -91 99 -91q42 0 92 18v-186z" />
<glyph unicode="&#xeff2;" horiz-adv-x="682" vert-adv-y="2288" d="M95 -347l161 347h222l-82 -347h-301z" />
<glyph unicode="&#xeff3;" horiz-adv-x="682" vert-adv-y="2288" d="M341 2023q111 0 179 -69q62 -63 62 -157t-62 -157q-68 -69 -178 -69q-112 0 -180 69q-62 63 -62 160q0 93 62 154q70 69 179 69zM341 1909q-54 0 -83 -38q-22 -29 -22 -73q0 -46 22 -75q29 -38 83 -38t83 38q22 28 22 74q0 47 -22 74q-30 38 -83 38z" />
<glyph unicode="&#xeff5;" horiz-adv-x="682" vert-adv-y="2288" d="M84 1610l-101 111q103 165 244 165q50 0 131 -27q70 -23 110 -23q65 0 129 68l101 -112q-104 -166 -243 -166q-51 0 -131 26q-70 24 -111 24q-67 0 -129 -66z" />
<glyph unicode="&#xeff7;" horiz-adv-x="682" vert-adv-y="2288" d="M-10 1605l225 313h252l225 -313h-203l-148 143l-149 -143h-202z" />
<glyph unicode="&#xf6be;" horiz-adv-x="569" vert-adv-y="2288" d="M-25 -426v225q88 15 124 64q32 45 32 126v1055q176 5 237 64h70v-1104q0 -216 -135 -325q-106 -86 -328 -105z" />
<glyph unicode="&#xf6c9;" horiz-adv-x="682" vert-adv-y="2288" d="M208 1605l112 313h304l-191 -313h-225z" />
<glyph unicode="&#xf6ca;" horiz-adv-x="682" vert-adv-y="2288" d="M215 1605l-225 313h202l149 -143l148 143h203l-225 -313h-252z" />
<glyph unicode="&#xf6cb;" horiz-adv-x="682" vert-adv-y="2288" d="M125 1911q69 0 114 -47q42 -43 42 -108q0 -66 -42 -109q-45 -47 -116 -47q-66 0 -111 47q-42 43 -42 109t42 108q46 47 113 47zM557 1911q69 0 114 -47q42 -43 42 -108q0 -66 -42 -109q-44 -47 -116 -47q-66 0 -111 47q-42 43 -42 109t42 108q46 47 113 47z" />
<glyph unicode="&#xf6ce;" horiz-adv-x="682" vert-adv-y="2288" d="M473 1605h-225l-191 313h304z" />
<glyph unicode="&#xf6cf;" horiz-adv-x="682" vert-adv-y="2288" d="M65 1605l83 313h255l-124 -313h-214zM430 1605l83 313h256l-125 -313h-214z" />
<glyph unicode="&#xf6d0;" horiz-adv-x="682" vert-adv-y="2288" d="M50 1652v208h582v-208h-582z" />
<glyph unicode="&#xfb00;" horiz-adv-x="1290" vert-adv-y="2288" d="M151 868h-106v219h106v49q0 412 396 412h119v-232q-36 7 -64 7q-90 0 -124 -53q-24 -39 -24 -109v-74h347v49q0 412 395 412h119v-232q-37 7 -65 7q-89 0 -122 -53q-24 -39 -24 -109v-74h184v-219h-184v-868h-303v868h-347v-868h-303v868z" />
<glyph unicode="&#xfb01;" horiz-adv-x="1278" vert-adv-y="2288" d="M151 868h-106v219h106v49q0 412 396 412h119v-231q-35 6 -64 6q-90 0 -124 -53q-24 -38 -24 -109v-74h376q180 0 229 31h90v-1118h-309v868h-386v-868h-303v868zM994 1545q72 0 119 -48q43 -45 43 -113t-43 -113q-47 -49 -118 -49q-72 0 -119 49q-43 45 -43 115 q0 66 43 111q48 48 118 48z" />
<glyph unicode="&#xfb02;" horiz-adv-x="1290" vert-adv-y="2288" d="M200 868h-137v219h137v27q0 174 62 271q106 166 430 166q203 0 465 -57v-1494h-309v1314q-71 11 -133 11q-140 0 -183 -65q-29 -42 -29 -116v-57h189v-219h-189v-868h-303v868z" />
<glyph horiz-adv-x="569" vert-adv-y="2288" />
<glyph vert-adv-y="1139" />
<glyph horiz-adv-x="569" vert-adv-y="2288" />
<glyph horiz-adv-x="1158" vert-adv-y="2288" d="M74 616v221q0 293 110 453q134 193 395 193t395 -193q111 -160 111 -453v-221q0 -311 -127 -474q-134 -172 -379 -172t-378 172q-127 164 -127 474zM755 591v271q0 171 -32 264q-20 60 -63 91q-37 27 -81 27q-66 0 -109 -53q-67 -83 -67 -329v-271q0 -168 31 -260 q40 -122 145 -122q66 0 109 54q67 84 67 328z" />
<glyph horiz-adv-x="1050" vert-adv-y="2288" d="M29 0v195l12 11q211 195 333 327q127 137 181 241q57 107 57 241q0 206 -183 206q-111 0 -235 -62q-45 -23 -133 -79v279q185 124 414 124q472 0 472 -458q0 -181 -86 -327q-74 -125 -242 -293q-59 -59 -153 -147h511l-26 -258h-922z" />
<glyph horiz-adv-x="1027" vert-adv-y="2288" d="M963 1447l-27 -254h-515l-38 -305q78 17 142 17q220 0 330 -113q99 -101 99 -291q0 -284 -193 -418q-178 -124 -448 -155q-116 -13 -295 -22v257q289 17 426 76q179 78 179 248q0 86 -49 125q-66 51 -201 51q-121 0 -290 -42l103 826h777z" />
<glyph horiz-adv-x="1115" vert-adv-y="2288" d="M46 0v258h144v355h-145v233h145v154q0 136 34 221q103 262 473 262q179 0 328 -64v-266q-89 36 -123 45q-81 24 -168 24q-125 0 -179 -78q-36 -51 -36 -167v-131h344v-233h-344v-355h549l-26 -258h-996z" />
<glyph horiz-adv-x="1147" vert-adv-y="2288" d="M969 1543v-260q-139 -13 -201 -28q-215 -53 -300 -206q-44 -78 -57 -209q117 88 272 88q191 0 293 -104q112 -112 112 -342q0 -249 -144 -385q-134 -127 -353 -127q-259 0 -400 192q-125 170 -125 527q0 254 75 412q137 289 483 392q115 34 345 50zM408 625 q0 -140 15 -226q33 -190 171 -190q95 0 131 78q28 61 28 181q0 141 -44 187q-38 39 -117 39q-66 0 -124 -30q-20 -10 -39 -23q-21 -15 -21 -16z" />
<glyph horiz-adv-x="1104" vert-adv-y="2288" d="M23 785v186h134q15 103 38 173q60 181 225 270q131 69 336 69q162 0 306 -47v-272q-179 65 -291 65q-95 0 -151 -34q-98 -60 -122 -224h371v-186h-376v-117h376v-186h-370q14 -106 49 -158q65 -97 226 -97q131 0 302 75v-261q-150 -71 -336 -71q-342 0 -489 215 q-62 91 -85 228q-4 24 -10 69h-133v186h127v117h-127z" />
<glyph horiz-adv-x="929" vert-adv-y="2288" d="M19 -93l601 1267h-638l20 273h923v-201l-558 -1339h-348z" />
<glyph horiz-adv-x="1164" vert-adv-y="2288" d="M309 725q-76 48 -119 98q-84 98 -84 256q0 211 149 315q126 89 338 89q465 0 465 -368q0 -204 -201 -321q99 -49 154 -108q92 -97 92 -275q0 -207 -131 -320q-141 -121 -389 -121q-251 0 -396 116q-125 100 -125 294q0 242 247 345zM514 631q-5 -3 -11 -6 q-134 -72 -134 -228q0 -87 55 -137q61 -56 164 -56q101 0 156 56q46 47 46 125q0 102 -95 161q-49 31 -181 85zM644 882q3 2 7 5q102 76 102 199q0 79 -42 120q-46 45 -130 45q-74 0 -117 -37q-47 -41 -47 -111q0 -88 95 -152q37 -25 89 -50q42 -20 43 -19z" />
<glyph horiz-adv-x="1147" vert-adv-y="2288" d="M136 169q157 13 233 32q215 53 305 201q49 80 63 212q-119 -88 -272 -88q-185 0 -288 101q-118 117 -118 356q0 252 151 385q130 115 345 115q527 0 527 -710q0 -262 -72 -418q-129 -278 -484 -385q-143 -43 -390 -59v258zM741 829q0 141 -15 225q-33 190 -172 190 q-92 0 -129 -72q-31 -60 -31 -185q0 -144 46 -189q39 -38 117 -38q67 0 125 30q20 10 39 23q20 15 20 16z" />
<glyph horiz-adv-x="1117" vert-adv-y="2288" d="M68 575v186h276l-365 686h366l243 -502l239 502h313l-366 -686h280v-186h-326v-105h326v-186h-326v-284h-333v284h-327v186h327v105h-327z" />
<glyph vert-adv-y="2288" d="M344 -293l105 293q-146 55 -218 161q-55 80 -75 187q-13 65 -13 175q0 203 42 315q104 278 478 278q82 0 175 -14l67 188h153l-83 -233v-232q-25 10 -65 24l-9 3l-229 -649q96 -1 163 13q69 13 149 46v-223q-153 -72 -314 -72q-36 0 -80 4l-92 -264h-154zM760 878 q-7 1 -37 3q-18 2 -42 2q-182 0 -219 -120q-24 -77 -24 -251q0 -151 37 -215q20 -34 58 -59z" />
<glyph vert-adv-y="2288" d="M264 -293l56 279q-110 22 -201 65v252q129 -69 248 -90l84 418q-143 74 -204 131q-126 114 -126 303q0 242 183 348q118 68 321 67l33 158h151l-37 -178q79 -18 158 -47v-250q-111 48 -203 69l-78 -386q143 -69 209 -123q140 -114 140 -320q0 -436 -527 -434l-53 -262 h-154zM518 205q197 21 197 180q0 72 -49 118q-24 23 -76 54zM578 1247q-83 -7 -124 -32q-63 -40 -63 -125q0 -71 42 -116q25 -27 77 -57z" />
<glyph horiz-adv-x="1112" vert-adv-y="2288" d="M954 0h-315v285h-642v184l594 1059h309l-562 -1017h301v378l315 46v-424h152v-226h-152v-285z" />
<glyph horiz-adv-x="929" vert-adv-y="2288" d="M53 0v204h273v927l-285 -114v244l414 196h209v-1253h250v-204h-861z" />
<glyph horiz-adv-x="902" vert-adv-y="2288" d="M99 593v226h187l25 196q31 231 150 335q111 97 309 97h161v-248q-69 10 -112 10q-167 0 -192 -196l-24 -194h228v-226h-257l-128 -999h-318l128 999h-157z" />
<glyph horiz-adv-x="1062" vert-adv-y="2288" d="M11 -94v256q168 12 249 26q217 39 318 123q84 70 84 181q0 150 -169 150q-68 0 -243 -34v237q165 33 238 63q123 49 123 176q0 146 -177 146q-151 0 -374 -112v265q202 100 428 100q452 0 452 -359q0 -156 -89 -241q-42 -41 -115 -76q262 -50 262 -309q0 -260 -188 -392 q-197 -139 -555 -180q-96 -11 -244 -20z" />
<glyph horiz-adv-x="569" vert-adv-y="2288" />
</font>
</defs>
</svg>
